<?xml version="1.0" encoding="utf-8"?>
<!-- Generator: Adobe Illustrator 28.4.1, SVG Export Plug-In . SVG Version: 6.00 Build 0)  -->
<svg version="1.1" id="Layer_1" xmlns="http://www.w3.org/2000/svg" xmlns:xlink="http://www.w3.org/1999/xlink" x="0px" y="0px"
	 viewBox="0 0 1310.2 702.04" style="enable-background:new 0 0 1310.2 702.04;" xml:space="preserve">
<style type="text/css">
	.st0{fill:#BCBEC0;}
	.st1{fill:#58595B;}
	.st2{fill:#0C5166;}
	.st3{fill:#0F5A78;}
	.st4{fill:#42A4BC;}
	.st5{fill:#034251;}
	.st6{fill:#897D72;}
	.st7{fill:#AA9E92;}
	.st8{fill:#776F67;}
	.st9{fill:#414042;}
	.st10{fill:#FAC94A;}
	.st11{fill:#ECB23E;}
	.st12{fill:#BC8B35;}
	.st13{fill:#5B4013;}
	.st14{fill:#CCA86E;}
	.st15{fill:#27AAE1;}
	.st16{clip-path:url(#XMLID_00000002342322226960484370000017834660384640282523_);}
	.st17{fill:#1C75BC;}
	.st18{clip-path:url(#XMLID_00000127024281789689297960000006380074738515600519_);}
	.st19{clip-path:url(#XMLID_00000129172861674735194500000001974129554597951910_);}
	.st20{clip-path:url(#XMLID_00000011715438501292242090000017114552908309258419_);}
	.st21{fill:#BB3735;}
	.st22{fill:#E65A4B;}
	.st23{fill:#FFFFFF;}
	.st24{fill:#0A4A69;}
	.st25{fill:#4B7F8B;}
</style>
<rect id="XMLID_366_" x="46.27" y="183.74" class="st0" width="1199.39" height="20.19"/>
<g id="XMLID_354_">
	<g id="XMLID_364_">
		<path id="XMLID_365_" class="st1" d="M202.29,218.8c-0.57,0-1.04-0.46-1.04-1.04v-11.12c0-0.5,0.35-0.92,0.84-1.02
			c0.42-0.08,10.37-2.16,10.37-12.79c0-8.16-9.14-10.09-12.27-10.51v0.83c0,0.57-0.46,1.04-1.04,1.04c-0.57,0-1.04-0.46-1.04-1.04
			v-1.97c0-0.57,0.46-1.04,1.04-1.04c0.15,0,15.38,0.95,15.38,12.69c0,10.42-8.47,13.79-11.2,14.6v10.32
			C203.32,218.33,202.86,218.8,202.29,218.8z"/>
	</g>
	<g id="XMLID_356_">
		<polygon id="XMLID_363_" class="st2" points="175.17,222.71 229.4,222.71 202.29,254.77 		"/>
		<path id="XMLID_362_" class="st3" d="M342.21,340.8l-38.39-68.94c-2.87-5.73-7.61-10.32-13.43-13l-52.72-24.23l0,0l-30.56,35.41
			l-4.82-15.27l-4.82,15.28l-30.56-35.42l0,0l-52.72,24.23c-5.83,2.68-10.56,7.26-13.43,13L62.37,340.8l47.04,25.93l14.47-26.54
			l-13.27,154.39c0,0,39.2,13.27,91.67,13.27s91.67-13.27,91.67-13.27L280.69,340.2l14.47,26.54L342.21,340.8z"/>
		<path id="XMLID_361_" class="st4" d="M100.76,271.86L62.37,340.8l47.04,25.93l14.47-26.54c5.96-35.8-9.7-81.33-9.7-81.33
			C108.36,261.54,103.63,266.13,100.76,271.86z"/>
		<path id="XMLID_360_" class="st4" d="M303.82,271.86l38.39,68.94l-47.04,25.93l-14.47-26.54c-5.96-35.8,9.7-81.33,9.7-81.33
			C296.21,261.54,300.95,266.13,303.82,271.86z"/>
		<path id="XMLID_359_" class="st4" d="M196.34,507.8c1.96,0.04,3.94,0.06,5.95,0.06s3.98-0.03,5.95-0.06V268.74l0,0l-5.95-13.97
			l-5.95,13.97l0,0V507.8z"/>
		<polygon id="XMLID_358_" class="st5" points="208.23,270.05 237.67,234.63 229.4,222.71 202.29,254.77 208.23,270.05 		"/>
		<polygon id="XMLID_357_" class="st5" points="196.34,270.05 202.29,254.77 175.17,222.71 166.91,234.63 196.34,270.05 		"/>
	</g>
	<path id="XMLID_355_" class="st1" d="M223.57,229.6l2.78-3.28l-22.81-10.55c-0.55-0.25-1.18-0.26-1.73-0.01l-23.48,10.67l2.78,3.29
		l21.55-9.79L223.57,229.6z"/>
</g>
<g id="XMLID_338_">
	<g id="XMLID_352_">
		<path id="XMLID_353_" class="st1" d="M361.5,218.8c-0.57,0-1.04-0.46-1.04-1.04v-11.12c0-0.5,0.35-0.92,0.84-1.02
			c0.42-0.08,10.37-2.15,10.37-12.79c0-8.16-9.14-10.09-12.27-10.51v0.83c0,0.57-0.46,1.04-1.04,1.04c-0.57,0-1.04-0.46-1.04-1.04
			v-1.97c0-0.57,0.46-1.04,1.04-1.04c0.15,0,15.38,0.95,15.38,12.69c0,10.42-8.47,13.79-11.21,14.6v10.32
			C362.53,218.33,362.07,218.8,361.5,218.8z"/>
	</g>
	<g id="XMLID_340_">
		<polygon id="XMLID_351_" class="st6" points="279.41,235.53 443.59,235.53 433.16,261.21 289.84,270.2 		"/>
		<path id="XMLID_350_" class="st7" d="M443.59,235.53l-17.43,3.71c-42.63,9.07-86.69,9.07-129.32,0l-17.43-3.71L243.6,437.26
			l87.33,11.35l30.57-94.32l30.57,94.32l87.33-11.35L443.59,235.53z"/>
		<path id="XMLID_349_" class="st8" d="M292.67,256.54l1.67-17.83l-14.93-3.18l-9.95,56.06
			C269.46,291.59,288.5,273.83,292.67,256.54z"/>
		<path id="XMLID_348_" class="st8" d="M430.33,256.54l-1.67-17.83l14.93-3.18l9.95,56.06C453.54,291.59,434.5,273.83,430.33,256.54
			z"/>
		<path id="XMLID_347_" class="st9" d="M292.67,256.54c45.38,9.65,92.28,9.65,137.66,0l16.37-3.48l-3.11-17.52l-17.43,3.71
			c-42.63,9.07-86.69,9.07-129.32,0l-17.43-3.71l-3.11,17.52L292.67,256.54z"/>
		<polygon id="XMLID_346_" class="st9" points="335.66,434.01 246.36,421.71 246.36,421.71 243.6,437.26 330.93,448.62 
			336.07,432.75 		"/>
		<polygon id="XMLID_345_" class="st9" points="387.33,434.01 476.63,421.71 476.63,421.71 479.39,437.26 392.06,448.62 
			386.92,432.75 		"/>
		<g id="XMLID_343_">
			<path id="XMLID_344_" class="st9" d="M373.19,327.28c-0.95,0-1.8-0.7-1.95-1.67c-0.22-1.42-5.46-34.83-6.45-46.15
				c-0.6-6.93-2.49-13.75-3.8-17.85c-2.45,4.46-6.33,13.1-7.6,24.82c-1.97,18.19-3.43,25.6-3.49,25.91
				c-0.22,1.07-1.27,1.77-2.33,1.55c-1.07-0.21-1.77-1.26-1.55-2.33c0.02-0.07,1.49-7.59,3.44-25.55
				c2.01-18.63,10.1-29.7,10.45-30.16c0.43-0.58,1.12-0.88,1.85-0.78c0.71,0.09,1.31,0.57,1.58,1.24c0.18,0.46,4.4,11.29,5.4,22.82
				c0.97,11.18,6.36,45.54,6.42,45.88c0.17,1.08-0.57,2.09-1.65,2.26C373.4,327.27,373.3,327.28,373.19,327.28z"/>
		</g>
		<path id="XMLID_342_" class="st9" d="M352.25,311.94c0,2.37-1.92,4.29-4.29,4.29c-2.37,0-4.29-1.92-4.29-4.29
			c0-2.37,1.92-4.29,4.29-4.29C350.33,307.65,352.25,309.57,352.25,311.94z"/>
		<path id="XMLID_341_" class="st9" d="M377.55,325.36c0,2.37-1.92,4.29-4.29,4.29c-2.37,0-4.29-1.92-4.29-4.29
			c0-2.37,1.92-4.29,4.29-4.29C375.63,321.07,377.55,322.99,377.55,325.36z"/>
	</g>
	<path id="XMLID_339_" class="st1" d="M313.01,242.23l48.75-22.19l48.19,22.2c1.88-0.3,3.76-0.63,5.64-0.96
		c-0.12-0.64-0.5-1.23-1.13-1.52l-51.82-23.87c-0.55-0.25-1.18-0.26-1.73,0l-52.43,23.87c-0.64,0.29-1.02,0.87-1.14,1.51
		C309.23,241.6,311.12,241.93,313.01,242.23z"/>
</g>
<g id="XMLID_326_">
	<g id="XMLID_333_">
		<g id="XMLID_336_">
			<path id="XMLID_337_" class="st1" d="M480.44,240.8c-0.79,0-1.55-0.44-1.92-1.2c-0.52-1.06-0.08-2.33,0.98-2.85l38.87-19.03
				c0.6-0.29,1.29-0.29,1.88,0.01l38.32,19.03c1.06,0.52,1.49,1.8,0.96,2.86c-0.52,1.05-1.81,1.49-2.86,0.96l-37.38-18.56
				l-37.93,18.57C481.07,240.73,480.75,240.8,480.44,240.8z"/>
		</g>
		<g id="XMLID_334_">
			<path id="XMLID_335_" class="st1" d="M519.03,220.71c-0.59,0-1.07-0.48-1.07-1.07V208.2c0-0.51,0.36-0.95,0.86-1.05
				c0.44-0.09,10.67-2.22,10.67-13.16c0-8.4-9.41-10.39-12.63-10.82v0.85c0,0.59-0.48,1.07-1.07,1.07c-0.59,0-1.07-0.48-1.07-1.07
				V182c0-0.59,0.48-1.07,1.07-1.07c0.16,0,15.83,0.97,15.83,13.06c0,10.73-8.72,14.19-11.53,15.03v10.62
				C520.1,220.23,519.62,220.71,519.03,220.71z"/>
		</g>
	</g>
	<g id="XMLID_327_">
		<path id="XMLID_332_" class="st10" d="M623.78,381.85c-4.2-43.82-13.11-82.94-18.78-104.79c-2.99-11.52-10.65-21.27-21.16-26.85
			l-27.44-14.56c-7.05,13.45-21.12,22.63-37.36,22.63c-16.24,0-30.31-9.19-37.36-22.63l-27.44,14.56
			c-10.52,5.58-18.17,15.33-21.16,26.85c-5.67,21.85-14.58,60.97-18.78,104.79c-6.43,67.07-12.86,130.47-12.86,130.47h32.16
			l15.62-120.37v120.37h69.83h69.83V391.96l15.62,120.37h32.16C636.64,512.33,630.21,448.93,623.78,381.85z"/>
		<path id="XMLID_331_" class="st11" d="M438.89,264.14c-2.61,3.92-4.62,8.26-5.83,12.92c-5.67,21.85-14.58,60.97-18.78,104.79
			c-6.43,67.07-12.86,130.47-12.86,130.47h32.16l15.62-120.37C457.48,328.13,439.1,264.85,438.89,264.14z"/>
		<path id="XMLID_330_" class="st11" d="M599.17,264.14c2.61,3.92,4.62,8.26,5.83,12.92c5.67,21.85,14.58,60.97,18.78,104.79
			c6.43,67.07,12.86,130.47,12.86,130.47h-32.16l-15.62-120.37C580.58,328.13,598.96,264.85,599.17,264.14z"/>
		<path id="XMLID_329_" class="st11" d="M556.01,235.65l-3.68-15.78c0,0-9.97,27.44-33.31,27.44s-33.31-27.44-33.31-27.44
			l-3.68,15.78c0,0-0.04,0.2-0.09,0.5c7.14,13.17,21.04,22.13,37.08,22.13c16.03,0,29.94-8.96,37.08-22.13
			C556.05,235.85,556.01,235.65,556.01,235.65z"/>
		<rect id="XMLID_328_" x="449.2" y="493.03" class="st11" width="139.66" height="19.3"/>
	</g>
</g>
<g id="XMLID_244_">
	<g id="XMLID_248_">
		<path id="XMLID_325_" class="st12" d="M764.58,233.95h-75.81h-75.81c0,0-51.64,285.18-51.64,348.28l75.71,13.88l6.28-48.15
			c7.82-59.98,21.56-119.03,41-176.28c1.43-4.22,7.47-4.22,8.9,0c19.44,57.25,33.18,116.3,41,176.28l6.28,48.15l75.71-13.88
			C816.21,519.13,764.58,233.95,764.58,233.95z"/>
		<g id="XMLID_297_">
			<g id="XMLID_323_">
				<polygon id="XMLID_324_" class="st13" points="619.6,261.35 616.8,260.85 617.46,257.13 620.26,257.64 				"/>
			</g>
			<g id="XMLID_300_">
				<path id="XMLID_301_" class="st13" d="M572.15,572.98l-2.83-0.22c0.18-2.39,0.4-4.89,0.63-7.51l2.83,0.26
					C572.54,568.12,572.33,570.61,572.15,572.98z M573.5,558.05l-2.82-0.29c0.25-2.42,0.51-4.91,0.79-7.48l2.82,0.31
					C574.01,553.15,573.74,555.64,573.5,558.05z M575.14,543.13l-2.82-0.33c0.28-2.43,0.58-4.93,0.89-7.47l2.82,0.34
					C575.72,538.22,575.42,540.7,575.14,543.13z M576.95,528.24l-2.82-0.36l0.96-7.45l2.81,0.37L576.95,528.24z M578.9,513.35
					l-2.81-0.38l1.01-7.45l2.81,0.39L578.9,513.35z M580.95,498.48l-2.81-0.4l1.06-7.44l2.81,0.4L580.95,498.48z M583.07,483.62
					l-2.81-0.41l1.09-7.43l2.81,0.41L583.07,483.62z M585.26,468.76l-2.81-0.42l1.12-7.43l2.81,0.43L585.26,468.76z M587.5,453.92
					l-2.81-0.43l1.14-7.42l2.81,0.43L587.5,453.92z M589.79,439.08l-2.81-0.44l1.16-7.42l2.81,0.44L589.79,439.08z M592.12,424.23
					l-2.81-0.44l1.18-7.43l2.8,0.45L592.12,424.23z M594.49,409.39l-2.8-0.45l1.19-7.4l2.8,0.45L594.49,409.39z M596.88,394.59
					l-2.8-0.46l1.21-7.41l2.8,0.46L596.88,394.59z M599.31,379.77l-2.8-0.46l1.23-7.41l2.8,0.46L599.31,379.77z M601.77,364.96
					l-2.8-0.47l1.24-7.41l2.8,0.47L601.77,364.96z M604.25,350.15l-2.8-0.47l1.25-7.4l2.8,0.47L604.25,350.15z M606.75,335.34
					l-2.8-0.48l1.26-7.4l2.8,0.48L606.75,335.34z M609.28,320.53l-2.8-0.48l1.27-7.4l2.8,0.48L609.28,320.53z M611.83,305.73
					l-2.8-0.48l1.28-7.4l2.8,0.48L611.83,305.73z M614.4,290.93l-2.8-0.49l1.29-7.4l2.8,0.49L614.4,290.93z M616.99,276.12
					l-2.79-0.49l1.3-7.4l2.8,0.49L616.99,276.12z"/>
			</g>
			<g id="XMLID_298_">
				<path id="XMLID_299_" class="st13" d="M571.47,583.86l-2.84-0.12c0.05-1.21,0.11-2.48,0.19-3.79l2.84,0.16
					C571.59,581.41,571.52,582.66,571.47,583.86z"/>
			</g>
		</g>
		<g id="XMLID_269_">
			<g id="XMLID_295_">
				<polygon id="XMLID_296_" class="st13" points="757.93,261.35 760.73,260.85 760.07,257.13 757.27,257.64 				"/>
			</g>
			<g id="XMLID_272_">
				<path id="XMLID_273_" class="st13" d="M804.75,565.52l2.83-0.26c0.24,2.62,0.45,5.12,0.63,7.51l-2.83,0.22
					C805.2,570.61,804.99,568.12,804.75,565.52z M803.24,550.59l2.82-0.31c0.28,2.57,0.55,5.06,0.79,7.48l-2.82,0.29
					C803.79,555.64,803.52,553.15,803.24,550.59z M801.5,535.68l2.82-0.34c0.31,2.54,0.61,5.03,0.89,7.47l-2.82,0.33
					C802.11,540.7,801.81,538.22,801.5,535.68z M799.62,520.79l2.81-0.37l0.96,7.45l-2.82,0.36L799.62,520.79z M797.61,505.91
					l2.81-0.39l1.01,7.45l-2.81,0.38L797.61,505.91z M795.53,491.05l2.81-0.4l1.06,7.44l-2.81,0.4L795.53,491.05z M793.37,476.19
					l2.81-0.41l1.09,7.43l-2.81,0.41L793.37,476.19z M791.16,461.34l2.81-0.43l1.12,7.43l-2.81,0.42L791.16,461.34z M788.89,446.5
					l2.81-0.43l1.14,7.42l-2.81,0.43L788.89,446.5z M786.58,431.66l2.81-0.44l1.16,7.42l-2.81,0.44L786.58,431.66z M784.23,416.8
					l2.8-0.45l1.18,7.43l-2.81,0.44L784.23,416.8z M781.85,401.99l2.8-0.45l1.19,7.4l-2.8,0.45L781.85,401.99z M779.44,387.18
					l2.8-0.46l1.21,7.41l-2.8,0.46L779.44,387.18z M776.99,372.36l2.8-0.46l1.23,7.41l-2.8,0.46L776.99,372.36z M774.53,357.55
					l2.8-0.47l1.24,7.41l-2.8,0.47L774.53,357.55z M772.03,342.74l2.8-0.47l1.25,7.4l-2.8,0.47L772.03,342.74z M769.52,327.93
					l2.8-0.48l1.26,7.4l-2.8,0.48L769.52,327.93z M766.98,313.13l2.8-0.48l1.27,7.4l-2.8,0.48L766.98,313.13z M764.42,298.33
					l2.8-0.48l1.28,7.4l-2.8,0.48L764.42,298.33z M761.84,283.52l2.8-0.49l1.29,7.4l-2.8,0.49L761.84,283.52z M759.23,268.72
					l2.8-0.49l1.3,7.4l-2.79,0.49L759.23,268.72z"/>
			</g>
			<g id="XMLID_270_">
				<path id="XMLID_271_" class="st13" d="M806.06,583.86l2.84-0.12c-0.05-1.21-0.11-2.48-0.19-3.79l-2.84,0.16
					C805.94,581.41,806,582.66,806.06,583.86z"/>
			</g>
		</g>
		<path id="XMLID_268_" class="st14" d="M612.95,233.95c0,0,21.55,20.51,75.81,20.51c54.26,0,75.81-20.51,75.81-20.51H612.95z"/>
		<path id="XMLID_267_" class="st13" d="M764.58,233.95c0,0-21.55,20.51-75.81,20.51c-54.26,0-75.81-20.51-75.81-20.51
			s-1.24,6.87-3.34,18.71c17.42,9.82,43.27,18.97,79.16,18.97c35.89,0,61.73-9.15,79.16-18.97
			C765.82,240.82,764.58,233.95,764.58,233.95z"/>
		<g id="XMLID_249_">
			<g id="XMLID_265_">
				<rect id="XMLID_266_" x="687.35" y="271.62" class="st13" width="2.84" height="3.79"/>
			</g>
			<g id="XMLID_260_">
				<path id="XMLID_261_" class="st13" d="M690.19,326.4h-2.84v-8.5h2.84V326.4z M690.19,309.4h-2.84v-8.5h2.84V309.4z
					 M690.19,292.4h-2.84v-8.5h2.84V292.4z"/>
			</g>
			<g id="XMLID_258_">
				<polygon id="XMLID_259_" class="st13" points="692.55,340.1 687.35,340.1 687.35,334.9 690.19,334.9 690.19,337.26 
					692.55,337.26 				"/>
			</g>
			<g id="XMLID_252_">
				<path id="XMLID_253_" class="st13" d="M701.72,340.1h-0.96l-0.01-2.69l0,0c0,0,0,0,0.01-0.01v-0.14h0.18
					c0.48-0.42,1.8-1.8,3.21-5.36l2.64,1.05c-2.17,5.48-4.35,6.8-4.77,7.01L701.72,340.1z M709.13,324.85l-2.78-0.59
					c0.51-2.41,0.94-5.1,1.29-7.97l2.82,0.34C710.1,319.59,709.66,322.35,709.13,324.85z M711.01,308.28h-2.84v-8.21h2.84V308.28z
					 M711.01,291.86h-2.84v-8.21h2.84V291.86z"/>
			</g>
			<g id="XMLID_250_">
				<rect id="XMLID_251_" x="708.17" y="271.62" class="st13" width="2.84" height="3.79"/>
			</g>
		</g>
	</g>
	<g id="XMLID_246_">
		<path id="XMLID_247_" class="st1" d="M688.77,219.01c-0.57,0-1.04-0.46-1.04-1.04v-11.12c0-0.5,0.35-0.92,0.84-1.02
			c0.42-0.08,10.37-2.16,10.37-12.79c0-8.16-9.14-10.09-12.27-10.51v0.83c0,0.57-0.46,1.04-1.04,1.04s-1.04-0.46-1.04-1.04v-1.97
			c0-0.57,0.46-1.04,1.04-1.04c0.15,0,15.38,0.95,15.38,12.69c0,10.42-8.47,13.79-11.2,14.6v10.32
			C689.8,218.54,689.34,219.01,688.77,219.01z"/>
	</g>
	<path id="XMLID_245_" class="st1" d="M633.18,245.27l55.85-25.03l55.33,25.03c1.62-0.63,3.13-1.26,4.54-1.89
		c-0.2-0.45-0.54-0.85-1.03-1.07l-57.99-26.23c-0.54-0.25-1.16-0.24-1.7,0l-58.52,26.23c-0.49,0.22-0.84,0.61-1.04,1.07
		C630.04,244.01,631.56,244.64,633.18,245.27z"/>
</g>
<g id="XMLID_177_">
	<g id="XMLID_239_">
		<g id="XMLID_242_">
			<path id="XMLID_243_" class="st1" d="M821.22,238.32c-0.77,0-1.5-0.43-1.86-1.16c-0.5-1.03-0.08-2.27,0.95-2.77l37.77-18.49
				c0.58-0.29,1.25-0.28,1.83,0.01l37.23,18.49c1.02,0.51,1.44,1.75,0.93,2.78c-0.51,1.02-1.75,1.45-2.78,0.93l-36.31-18.03
				l-36.85,18.04C821.84,238.25,821.53,238.32,821.22,238.32z"/>
		</g>
		<g id="XMLID_240_">
			<path id="XMLID_241_" class="st1" d="M858.72,218.8c-0.57,0-1.04-0.46-1.04-1.04v-11.12c0-0.5,0.35-0.92,0.84-1.02
				c0.42-0.08,10.37-2.16,10.37-12.79c0-8.16-9.14-10.09-12.27-10.51v0.83c0,0.57-0.46,1.04-1.04,1.04c-0.57,0-1.04-0.46-1.04-1.04
				v-1.97c0-0.57,0.46-1.04,1.04-1.04c0.15,0,15.38,0.95,15.38,12.69c0,10.42-8.47,13.79-11.2,14.6v10.32
				C859.75,218.33,859.29,218.8,858.72,218.8z"/>
		</g>
	</g>
	<path id="XMLID_238_" class="st15" d="M960.26,266.86c-2.87-5.73-7.61-10.32-13.43-13l-51.84-23.83
		c-2.13,18.14-17.54,32.22-36.25,32.22c-18.72,0-34.12-14.08-36.25-32.22l-51.84,23.83c-5.83,2.68-10.56,7.26-13.43,13l-38.39,68.94
		l47.04,25.93l14.47-26.54v154.45h156.81V335.19l14.47,26.54l47.04-25.93L960.26,266.86z"/>
	<g id="XMLID_150_">
		<g id="XMLID_192_">
			<g id="XMLID_217_">
				<defs>
					<path id="XMLID_218_" d="M822.47,230.03l-51.84,23.83c0,0,9.69,61.89,9.69,81.33v154.45h78.4V262.26
						C840.01,262.26,824.61,248.17,822.47,230.03z"/>
				</defs>
				<clipPath id="XMLID_00000003097537508717236330000017793244679409731493_">
					<use xlink:href="#XMLID_218_"  style="overflow:visible;"/>
				</clipPath>
				<g id="XMLID_219_" style="clip-path:url(#XMLID_00000003097537508717236330000017793244679409731493_);">
					<rect id="XMLID_237_" x="760.3" y="237.94" class="st17" width="98.43" height="6.87"/>
					<rect id="XMLID_236_" x="760.3" y="255.56" class="st17" width="98.43" height="6.87"/>
					<rect id="XMLID_235_" x="760.3" y="273.17" class="st17" width="98.43" height="6.87"/>
					<rect id="XMLID_234_" x="760.3" y="290.79" class="st17" width="98.43" height="6.87"/>
					<rect id="XMLID_233_" x="760.3" y="308.41" class="st17" width="98.43" height="6.87"/>
					<rect id="XMLID_232_" x="760.3" y="326.03" class="st17" width="98.43" height="6.87"/>
					<rect id="XMLID_231_" x="760.3" y="343.64" class="st17" width="98.43" height="6.87"/>
					<rect id="XMLID_230_" x="760.3" y="361.26" class="st17" width="98.43" height="6.87"/>
					<rect id="XMLID_229_" x="760.3" y="378.88" class="st17" width="98.43" height="6.87"/>
					<rect id="XMLID_228_" x="760.3" y="396.5" class="st17" width="98.43" height="6.87"/>
					<rect id="XMLID_227_" x="760.3" y="414.11" class="st17" width="98.43" height="6.87"/>
					<rect id="XMLID_226_" x="760.3" y="431.73" class="st17" width="98.43" height="6.87"/>
					<rect id="XMLID_225_" x="760.3" y="449.35" class="st17" width="98.43" height="6.87"/>
					<rect id="XMLID_223_" x="760.3" y="466.97" class="st17" width="98.43" height="6.87"/>
					<rect id="XMLID_221_" x="760.3" y="484.58" class="st17" width="98.43" height="6.87"/>
				</g>
			</g>
			<g id="XMLID_193_">
				<defs>
					<path id="XMLID_194_" d="M894.97,230.03l51.84,23.83c0,0-9.69,61.89-9.69,81.33v154.45h-78.4V262.26
						C877.43,262.26,892.84,248.17,894.97,230.03z"/>
				</defs>
				<clipPath id="XMLID_00000115478403259462684030000004345125746414747028_">
					<use xlink:href="#XMLID_194_"  style="overflow:visible;"/>
				</clipPath>
				<g id="XMLID_195_" style="clip-path:url(#XMLID_00000115478403259462684030000004345125746414747028_);">
					<rect id="XMLID_215_" x="858.72" y="237.94" class="st17" width="98.43" height="6.87"/>
					<rect id="XMLID_214_" x="858.72" y="255.56" class="st17" width="98.43" height="6.87"/>
					<rect id="XMLID_213_" x="858.72" y="273.17" class="st17" width="98.43" height="6.87"/>
					<rect id="XMLID_212_" x="858.72" y="290.79" class="st17" width="98.43" height="6.87"/>
					<rect id="XMLID_211_" x="858.72" y="308.41" class="st17" width="98.43" height="6.87"/>
					<rect id="XMLID_210_" x="858.72" y="326.03" class="st17" width="98.43" height="6.87"/>
					<rect id="XMLID_209_" x="858.72" y="343.64" class="st17" width="98.43" height="6.87"/>
					<rect id="XMLID_208_" x="858.72" y="361.26" class="st17" width="98.43" height="6.87"/>
					<rect id="XMLID_207_" x="858.72" y="378.88" class="st17" width="98.43" height="6.87"/>
					<rect id="XMLID_206_" x="858.72" y="396.5" class="st17" width="98.43" height="6.87"/>
					<rect id="XMLID_205_" x="858.72" y="414.11" class="st17" width="98.43" height="6.87"/>
					<rect id="XMLID_204_" x="858.72" y="431.73" class="st17" width="98.43" height="6.87"/>
					<rect id="XMLID_203_" x="858.72" y="449.35" class="st17" width="98.43" height="6.87"/>
					<rect id="XMLID_197_" x="858.72" y="466.97" class="st17" width="98.43" height="6.87"/>
					<rect id="XMLID_196_" x="858.72" y="484.58" class="st17" width="98.43" height="6.87"/>
				</g>
			</g>
		</g>
		<g id="XMLID_178_">
			<defs>
				<path id="XMLID_180_" d="M757.2,266.86l-38.39,68.94l47.04,25.93l14.47-26.54c0-19.44-9.69-81.33-9.69-81.33
					C764.8,256.54,760.07,261.12,757.2,266.86z"/>
			</defs>
			<clipPath id="XMLID_00000078041438185861595350000012608593644023736462_">
				<use xlink:href="#XMLID_180_"  style="overflow:visible;"/>
			</clipPath>
			<g id="XMLID_181_" style="clip-path:url(#XMLID_00000078041438185861595350000012608593644023736462_);">
				
					<rect id="XMLID_190_" x="769.77" y="237.12" transform="matrix(0.4831 -0.8755 0.8755 0.4831 158.5776 819.2761)" class="st17" width="6.87" height="76.4"/>
				
					<rect id="XMLID_188_" x="781.29" y="225.61" transform="matrix(0.4831 -0.8755 0.8755 0.4831 174.6095 823.4064)" class="st17" width="6.87" height="76.4"/>
				
					<rect id="XMLID_186_" x="758.23" y="248.66" transform="matrix(0.4831 -0.8755 0.8755 0.4831 142.5076 815.1368)" class="st17" width="6.87" height="76.4"/>
				
					<rect id="XMLID_185_" x="758.23" y="266.33" transform="matrix(0.4831 -0.8755 0.8755 0.4831 127.0446 824.2639)" class="st17" width="6.87" height="76.4"/>
				
					<rect id="XMLID_184_" x="758.23" y="284.17" transform="matrix(0.4831 -0.8755 0.8755 0.4831 111.4217 833.4866)" class="st17" width="6.87" height="76.4"/>
				
					<rect id="XMLID_183_" x="752.36" y="298.38" transform="matrix(0.4831 -0.8755 0.8755 0.4831 95.9491 835.6913)" class="st17" width="6.87" height="76.4"/>
				
					<rect id="XMLID_182_" x="743.38" y="310.81" transform="matrix(0.4831 -0.8755 0.8755 0.4831 80.4252 834.2547)" class="st17" width="6.87" height="76.4"/>
			</g>
		</g>
		<g id="XMLID_151_">
			<defs>
				<path id="XMLID_152_" d="M960.26,266.86l38.39,68.94l-47.04,25.93l-14.47-26.54c0-19.44,9.69-81.33,9.69-81.33
					C952.65,256.54,957.39,261.12,960.26,266.86z"/>
			</defs>
			<clipPath id="XMLID_00000164486117290759125360000014768652660791162284_">
				<use xlink:href="#XMLID_152_"  style="overflow:visible;"/>
			</clipPath>
			<g id="XMLID_153_" style="clip-path:url(#XMLID_00000164486117290759125360000014768652660791162284_);">
				
					<rect id="XMLID_176_" x="906.05" y="271.89" transform="matrix(0.8755 -0.4831 0.4831 0.8755 -15.5008 490.4758)" class="st17" width="76.4" height="6.87"/>
				
					<rect id="XMLID_175_" x="894.53" y="260.38" transform="matrix(0.8755 -0.4831 0.4831 0.8755 -11.3709 483.4807)" class="st17" width="76.4" height="6.87"/>
				
					<rect id="XMLID_172_" x="917.59" y="283.43" transform="matrix(0.8755 -0.4831 0.4831 0.8755 -19.6405 497.4891)" class="st17" width="76.4" height="6.87"/>
				
					<rect id="XMLID_171_" x="917.59" y="301.09" transform="matrix(0.8755 -0.4831 0.4831 0.8755 -28.1728 499.6883)" class="st17" width="76.4" height="6.87"/>
				
					<rect id="XMLID_156_" x="917.59" y="318.94" transform="matrix(0.8755 -0.4831 0.4831 0.8755 -36.794 501.9091)" class="st17" width="76.4" height="6.87"/>
				
					<rect id="XMLID_155_" x="923.46" y="333.14" transform="matrix(0.8755 -0.4831 0.4831 0.8755 -42.9279 506.5122)" class="st17" width="76.4" height="6.87"/>
				
					<rect id="XMLID_154_" x="932.44" y="345.57" transform="matrix(0.8755 -0.4831 0.4831 0.8755 -47.8161 512.3972)" class="st17" width="76.4" height="6.87"/>
			</g>
		</g>
	</g>
</g>
<g id="XMLID_220_">
	<g id="XMLID_167_">
		<path id="XMLID_160_" class="st21" d="M1141.62,372.53c-14.09-61.48-30.08-93.76-38.95-108.2c-3.76-6.13-9.65-10.47-16.39-12.24
			l-16.12-3.59l-0.36,3.19l-63.91,4.66l-63.91-4.66l-0.36-3.19l-16.12,3.59c-6.74,1.77-12.62,6.11-16.39,12.24
			c-8.87,14.45-24.86,46.72-38.95,108.2c-20.82,90.86-24.15,121.93-24.15,121.93h32.47h6.66c0,0,12.49-101.84,43.3-158.63v164.24
			h77.44h77.44V335.84c30.81,56.79,43.3,158.63,43.3,158.63h6.66h32.47C1165.77,494.47,1162.43,463.39,1141.62,372.53z"/>
		<path id="XMLID_166_" class="st21" d="M1062.26,224.25c-8.6-4.67-25.02-9.13-56.36-9.13s-47.76,4.45-56.36,9.13
			c-6.11,3.32-9.48,10.41-8.67,17.58l1.11,9.85l63.91,4.66l63.91-4.66l1.11-9.85C1071.73,234.66,1068.37,227.57,1062.26,224.25z"/>
		<path id="XMLID_161_" class="st22" d="M915.24,257.36c-2.38,1.94-4.47,4.27-6.12,6.97c-8.87,14.45-24.86,46.72-38.95,108.2
			c-20.82,90.86-24.15,121.93-24.15,121.93h32.47h6.66c0,0,12.49-101.84,43.3-158.63C928.46,286.05,915.24,257.36,915.24,257.36z"/>
		<path id="XMLID_164_" class="st22" d="M1096.55,257.36c2.38,1.94,4.47,4.27,6.12,6.97c8.87,14.45,24.86,46.72,38.95,108.2
			c20.82,90.86,24.15,121.93,24.15,121.93h-32.47h-6.66c0,0-12.49-101.84-43.3-158.63C1083.33,286.05,1096.55,257.36,1096.55,257.36
			z"/>
		<g id="XMLID_159_">
			<path id="XMLID_168_" class="st23" d="M1055.32,436.47h-98.85V302.12h98.85V436.47z M963.16,429.78h85.47V308.81h-85.47V429.78z"
				/>
		</g>
		<path id="XMLID_162_" class="st22" d="M940.87,241.83l1.11,9.85l63.91,4.66c-24.86-17.88-49.93-26.76-59.54-29.74
			C942.32,230.34,940.21,236.04,940.87,241.83z"/>
		<path id="XMLID_158_" class="st22" d="M1070.92,241.83l-1.11,9.85l-63.91,4.66c24.86-17.88,49.93-26.76,59.54-29.74
			C1069.47,230.34,1071.58,236.04,1070.92,241.83z"/>
		<circle id="XMLID_157_" class="st9" cx="1005.9" cy="256.34" r="4.88"/>
		<g id="XMLID_163_">
			<path id="XMLID_165_" class="st9" d="M1012.25,322.11c-0.03,0-0.06,0-0.09,0c-0.92-0.05-1.63-0.84-1.58-1.76
				c0.01-0.23,1.24-23.59,0-38.01c-0.76-8.9-2.98-14.95-4.51-18.18c-1.35,3.45-3.36,9.66-4.14,17.57
				c-1.24,12.57-1.25,20.35-1.25,20.43c0,0.92-0.75,1.67-1.67,1.67l0,0c-0.92,0-1.67-0.75-1.67-1.67c0-0.08,0.01-8,1.27-20.76
				c1.28-12.99,5.62-21.45,5.81-21.8c0.27-0.52,0.79-0.85,1.37-0.89c0.58-0.04,1.14,0.22,1.48,0.69c0.22,0.31,5.37,7.66,6.66,22.65
				c1.26,14.66,0.02,38.24,0,38.48C1013.87,321.42,1013.13,322.11,1012.25,322.11z"/>
		</g>
	</g>
	<g id="XMLID_173_">
		<path id="XMLID_191_" class="st1" d="M1005.89,219.58c-0.57,0-1.04-0.46-1.04-1.04v-11.12c0-0.5,0.35-0.92,0.84-1.02
			c0.42-0.08,10.37-2.16,10.37-12.79c0-8.16-9.14-10.09-12.27-10.51v0.83c0,0.57-0.46,1.04-1.04,1.04c-0.57,0-1.04-0.46-1.04-1.04
			v-1.97c0-0.57,0.46-1.04,1.04-1.04c0.15,0,15.38,0.95,15.38,12.69c0,10.42-8.47,13.79-11.2,14.6v10.32
			C1006.93,219.11,1006.47,219.58,1005.89,219.58z"/>
	</g>
	<path id="XMLID_174_" class="st1" d="M1038.84,237.07c1.66-0.78,3.28-1.52,4.85-2.22l-36.6-18.17c-0.57-0.29-1.25-0.29-1.83-0.01
		l-37.15,18.18c1.58,0.7,3.2,1.44,4.87,2.23l33.18-16.24L1038.84,237.07z"/>
</g>
<g id="XMLID_216_">
	<g id="XMLID_198_">
		<g id="XMLID_200_">
			<path id="XMLID_202_" class="st1" d="M1097.24,236.03c-0.79,0-1.54-0.45-1.89-1.22c-0.47-1.04-0.01-2.27,1.03-2.74l42.16-19.1
				c0.55-0.25,1.18-0.24,1.73,0.01l41.12,19.1c1.04,0.48,1.49,1.71,1.01,2.75c-0.48,1.04-1.72,1.49-2.75,1.01l-40.26-18.7
				l-41.3,18.71C1097.82,235.98,1097.53,236.03,1097.24,236.03z"/>
		</g>
		<g id="XMLID_199_">
			<path id="XMLID_201_" class="st1" d="M1139.13,215.9c-0.57,0-1.04-0.46-1.04-1.04v-11.12c0-0.5,0.35-0.92,0.84-1.02
				c0.42-0.08,10.37-2.15,10.37-12.79c0-8.16-9.14-10.09-12.27-10.51v0.83c0,0.57-0.46,1.04-1.04,1.04s-1.04-0.46-1.04-1.04v-1.97
				c0-0.57,0.46-1.04,1.04-1.04c0.15,0,15.38,0.94,15.38,12.69c0,10.42-8.47,13.79-11.21,14.6v10.32
				C1140.17,215.43,1139.71,215.9,1139.13,215.9z"/>
		</g>
	</g>
	<g id="XMLID_187_">
		<path id="XMLID_189_" class="st24" d="M1212.83,239.2l-35.17-13.4c0,0-6.7,30.15-38.52,55.27
			c-31.82-25.12-38.52-55.27-38.52-55.27l-35.17,13.4c18.42,56.94-16.75,73.69-16.75,73.69v154.08h90.44h90.44V312.89
			C1229.57,312.89,1194.4,296.14,1212.83,239.2z"/>
		<polygon id="XMLID_179_" class="st25" points="1196.92,344.94 1180.52,354.76 1164.12,344.94 1164.12,317.36 1196.92,317.36 		"/>
	</g>
</g>
<text id="XMLID_222_" transform="matrix(1 0 0 1 2054.7686 -264.3817)" style="fill:#FBB040; font-family:'BrushScriptStd'; font-size:94.0223px;">Clothes</text>
<text id="XMLID_224_" transform="matrix(1 0 0 1 1697.1534 -537.9144)"><tspan x="0" y="0" style="fill:#231F20; font-family:'MyriadPro-Regular'; font-size:24.1903px;">Lorem ipsum dolor sit amet, consectetur adipiscing elit. Integer ut varius elit, </tspan><tspan x="-3.08" y="29.03" style="fill:#231F20; font-family:'MyriadPro-Regular'; font-size:24.1903px;">sit amet auctor augue. Suspendisse lectus augue, fermentum at lobortis vitae,</tspan><tspan x="48.48" y="58.06" style="fill:#231F20; font-family:'MyriadPro-Regular'; font-size:24.1903px;">dignissim ac massa. Sed blandit nunc pulvinar nisi tempus efficitur. </tspan><tspan x="-70.36" y="87.08" style="fill:#231F20; font-family:'MyriadPro-Regular'; font-size:24.1903px;">Aene an imperdiet id leo dapibus tincidunt. Suspendisse vitae sapien sit amet odio tempor </tspan><tspan x="-10.09" y="116.11" style="fill:#231F20; font-family:'MyriadPro-Regular'; font-size:24.1903px;">consequat id eu orci. Sed imperdiet ut risus fringilla posuere. Etiam magna dui, </tspan><tspan x="153.01" y="145.14" style="fill:#231F20; font-family:'MyriadPro-Regular'; font-size:24.1903px;">consectetur feugiat dui et, suscipit sagittis nisl.</tspan></text>
</svg>
