<?xml version="1.0" encoding="utf-8"?>
<!-- Generator: Adobe Illustrator 27.5.0, SVG Export Plug-In . SVG Version: 6.00 Build 0)  -->
<svg version="1.1" id="Capa_1" xmlns="http://www.w3.org/2000/svg" xmlns:xlink="http://www.w3.org/1999/xlink" x="0px" y="0px"
	 viewBox="0 0 2122 2122" style="enable-background:new 0 0 2122 2122;" xml:space="preserve">
<path style="fill:#5E1D4F;" d="M1793.942,727.779c-26.631-14.224-41.515-39.425-51.07-67.22
	c-13.291-38.465-23.035-76.828-51.907-107.101c-11.118-11.673-23.547-22.275-36.965-31.61
	c11.781-38.636,12.951-88.039,12.439-108.999c-2.003-85.393-23.493-170.375-62.957-246.173c-4.648-8.964-10.042-18.268-18.953-22.94
	c-3.649-1.905-8.004-2.651-12.112-2.183c-6.022,0.648-11.557,3.791-13.554,9.427c41.335,97.961,46.027,210.823,13.028,311.861
	c-2.236,6.889-4.672,13.771-6.855,20.701c-6.933-1.342-13.924-2.37-20.96-3.018c-14.348-1.352-28.248-0.996-41.734,0.736
	c-44.263,5.754-84.141,26.672-121.52,53.586c-46.222,33.298-97.179,59.915-150.865,78.875c-7.785,2.738-16.589,6.217-19.298,14.02
	c-4.258,12.134,9.203,22.74,21.023,27.78c25.643,10.94,53.217,17.23,81.057,18.832c-43.042,60.43-71.292,137.728-113.486,195.146
	c-141.656,192.811-337.066,347.198-556.857,441.405c-108.165,46.353-231.975,86.699-301.305,177.111
	c-9.281,12.136-17.632,25.159-24.789,39.23c-19.176,37.657-27.001,79.099-25.315,120.76c0.672,17.622,3.094,35.259,7.011,52.672
	c13.768,60.941,46.524,118.85,92.044,161.837c89.237,84.258,216.882,117.705,339.624,117.388
	c223.006-0.516,438.499-103.82,600.632-256.964c5.576-5.261,11.076-10.595,16.53-15.971c1.645-1.623,3.267-3.27,4.902-4.902
	c3.766-3.759,7.518-7.53,11.232-11.337c0.718-0.736,1.455-1.454,2.172-2.192c0.701-0.724,1.366-1.479,2.065-2.205
	c7.942-8.236,15.773-16.571,23.46-25.033c0.894-0.984,1.771-1.982,2.662-2.969c7.943-8.805,15.776-17.706,23.449-26.742
	c0.337-0.398,0.666-0.804,1.003-1.202c7.668-9.053,15.194-18.225,22.596-27.499c0.543-0.681,1.099-1.352,1.64-2.035
	c7.235-9.101,14.318-18.324,21.301-27.626c0.949-1.263,1.908-2.517,2.852-3.784c6.716-9.015,13.302-18.131,19.789-27.321
	c1.107-1.568,2.216-3.132,3.317-4.705c6.352-9.082,12.592-18.248,18.725-27.49c1.111-1.673,2.216-3.35,3.319-5.028
	c6.103-9.281,12.105-18.633,17.993-28.064c0.993-1.591,1.972-3.19,2.96-4.785c5.961-9.632,11.831-19.324,17.572-29.099
	c0.732-1.246,1.447-2.501,2.175-3.749c5.952-10.201,11.813-20.459,17.533-30.803c0.268-0.485,0.526-0.976,0.794-1.461
	c5.627-10.202,11.13-20.477,16.536-30.807c0.575-1.1,1.164-2.192,1.737-3.293c5.281-10.15,10.436-20.369,15.508-30.631
	c0.811-1.641,1.632-3.277,2.439-4.921c4.901-9.998,9.693-20.05,14.399-30.143c0.881-1.888,1.763-3.774,2.636-5.665
	c4.628-10.018,9.164-20.08,13.607-30.181c0.842-1.914,1.676-3.83,2.512-5.747c4.443-10.198,8.804-20.431,13.062-30.703
	c0.706-1.704,1.399-3.411,2.101-5.115c4.35-10.579,8.622-21.186,12.78-31.832c0.446-1.143,0.879-2.29,1.324-3.434
	c4.376-11.265,8.669-22.557,12.834-33.883c33.009-89.73,60.224-183.656,57.369-279.225c-0.819-27.645-4.516-55.514-11.123-82.608
	c8.276,1.799,16.683,3.009,25.14,3.46c13.116,0.689,26.324-0.253,39.216-2.94c12.56-2.624,26.08-7.881,31.654-19.435
	C1833.747,759.81,1813.557,738.247,1793.942,727.779z"/>
<path style="fill:#61852D;" d="M1793.942,727.779c-26.631-14.224-41.515-39.425-51.07-67.22
	c-13.291-38.465-23.035-76.828-51.907-107.101c-11.118-11.673-23.547-22.275-36.965-31.61
	c11.781-38.636,12.951-88.039,12.439-108.999c-2.003-85.393-23.493-170.375-62.957-246.173c-4.648-8.964-10.042-18.268-18.953-22.94
	c-3.649-1.905-8.004-2.651-12.112-2.183c-6.022,0.648-11.557,3.791-13.554,9.427c41.335,97.961,46.027,210.823,13.028,311.861
	c-2.236,6.889-4.672,13.771-6.855,20.701c-6.933-1.342-13.924-2.37-20.96-3.018c-14.348-1.352-28.248-0.996-41.734,0.736
	c-44.263,5.754-84.141,26.672-121.52,53.586c-46.222,33.298-97.179,59.915-150.865,78.875c-7.785,2.738-16.589,6.217-19.298,14.02
	c-4.258,12.134,9.203,22.74,21.023,27.78c25.643,10.94,53.217,17.23,81.057,18.832c24.663,1.419,49.535-0.83,73.466-6.942
	c-10.529,2.692-22.378,48.183-25.238,58.772c-6.694,24.879-7.869,51.215-3.22,76.575c0.458,2.521,1.037,5.036,1.695,7.526
	c1.397,5.271,3.344,10.365,6.573,14.708c15.391,20.57,45.237,4.446,62.485-4.495c26.042-13.523,51.084-28.957,74.831-46.195
	c7.235-5.242,13.34-11.35,18.796-18.295c4.439,30.984-2.324,57.73,10.139,87.905c9.69,23.418,30.719,46.989,55.722,42.853
	c13.486-2.249,24.317-12.171,33.613-22.197c14.376-15.545,27.169-32.526,38.2-50.58c6.945-11.37,13.203-23.159,18.682-35.305
	c15.179,9.559,32.063,16.263,49.578,20.069c8.276,1.799,16.683,3.009,25.14,3.46c13.116,0.689,26.324-0.253,39.216-2.94
	c12.56-2.624,26.08-7.881,31.654-19.435C1833.747,759.81,1813.557,738.247,1793.942,727.779z"/>
<path style="fill:#4F1844;" d="M1739.185,881.36c-0.819-27.645-4.516-55.514-11.123-82.608
	c-17.515-3.807-34.399-10.511-49.578-20.069c-5.479,12.146-11.737,23.935-18.682,35.305c-11.03,18.054-23.823,35.035-38.2,50.58
	c-9.296,10.026-20.127,19.949-33.613,22.197c-25.004,4.136-46.032-19.435-55.722-42.853c-12.463-30.175-5.7-56.92-10.139-87.905
	c-5.457,6.945-11.562,13.052-18.796,18.295c-23.747,17.238-48.789,32.672-74.831,46.195c-17.247,8.94-47.094,25.064-62.485,4.495
	c-3.229-4.343-5.175-9.437-6.573-14.708c-4.656,21.971-3.161,42.681,17.769,55.294c23.123,13.934,53.49,8.341,77.247-4.455
	c-0.073,23.663,19.352,45.824,42.835,48.845c-0.687,321.807-173.198,638.26-443.303,813.178
	c-80.959,52.429-172.696,93.408-269.14,95.937c-96.414,2.558-197.793-39.215-248.048-121.534
	c-18.743-30.709-29.802-65.471-47.045-97.057c-29.564-54.153-80.107-99.147-140.638-111.118c-2.65-0.511-5.349-0.969-8.029-1.359
	c-9.281,12.136-17.632,25.159-24.789,39.23c-19.176,37.657-27.001,79.099-25.315,120.76c0.672,17.622,3.094,35.259,7.011,52.672
	c13.768,60.941,46.524,118.85,92.044,161.837c89.237,84.258,216.882,117.705,339.624,117.388
	c223.006-0.516,438.499-103.82,600.632-256.964c5.576-5.261,11.076-10.595,16.53-15.971c1.645-1.623,3.267-3.27,4.902-4.902
	c3.766-3.759,7.518-7.53,11.232-11.337c0.718-0.736,1.455-1.454,2.172-2.192c0.701-0.724,1.366-1.479,2.065-2.205
	c7.942-8.236,15.773-16.571,23.46-25.033c0.894-0.984,1.771-1.982,2.662-2.969c7.943-8.805,15.776-17.706,23.449-26.742
	c0.337-0.398,0.666-0.804,1.003-1.202c7.668-9.053,15.194-18.225,22.596-27.499c0.543-0.681,1.099-1.352,1.64-2.035
	c7.235-9.101,14.318-18.324,21.301-27.626c0.949-1.263,1.908-2.517,2.852-3.784c6.716-9.015,13.302-18.131,19.789-27.321
	c1.107-1.568,2.216-3.132,3.317-4.705c6.352-9.082,12.592-18.248,18.725-27.49c1.111-1.673,2.216-3.35,3.319-5.028
	c6.103-9.281,12.105-18.633,17.993-28.064c0.993-1.591,1.972-3.19,2.96-4.785c5.961-9.632,11.831-19.324,17.572-29.099
	c0.732-1.246,1.447-2.501,2.175-3.749c5.952-10.201,11.813-20.459,17.533-30.803c0.268-0.485,0.526-0.976,0.794-1.461
	c5.627-10.202,11.13-20.477,16.536-30.807c0.575-1.1,1.164-2.192,1.737-3.293c5.281-10.15,10.436-20.369,15.508-30.631
	c0.811-1.641,1.632-3.277,2.439-4.921c4.901-9.998,9.693-20.05,14.399-30.143c0.881-1.888,1.763-3.774,2.636-5.665
	c4.628-10.018,9.164-20.08,13.607-30.181c0.842-1.914,1.676-3.83,2.512-5.747c4.443-10.198,8.804-20.431,13.062-30.703
	c0.706-1.704,1.399-3.411,2.101-5.115c4.35-10.579,8.622-21.186,12.78-31.832c0.446-1.143,0.879-2.29,1.324-3.434
	c4.376-11.265,8.669-22.557,12.834-33.883C1714.824,1070.855,1742.039,976.929,1739.185,881.36z"/>
<path style="fill:#46163D;" d="M1659.801,813.988c8.162,105.703-8.742,212.153-37.016,313.822
	c-16.541,59.518-37.15,117.827-59.976,175.186c-53.418,134.402-118.075,264.979-197.675,385.539
	c0.701-0.724,1.366-1.479,2.065-2.205c7.942-8.236,15.773-16.571,23.46-25.033c0.894-0.984,1.771-1.982,2.662-2.969
	c7.943-8.805,15.776-17.706,23.449-26.742c0.337-0.398,0.666-0.804,1.003-1.202c7.668-9.053,15.194-18.225,22.596-27.499
	c0.543-0.681,1.099-1.352,1.64-2.035c7.235-9.101,14.318-18.324,21.301-27.626c0.949-1.263,1.908-2.517,2.852-3.784
	c6.716-9.015,13.302-18.131,19.789-27.321c1.107-1.568,2.216-3.132,3.317-4.705c6.352-9.082,12.592-18.248,18.725-27.49
	c1.111-1.673,2.216-3.35,3.319-5.028c6.103-9.281,12.105-18.633,17.993-28.064c0.993-1.591,1.972-3.19,2.96-4.785
	c5.961-9.632,11.831-19.324,17.572-29.099c0.732-1.246,1.447-2.501,2.175-3.749c5.952-10.201,11.813-20.459,17.533-30.803
	c0.268-0.485,0.526-0.976,0.794-1.461c5.627-10.202,11.13-20.477,16.536-30.807c0.575-1.1,1.164-2.192,1.737-3.293
	c5.281-10.15,10.436-20.369,15.508-30.631c0.811-1.641,1.632-3.277,2.439-4.921c4.901-9.998,9.693-20.05,14.399-30.143
	c0.881-1.888,1.763-3.774,2.636-5.665c4.628-10.018,9.164-20.08,13.607-30.181c0.842-1.914,1.676-3.83,2.512-5.747
	c4.443-10.198,8.804-20.431,13.062-30.703c0.706-1.704,1.399-3.411,2.101-5.115c4.35-10.579,8.622-21.186,12.78-31.832
	c0.446-1.143,0.879-2.29,1.324-3.434c4.376-11.265,8.669-22.557,12.834-33.883c33.009-89.73,60.224-183.656,57.369-279.225
	c-0.819-27.645-4.516-55.514-11.123-82.608c-17.515-3.807-34.399-10.511-49.578-20.069
	C1673.004,790.829,1666.746,802.617,1659.801,813.988z"/>
<path style="fill:#57782B;" d="M1625.401,490.851c-1.841,12.18-4.049,24.421-3.152,36.709c2.495,34.305,28,61.72,46.046,90.998
	c32.19,52.131,42.47,115.347,74.109,167.795c3.284,5.462,6.85,10.816,10.796,15.859c13.116,0.689,26.324-0.253,39.216-2.94
	c12.56-2.624,26.08-7.881,31.654-19.435c9.676-20.027-10.514-41.591-30.129-52.059c-26.631-14.224-41.515-39.425-51.07-67.22
	c-13.291-38.465-23.035-76.828-51.907-107.101c-11.118-11.673-23.547-22.275-36.965-31.61
	c11.781-38.636,12.951-88.039,12.439-108.999c-2.003-85.393-23.493-170.375-62.957-246.173c-4.648-8.964-10.042-18.268-18.953-22.94
	c-3.649-1.905-8.004-2.651-12.112-2.183c6.796,12.914,13.067,26.372,18.621,40.857
	C1628.514,280.045,1640.983,387.385,1625.401,490.851z"/>
<path style="fill:#57782B;" d="M1467.935,584.936c-49.091,7.418-95.785,91.101-79.586,136.911c1.388,3.929,7.459,5.615,9.627,1.259
	c11.366-22.853,14.904-47.973,28.258-70.363c13.452-22.55,35.157-36.57,49.447-57.734
	C1479.409,589.489,1473.265,584.13,1467.935,584.936z"/>
<path style="fill:#57782B;" d="M1578.522,637.051c-22.699,20.039-35.245,48.757-40.253,78.331
	c-2.923,17.25-5.082,44.652,17.671,48.219c2.918,0.458,6.207-1.81,5.135-5.135c-12.624-39.111,10.265-79.759,28.219-113.106
	C1593.055,638.373,1584.349,631.906,1578.522,637.051z"/>
<path style="fill:#782F6A;" d="M1385.017,1073.165c-2.948-26.1-14.183-54.862-38.884-63.773
	c-30.646-11.05-61.637,14.012-83.771,37.91c-72.014,77.757-134.021,164.679-210.021,238.551
	c-75.995,73.871-170.085,135.571-275.527,146.285c-61.515,6.256-123.99-5.106-185.276,3.108
	c-26.543,3.557-56.721,14.592-64.165,40.312c-7.674,26.514,13.856,52.931,37.627,66.947c23.776,14.022,51.693,21.9,71.454,41.169
	c28.234,27.528,33.145,71.547,57.233,102.767c19.347,25.082,49.915,39.834,81.169,45.009c26.705,4.422,54.011,2.412,80.776-2.139
	l-26.418,4.858c39.43-2.294,76.994-17.305,112.468-34.665c201.686-98.704,359.546-283.293,425.773-497.846
	C1380.296,1160.049,1389.903,1116.434,1385.017,1073.165z"/>
<path style="fill:#782F6A;" d="M401.198,1804.988c26.09,34.334,60.745,66.275,103.532,71.62
	c10.022,1.252,27.342-0.204,28.716-13.593c0.994-9.661-10.86-14.548-16.842-20.039c-19.64-18.022-35.712-40.375-49.311-63.196
	c-29.12-48.877-46.66-103.834-59.678-158.928c-3.84-16.243-8.58-34.377-22.933-42.889c-19.396-11.503-46.007,3.045-54.655,23.873
	c-8.643,20.828-4.175,44.633,2.149,66.28C346.592,1717.431,370.115,1764.072,401.198,1804.988z"/>
<path style="fill:#A5569B;" d="M736.331,1545.179c21.393,20.297,7.849,56.214,14.47,84.955
	c19.104,82.928,130.397,28.75,175.099,6.061c69.15-35.098,130.382-85.934,176.936-148.005
	c22.845-30.465,42.606-64.487,48.789-102.066c1.101-6.68,1.72-13.749-0.819-20.025c-7.625-18.831-34.953-16.881-53.885-9.51
	c-67.016,26.09-122.046,77.325-189.403,102.538c-51.157,19.147-106.636,22.271-160.716,29.964
	c-9.057,1.286-18.402,2.821-26.071,7.805c-7.669,4.984-13.237,14.378-10.952,23.235
	C712.882,1532.16,727.317,1536.628,736.331,1545.179z"/>
<path style="fill:#782F6A;" d="M1063.044,1109.842c25.369,0.015,51.21-32.463,68.048-49.055
	c23.567-23.211,45.793-47.913,65.803-74.266c20.097-26.47,38.514-54.192,54.977-83.069c11.83-20.745,38.154-54.085,27.713-78.236
	c-1.325-3.074-5.934-4.621-8.979-3.654c-22.66,7.218-31.571,43.851-42.49,63.194c-15.654,27.737-33.082,54.458-52.122,79.993
	c-19.118,25.639-39.513,50.329-61.535,73.529c-11.43,12.042-23.225,23.764-35.152,35.311c-9.637,9.325-19.147,15.659-21.729,29.082
	C1056.896,1106.236,1059.132,1109.837,1063.044,1109.842z"/>
<path style="fill:#782F6A;" d="M672.228,1924.501c21.252,2.553,42.611,3.888,64.019,3.474c39.152-0.76,86.563-2.299,120.351-24.098
	c4.336-2.796,2.338-8.809-2.505-9.262c-38.767-3.606-78.816,7.225-117.846,7.381c-18.309,0.078-36.667-0.536-54.903-2.173
	c-17.905-1.612-38.967-8.433-56.2-2.227c-4.711,1.696-7.313,7.957-3.118,11.796C635.727,1921.923,654.328,1922.347,672.228,1924.501
	z"/>
</svg>
