<?xml version="1.0" encoding="utf-8"?>
<!-- Generator: Adobe Illustrator 28.4.1, SVG Export Plug-In . SVG Version: 6.00 Build 0)  -->
<svg version="1.1" xmlns="http://www.w3.org/2000/svg" xmlns:xlink="http://www.w3.org/1999/xlink" x="0px" y="0px"
	 viewBox="0 0 500 500" style="enable-background:new 0 0 500 500;" xml:space="preserve">
<style type="text/css">
	.st0{fill-rule:evenodd;clip-rule:evenodd;fill:none;}
	.st1{display:none;}
	.st2{display:inline;fill-rule:evenodd;clip-rule:evenodd;fill:#F9C2A1;}
	.st3{display:inline;fill-rule:evenodd;clip-rule:evenodd;fill:#DC9E77;}
	.st4{display:inline;fill-rule:evenodd;clip-rule:evenodd;fill:#FFDCC7;}
	.st5{display:inline;}
	.st6{fill-rule:evenodd;clip-rule:evenodd;fill:#38160D;}
	.st7{fill-rule:evenodd;clip-rule:evenodd;fill:#F9C2A1;}
	.st8{fill-rule:evenodd;clip-rule:evenodd;fill:#DC9E77;}
	.st9{fill-rule:evenodd;clip-rule:evenodd;fill:#FFDCC7;}
</style>
<g id="BACKGROUND">
	<rect x="576.25" y="-2.23" class="st0" width="500" height="500"/>
</g>
<g id="OBJECTS">
	<g class="st1">
		<path class="st2" d="M176.38,133.6c0.04,1.17-0.04,2.35-0.16,3.51c0.23,5.09-0.68,10.16-3.27,14.7
			c-5.69,10.47-15.52,17.68-24.35,25.34c-4.26,3.71-7.77,8.2-11.08,12.76c-0.12,0.19-0.26,0.4-0.4,0.63
			c0.05,0.51-0.08,1.07-0.49,1.61c-3.91,4.89-7.42,10.11-9.9,15.88c-3.48,8.48-9.49,14.84-18.39,17.6c-5.43,2.19-10.99,3.35-16.56,5
			c-3.79,1.33-8.25,5.36-12.21,2.52c-1.68-1.31-1.47-3.64-0.77-5.43c-4.98,2.88-13.47,2.65-13.55-3.17
			c-0.53,0.12-1.07,0.18-1.62,0.17c-3.46-0.03-6.61-2.72-7.23-6.11c-5.48,1.58-10.06-3.11-9.01-7.9c-0.32-0.04-0.65-0.1-1-0.18
			c-5.47-0.41-14.45-7.26-8.43-12.5c7.31-3.23,15.19-5.24,22.71-8.03c1.79-0.92,3.16-1.16,4.14-1c0.12-0.11,0.23-0.23,0.32-0.35
			c3.01-2.47,5.77-5.2,8.15-8.28c10.56-12.44,18.23-26.98,25.67-41.42c4.67-9.85,8.15-20.45,8.51-31.41
			c0.23-3.39,0.24-6.78,0.1-10.17c0.12-1.76-0.83-4.13,0.94-5.28c-0.21-2.39,0.27-3.88,1.01-4.69c0.32-6.27,0.51-12.54,0.13-18.81
			c-0.18-3.82-0.89-7.59-1.12-11.4c-1.92-1.25-0.88-4.05,1.21-4.59c4.29-1.57,8.85-2.43,13.36-3.16c5.08-0.69,10.22-0.14,15.28,0.51
			c4.76,0.53,9.41,1.71,14.15,2.31c1.95,0.52,4.77-0.33,6.33,0.78c0.53,0.43,0.77,1.03,0.78,1.64c0.63,0.35,1.1,1,1.11,1.97
			c0.04,2.43-0.19,4.85-0.37,7.28c-0.23,9.84-0.98,19.83,0.8,29.57c2.29,8.06,6.45,15.44,10.96,22.43
			C174.86,121.38,176.33,127.49,176.38,133.6z"/>
		<path class="st3" d="M156.37,114.28c0.22,5.32-4.12,10.26-9.04,11.7c-3.78-1.37,4.73-4.32,4.22-13.68
			c0.03-0.93-0.7-2.15,0.16-2.87c-0.91-1.25-2.32-2.17-3.01-3.56c-0.38-1.28,1.54-2.02,2.11-0.81
			C153.21,107.69,156.06,110.54,156.37,114.28L156.37,114.28z M137.81,180.19c-5.35,6.49-8.9,14.23-12.49,21.81
			c-2.76,5.43-6.16,11.03-10.79,15.17c-3.69,3.23-8.31,5.14-12.86,6.81c-0.89,0.36-3.93,1.02-5.36,1.98
			c-0.22-0.28-0.56-0.47-0.99-0.47c-5.12,0.58-8.44,6.76-14.07,5.48c-2.26-1.47-2.96,2.28,0.11,2.31c4.54,0.66,8.31-2.29,11.78-4.75
			c0.82,1.05,1.94-0.04,2.77-0.49c0.08-0.04,0.15-0.09,0.22-0.14c0.16,0.13,0.35,0.26,0.59,0.39c5.32,0.48,10.08-2.88,14.65-5.13
			c4.96-2.26,10.77-5.61,12.45-11.08c1.06-1.73,2.06-3.48,3.02-5.27c0.45-0.84,0.91-1.68,1.36-2.52c2.67-3.05,4.28-7.01,6.46-10.44
			c4.64-5.82,9.32-11.7,13.96-17.56c5.44-4.51,11.47-8.41,16.41-13.44c1.7-1.98,4.4-3.61,5.22-6.12c2.42-3.9,5.42-7.72,6.31-12.3
			c0.01-0.72-0.55-1.09-1.12-1.1c2.38-7.69,2.42-16.03-0.94-23.49c0.03-0.46-0.12-0.83-0.35-1.09c-0.64-2.04-1.43-4.03-2.37-5.92
			c-0.76-0.98-1.51-3.39-3.03-2.96c0.76,1,1.35,2.1,1.88,3.23c0.27,0.57,0.55,1.15,0.78,1.74c0.21,0.56,0.41,1.12,0.59,1.68
			c0.09,0.28,0.17,0.56,0.26,0.84c0.09,0.21,0.16,0.42,0.24,0.61c0.07,0.18,0.13,0.36,0.19,0.54l0,0c0.14,0.41,0.25,0.83,0.36,1.25
			c0.33,1.22,0.55,2.47,0.73,3.72c0.13,0.94,0.23,1.87,0.28,2.82l0,0c0.01,0.27,0.03,0.54,0.03,0.82c0.03,1.15,0,2.31-0.14,3.46
			c-0.06,0.47-0.12,0.94-0.2,1.41c-0.1,5.18-1.22,10.33-3.45,14.93c-3.32,6.55-9.49,10.95-15.02,15.52
			C148.95,167.75,142.78,173.54,137.81,180.19L137.81,180.19z M43.28,209.79c-1.16-0.3-2.32-0.74-3.25-1.53
			c-1.03-0.99-5.39-5.97-2.72-6.69c-2.6-2.47,0.61-4.84,1.26-2.09c4.18,5.97,12.4,3.92,18.33,2.23c1.29-0.51,3.73-0.47,2.71,1.53
			c-2.98,2.02-7,2.06-9.97,4.2c-0.09,0.53-0.56,0.92-1.11,0.93c-0.06,0-0.11,0-0.17,0C47,209.72,45.13,210.39,43.28,209.79
			L43.28,209.79z M53.28,218.95c1.23-0.02,3.95,0,3.39-1.9c0.82-0.44,1.99-1.25,1.54-2.33c2.24-1.68,5.21-2.65,7.05-4.76
			c0.35-0.8-0.38-1.71-1.23-1.58c-3.65,1-6.66,3.66-10.33,4.54c-2.34,0.54-4.78,0.16-6.86-0.86c-0.6,0-1.15,0.51-1.13,1.13
			c0.51,2.12,3.62,1.98,5.38,2.23c-3.79-0.17-2.33,3.08,0.61,2.91C52.05,218.86,52.7,218.96,53.28,218.95L53.28,218.95z
			 M47.96,213.12c-0.02-0.18-0.07-0.34-0.16-0.49C47.89,212.77,47.95,212.94,47.96,213.12L47.96,213.12z M61.22,224.42
			c-1.03-0.21-2.46-0.83-2.3-2.09c-1.06,0.1-2.96,0.37-3.05-1.14c0-0.62,0.51-1.13,1.13-1.13c2.41,0.29,4.84-0.59,7.01-1.58
			c2.89-1.58,5.2-4.35,8.48-5.18c4.08,1.17-3.88,5.1-4.82,6.43C70.18,222.12,63.23,225.3,61.22,224.42L61.22,224.42z M69.83,228.46
			c-0.45-0.14-0.78-0.52-0.88-0.98c-1.4,0.18-4.77-0.38-3.09-2.34c0.65-0.56,1.4,0.09,2.13,0.06c2.66,0.12,5.3-0.69,7.65-1.9
			c2.29-0.65,6.58-5.64,8.04-4.67c2.23,1.97-2.97,5.82-4.61,6.76C78.27,227.14,71.71,229,69.83,228.46L69.83,228.46z M67.27,226.92
			c0.03-0.02,0.05-0.05,0.08-0.07c0,0,0,0,0,0c0.03-0.04,0.06-0.07,0.1-0.11c0,0,0,0,0,0c0-0.01,0-0.01,0.01-0.02
			C67.39,226.79,67.33,226.86,67.27,226.92L67.27,226.92z M87.77,213.69c-3.02-0.45-5.54-2.27-8.09-3.82
			c-1.91-1.56-13.52-6.49-11.8-9.05c-1.01-0.88-4.02-1.63-4.08-2.92c0-0.62,0.52-1.13,1.13-1.13c4.91,2.16,9.48,5.32,14.37,7.63
			c3.91,2.36,8.4,3.55,12.34,5.81C95.39,212.85,90.15,214.34,87.77,213.69L87.77,213.69z M156.59,94.72c2.09,3.91,4,8.94,8.22,10.93
			c1.73-0.09,1.62-1.46,1.16-2.93c-0.35-0.08-0.66-0.29-0.82-0.62c-0.29-0.6-0.52-1.22-0.76-1.84c-0.22-0.57-0.43-1.16-0.62-1.74
			c-0.03-0.08-0.06-0.17-0.08-0.25c-0.26-0.11-0.48-0.31-0.61-0.58c-0.21-0.41-0.31-0.87-0.43-1.32c-0.09-0.33-0.17-0.66-0.25-0.99
			c-0.15-0.61-0.28-1.23-0.4-1.85c-0.13-0.63-0.22-1.26-0.32-1.9c-0.04-0.25-0.08-0.5-0.11-0.76c-0.22-0.14-0.4-0.35-0.51-0.59
			c-0.21-0.47-0.29-0.97-0.37-1.48c-0.06-0.33-0.09-0.66-0.13-0.99c-0.08-0.65-0.11-1.31-0.15-1.96c-0.07-1.28-0.06-2.57-0.05-3.85
			c0.01-1.19,0.07-2.37,0.13-3.56c0.05-1.21,0.11-2.41,0.17-3.62c0.02-0.45,0.05-0.9,0.08-1.35c0-0.02,0-0.03,0-0.05
			c-0.22-5.71-0.07-11.43,0.28-17.14c0.12-1.57-0.53-2.56-1.56-3.21c-0.67-0.19-1.35-0.34-2.03-0.46c-1.05-0.16-2.11-0.2-3.17-0.32
			c-0.95-0.11-1.91-0.26-2.85-0.49c-0.33-0.02-0.67-0.03-1-0.09c-0.24-0.04-0.48-0.08-0.72-0.13c-0.07,0.1-0.12,0.21-0.15,0.33
			c-0.09,0.33-0.02,0.69,0.17,0.96C150.11,66.98,150.49,81.74,156.59,94.72z"/>
		<path class="st4" d="M73.48,179.1c0.06-0.07,0.12-0.13,0.17-0.19c2.96-4.27,6.26-8.39,8.72-13.03c1.76-2.33,5.21-9.36,8.18-9.4
			c3.79-6.32,6.65-12.84,9.83-19.41c0.67-1.02,1.28-4.52,2.31-6.18c0.3-0.97,0.58-1.95,0.86-2.93c0.26-1.33,0.41-2.68,0.55-4.03
			c0.17-1.43,2.45-1.16,2.24,0.31c-0.21,2.48-0.71,4.9-1.38,7.29c-0.01,0.91-0.46,2.03-0.97,3.1c-1.09,3.2-2.42,6.34-3.67,9.46
			c-3.48,8.26-7.5,16.31-13.02,23.39c-1.12,1.58-2.3,3.11-3.54,4.6c-2.75,3.33-5.89,6.34-9.21,9.11c-0.43,0.41-0.85,0.83-1.25,1.27
			c-0.54,0.65-1.07,1.77-2.01,1.44c-0.25,0.03-0.5-0.03-0.78-0.19c-1.46-1.53,1.35-2.89,2.22-3.94
			C72.97,179.54,73.22,179.32,73.48,179.1L73.48,179.1z M81.22,230.25c-0.79-0.21-1.9-0.53-1.76-1.56c0.08-0.6,0.68-1.07,1.28-0.97
			C83.43,228.11,83.02,230.45,81.22,230.25L81.22,230.25z M69.26,224.8c-0.77-0.44-1.98-0.78-2.03-1.83c0-0.63,0.53-1.14,1.16-1.14
			c0.57,0.09,2.1,0.97,2.35,1.49C71.16,224.2,70.14,225.23,69.26,224.8L69.26,224.8z M58.71,219.86c-3.8-3.71,1.06-5.59,0.89-2.59
			c0.16,0.38,0.39,0.73,0.71,0.99C61.36,219.27,59.73,220.91,58.71,219.86L58.71,219.86z M50.56,214.44
			c-1.06-0.48-2.01-1.39-2.68-2.31c-0.44-0.96,0.72-1.98,1.62-1.42c0.47,0.33,0.8,0.81,1.25,1.17c0.41,0.43,1.15,0.45,1.28,1.14
			C52.28,213.87,51.41,214.72,50.56,214.44L50.56,214.44z M42.16,201.47c-1.55-0.36-3.46-2.74-1.44-3.75
			c1.22-1.64,4.17-0.55,4.88,1.1C46.34,200.75,43.85,202.48,42.16,201.47L42.16,201.47z M144.83,124.8
			c-0.52-0.32-0.72-1.01-0.41-1.55c0.09-0.15,0.22-0.28,0.36-0.37c1.63-4.53,2.99-9.32,3.14-14.16c-0.13-1.08,1.03-2.05,1.99-1.33
			c0.99,1.08,0.84,2.82,0.97,4.2c-0.06,2.66-1.02,7.89-3.07,9.56C147.24,122.46,146.89,125.67,144.83,124.8z"/>
		<g class="st5">
			<path class="st6" d="M43.25,211.19c-6.63-1.66-11.78-9.32-5.2-14.35c1.72-1,3.7-1.37,5.56-2.03c2.69-0.97,5.21-2.38,7.97-3.2
				c4.93-1.5,10.44-2.02,14.34-5.74c8.99-9.03,16.04-19.97,22.98-30.58c6.45-11.4,13.27-22.99,15.62-36.05
				c1.7-8.56,2.36-17.44,2.92-26.1c0.68-10.21,1.06-20.52,0.07-30.71c-0.12-1.8-0.16-3.59-0.27-5.39c0.14-1.1-0.91-2.79,0.58-3.18
				c1.87,0.11,1.06,3.05,1.38,4.33c0.11,3.05,0.33,6.1,0.57,9.15c0.71,11.25-0.24,22.51-0.99,33.73
				c-0.93,11.18-2.34,22.55-6.68,32.98c-5.95,13.09-13.09,25.62-21.7,37.15c-4.29,5.83-8.49,11.91-13.96,16.7
				c-4.27,3.69-10.06,4.07-15.19,5.81c-2.75,0.93-5.27,2.41-8.06,3.23c-1.62,0.56-3.41,0.86-4.78,1.96
				c-4.84,5.54,3.31,11.27,8.72,10.95c0.52-0.01,0.95,0.44,0.95,0.95C47.68,212.77,44.57,211.36,43.25,211.19z"/>
			<path class="st6" d="M160.52,101.36c-2.12-14.09-1.68-28.8-1.14-42.99c0.18-1.52,0.07-3.14,0.61-4.59c0.57-1,2.17-0.21,1.7,0.85
				c-1.39,12.84-0.76,25.84-0.26,38.73c0.17,2.52,0.41,5.03,0.94,7.5C162.7,102.02,160.82,102.57,160.52,101.36z"/>
			<path class="st6" d="M93.36,230.95c-2.26-1.86,2.51-2.45,3.64-2.99c21.98-5.36,21.95-8.65,32.8-27.3
				c5.76-9.76,12.05-19.49,21.2-26.39c6.87-5.85,14.09-11.25,18.89-19.07c8.43-12.69,7.47-29.78-0.49-42.47
				c-2.82-5.55-6.69-10.62-8.41-16.68c-0.15-1.55-2.33-5.61-0.18-5.95c0.96,0,0.97,1.12,1.09,1.77c0.34,1.59,0.75,3.17,1.21,4.6
				c1.43,4.35,3.97,8.17,6.21,12.12c15.23,23.88,9.14,47.26-13.15,63.72c-3.98,3.59-8.35,6.77-11.98,10.73
				c-2.57,3.09-4.9,6.39-7.21,9.68c-3.9,5.8-7.26,11.94-10.83,17.94c-3.32,6.01-7.51,11.93-14.09,14.6
				C106.01,227.6,99.53,229.33,93.36,230.95z"/>
			<path class="st6" d="M80.7,235.29c-10.01-3.49,6.52-22.78,4.92-15.54c-3.17,2.41-10.83,13.79-2.65,13.8
				c3.7-0.15,7.04-2.29,9.48-4.96c1.07-1.12,1.83-2.63,3.19-3.44c0.74-0.36,1.6,0.51,1.25,1.25
				C92.97,231.24,87.55,236.6,80.7,235.29z"/>
			<path class="st6" d="M69.73,229.99c-9.91-1.11-3.01-12.05,1.94-15.19c0.98-0.62,2.62-2.78,3.61-1.2
				c0.27,0.62-0.19,1.15-0.74,1.38c-1.15,0.83-2.23,1.76-3.32,2.68c-2.15,1.88-6.93,7.56-3.43,9.87c5.89,2.83,11.04-4.01,12.4-2.05
				c0.63,1.48-1.68,1.87-2.55,2.56C75.23,229.39,72.52,230.36,69.73,229.99z"/>
			<path class="st6" d="M60.9,225.8c-3.93-0.59-6.93-4.96-5-8.71c2.01-3.55,6.77-7.21,10.36-8.96c0.8,0.08,1.13,1.23,0.45,1.7
				c-2.04,1.4-4.25,2.96-6.07,4.56c-6.63,4.85-2.49,11.28,4.88,9.39c0.62-0.1,1.24,0.37,1.22,1.01
				C66.79,226.35,62.01,226.01,60.9,225.8z"/>
			<path class="st6" d="M52.98,220.45c-2.88-0.28-5.5-2.3-6.83-4.83c-3.29-6.51,8.67-11.72,13.38-13.63
				c1.12-0.49,1.89,1.29,0.74,1.75c-3.55,1.42-14.58,6.14-12.47,10.93c1.28,2.5,4.64,4.93,7.42,3.38
				C57.18,215.8,58.79,220.62,52.98,220.45z"/>
			<path class="st6" d="M43.45,203.04c-2.58,0.04-5.43-1.28-6.64-3.6c-0.15-0.94,1.16-1.47,1.7-0.71c0.91,1.09,2.07,1.98,3.48,2.27
				c2.45,0.43,5.74,0.24,2.78-2.66c-0.58-0.45-1.56-0.94-1.06-1.83C45.89,194.18,51.94,203.67,43.45,203.04z"/>
			<path class="st6" d="M49.89,216.55c-1.02-0.58-3.88-1.38-3-2.94c0.92-1.04,1.94,0.47,2.86,0.78c0.83,0.5,3.22,1.33,2.86-0.44
				c-0.72-1.86-2.91-2.64-4.73-2.86c-0.82-0.06-1.11-1.23-0.45-1.7c2.22-0.62,5.51,1.19,6.63,3.17
				C55.83,215.54,52.74,217.94,49.89,216.55z"/>
			<path class="st6" d="M60,221.6c-1.26-0.55-2.34-1.41-3.44-2.21c-0.93-0.37-0.64-1.85,0.37-1.83c1.75,0.43,3.12,2.83,5.08,2.44
				c-0.98-3.05-4.82-2.5-4.38-4.2c0.94-2.1,5.16,1.31,5.74,2.63C65.12,220.95,62.34,222.87,60,221.6z"/>
			<path class="st6" d="M70.99,226.94c-1.82-0.06-3.16-1.31-4.62-2.21c-1.16-0.35-0.61-2.17,0.55-1.83
				c1.59,0.56,3.03,2.71,4.87,1.98c-0.26-2.29-5.42-1.28-4.94-3.33c0.17-0.77,1.11-0.76,1.67-0.56c1.76,0.39,3.9,0.9,4.85,2.58
				C74.4,225.26,72.88,227.26,70.99,226.94z"/>
			<path class="st6" d="M83.02,231.73c-1.26-0.11-6.18-0.27-4.12-2.42c0.3-0.2,0.7-0.16,0.99,0.03c1.37,0.32,2.83,0.65,4.23,0.41
				c-1.59-2.26-5.6-0.94-5.52-2.64c0.3-1.91,3.52-0.54,4.71-0.22C86.68,228.02,87.41,231.98,83.02,231.73z"/>
			<path class="st6" d="M90.22,214.21c-9.86-1.87-19.2-7.49-25.98-14.81c-0.62-1.41,1.31-1.97,1.89-0.64
				c4.64,4.85,10.56,8.41,16.56,11.33c2.5,1.05,5.22,1.73,7.79,2.24C91.7,212.47,91.44,214.4,90.22,214.21z"/>
			<path class="st6" d="M144.9,124.64c0.22-1.3,1.64-2.02,2.28-3.12c1.92-3.28,3.79-7.11,2.94-11c0.08-1.63-2.85-4.87-1.2-5.79
				c1.64-0.4,1.72,2.19,2.41,3.19c1.12,2.81,1.24,5.99,0.17,8.83C151.34,118.15,146.1,128.69,144.9,124.64z"/>
			<path class="st6" d="M57.58,186.2c-1.01-1.24,0.98-2,1.78-2.61c1.29-0.86,2.53-1.8,3.7-2.82c3.18-2.87,5.74-6.32,8.18-9.83
				c0.73-0.98,2.27,0.19,1.51,1.16c-1.77,2.52-3.55,5.05-5.65,7.31C66.16,180.58,58.68,187.64,57.58,186.2z"/>
			<path class="st6" d="M75.58,166.32c0.49-1.88,2.11-3.31,3.07-4.98c0.46-0.67,1.62-0.35,1.7,0.45c-0.41,1.73-2.07,3.03-2.85,4.64
				C77.32,167.57,75.58,167.49,75.58,166.32z"/>
			<path class="st6" d="M175.18,158.1c-0.44-0.26-0.62-0.86-0.34-1.3c1.38-2.2,2.67-4.45,3.84-6.76c3.17-6.63,4.42-14.53,2.24-21.65
				c-0.95-1.29,0.43-2.98,1.48-1.46c2.82,7.66,1.5,16.42-1.88,23.69C179.65,151.87,176.73,159.2,175.18,158.1z"/>
			<path class="st6" d="M167.05,167.38c-0.92-1.37,2.59-3.05,3.26-4.28c1.04-1.88,2.98-1.39,2.24,0.29
				C171.56,164.31,168.34,168.9,167.05,167.38z"/>
		</g>
	</g>
	<g>
		<path class="st7" d="M361.99,276.87c8.71,15.25,11.28,40.68-6.97,49.95c-2.93,1.58-6.99,4.66-10.47,3.91
			c-0.58,0.2-1.17,0.4-1.75,0.59c-5.22,1.37-10.66,1.52-15.93,2.64c-3.02,0.63-5.97,1.56-8.89,2.56c-0.72,0.2-1.48,0.55-2.25,0.75
			c0,0,0,0,0,0c-8.26,5.11-17.73,8.24-27.35,9.39c-4.75,0.51-9.54,0.75-14.25,1.67c-4.56,0.86-8.8,3.81-13.54,3.45
			c-2.94-0.32-4.42-3.42-3.51-6.08c-2.66,1.25-5.22,2.97-8.16,3.43c-2.85,0.43-5.74-1.31-6.81-3.87c-2.18,0.89-4.48,1.32-6.89,0.9
			c-2.4-0.34-3.87-2.45-4.22-4.74c-2.06,0.91-4.25,1.44-6.59,1.24c-4.36,0.33-8.77-2.82-7.3-7.38c-3.21,0.28-6.44,0.71-9.65,0.37
			c-6.24-0.35-12.52-7.58-8.83-13.57c2.78-3.72,12.63-4.2,17.26-5.45c11.75-3.17,22.83-8.28,34.35-12.11
			c2.06-0.68,4.11-1.37,6.16-2.09c1.81-1.54,4.52-1.66,6.67-2.6c3.93-1.37,7.35-3.79,10.95-5.81c2.56-2.99,6.2-5.06,8.89-7.99
			c0.02-0.01,0.04-0.03,0.06-0.04c0.68-1.4,2.32-2.77,2.97-4.02c1.7-2.53,2.83-5.37,3.86-8.22c6.83-18.8,6.83-38.97,7.28-58.7
			c0.17-7.44,0.08-14.9-0.57-22.31c-0.18-3.33-0.33-6.67-0.6-10c-0.04-1.34-0.47-3.23,0-4.54c-0.35-1.11,0.1-2.41,1.84-2.9
			c9.63-3.15,20.04-3.47,30.03-2.13c7.05,1.15,14.06,2.69,21.15,3.52c0.31,0,0.59,0.06,0.84,0.15c1.12,0.04,2.22,0.79,2.24,2.27
			c0,0.8,0,1.59-0.01,2.39c0.1,0.25,0.17,0.54,0.21,0.86c-0.11,5.09-0.22,10.19-0.34,15.28c-0.01,1.16-0.02,2.32-0.03,3.48
			c0,0.2-0.03,0.4-0.07,0.57c-0.09,3.64-0.18,7.28-0.28,10.92c-0.11,4.01-0.26,8.03-0.33,12.05c0.68,0.33,1.2,1.01,1.21,2.02
			c0.07,10.47-0.72,21.05,1.54,31.36c1.26,5.81,3.38,11.35,5.61,16.84C360.64,274.81,361.79,275.43,361.99,276.87L361.99,276.87z
			 M244.93,344.67c0.34-0.12,0.65-0.32,0.9-0.59C245.58,344.34,245.27,344.54,244.93,344.67z"/>
		<path class="st8" d="M359.54,276.39c-14.85-20.85-19.8-46.94-21.79-72.07c-0.69-7.24-0.44-14.53-0.51-21.79
			c-0.01-2.39,0-4.79-0.06-7.18c-0.05-0.3,0.03-0.57,0.18-0.79c1.16,0.31,2.32,0.56,3.51,0.74c0.99,0.15,1.98,0.26,2.97,0.34
			c0.95,0.24,1.9,0.46,2.87,0.57c3.1,0.12,5.48,1.1,5.32,4.63c0.59,12.75-1.01,25.48-0.43,38.23c0.03,16.11,0.96,32.39,6.41,47.7
			c0.73,2.22,1.56,4.42,2.44,6.59c0.58,1,1.09,3.11-0.39,3.11C359.92,276.46,359.74,276.44,359.54,276.39L359.54,276.39z
			 M255.44,349.96c-0.26-0.87,0.66-1.74,1.83-1.11c7.56,0.76,13.68-6.45,21.32-7.02c4.37-0.76,8.81-0.37,13.21-0.68
			c4.19-0.34,8.3-1.36,12.29-2.64c3.87-1.38,7.29-3.67,11.14-5.07c2.73-1.08,5.7-1.89,8.79-2.57c0.97-0.08,1.95-0.15,2.92-0.25
			c1.16-0.13,2.33-0.27,3.5-0.36c1.18-0.1,2.37-0.22,3.55-0.34c1.34-0.13,2.69-0.25,4.03-0.38c0.08-0.01,0.16-0.02,0.24-0.03
			c0.17,0,0.34-0.03,0.5-0.05c0.15-0.02,0.29-0.03,0.44-0.05c0.28-0.03,0.55-0.06,0.83-0.1c0.61-0.08,1.22-0.17,1.83-0.28
			c1.19-0.21,2.39-0.43,3.56-0.75c1.12-0.3,2.22-0.65,3.32-1.02c1.14-0.38,2.27-0.78,3.39-1.22c1.19-0.46,2.35-1.02,3.47-1.64
			c1.07-0.59,2.1-1.24,3.1-1.94c0.98-0.69,1.96-1.39,2.86-2.18c1.9-1.67,3.66-3.54,4.88-5.77c-6.47,13.19-16.06,15.81-30.02,18.39
			c-10.64,1.27-16.97,1.96-26.57,7.39c-1.25,2.44-5.19,2.82-7.65,3.51c-6.06,2.74-12.63,2.7-19.15,2.66
			c-1.54-0.01-3.07-0.02-4.59,0.01c-6.02-0.29-11.15,3.41-16.74,4.75c-0.22-0.04-0.42-0.13-0.58-0.26c-1.04,0.21-1.92,0.3-2.64,0.3
			C256.52,351.29,255.64,350.63,255.44,349.96L255.44,349.96z M243.98,348.67c7.04-0.1,14.05-2.77,18.88-7.99
			c0.74-0.46,1.44-1.42,0.68-2.19c-1.06-1.23-3.7,1.93-5.24,2.3c-3.28,1.56-6.74,2.97-10.4,3.22c-1.61,0.1-3.21-0.08-4.82-0.25
			c-0.03-0.12-0.07-0.25-0.14-0.38c2.14-1.37,3.79-3.34,5.64-5.05c1.19-0.83,2.62-2.85,0.25-3.08c-4.95,2.93-10.3,8.95-16.63,6.2
			c-1.82-2.13-3.65,1.49-0.2,2.39c-1.67,2.03,1.9,2.33,3.21,2.56c1.21,0.3,5.08,0.14,6.92-0.93c0.3,0.42,0.87,0.73,1.58,0.62
			C241.93,346.3,242.27,348.71,243.98,348.67L243.98,348.67z M221.81,342.48c-1.3-0.07-4.27-0.61-2.97-2.45
			c-1.48-0.37-3.77-2.78-1.22-3.36c0.46,0,0.86,0.28,1.03,0.68c2.56,1.79,5.98,0.84,8.72-0.02c2.9-1.01,5.64-2.42,8.24-4.03
			c1.46-0.51,3.82-3.5,5.15-1.81c1.07,1.89-4.98,3.9-6.2,5.16C230.08,340.02,228.07,342.89,221.81,342.48L221.81,342.48z
			 M209.36,335.31c-2.06-0.3-4.2-0.61-6-1.75c-1.22-0.75-2.06-1.95-3.12-2.88c-1.19-0.78-3.96-3.16-1.31-3.88
			c-3.2-3.14-0.01-5.22,0.84-2.75c1.88,3.53,6.29,4.33,9.94,4.68c5.62,0.5,11.18-0.45,16.55-2.07c1.81-0.3,6.38-3.28,7.53-1.32
			c0.85,2.49-6.62,2.76-8.21,4.18C220.27,332.3,215.91,337.13,209.36,335.31L209.36,335.31z M339.74,298.7
			c7.22-2.8,9.85-9.17,5.77-16.07c-0.93-1.21-3.21-6.33-4.89-5.51c-0.03,0.01-0.07,0.03-0.1,0.05c-0.07-0.02-0.13-0.04-0.2-0.05
			c-1.37,0.14-1.29,1.86-0.19,2.33c1.21,1.75,2.53,3.49,3.27,5.5c-1.29,0.05-1.09,1.43-1.02,2.34c-0.07,1.76-0.51,3.49-0.93,5.2
			c-0.26,1.74-4.55,5.06-2.2,6.05c0.07-0.01,0.15-0.03,0.22-0.04C339.56,298.57,339.65,298.63,339.74,298.7z"/>
		<path class="st9" d="M227.82,313.88c-3.45-2.43,4.45-3.53,5.91-4.03c2.86-0.66,5.66-1.52,8.49-2.27
			c-0.46-1.95,2.38-1.91,3.62-2.41c4.01-1.16,7.98-2.43,11.96-3.7c11.54-4.25,22.04-10.58,27.93-21.76
			c0.72-1.12,1.21-2.39,2.03-3.44c1.09-1.05,2.54,0.38,1.91,1.63c-4.38,12.92-15.19,23.01-28.21,26.9
			C250.36,308.14,238.79,310.52,227.82,313.88L227.82,313.88z M258.08,347.2c-1.73-0.96,0.17-3.05,1.64-2.24
			c1.44,0.38,0.78,2.63-0.63,2.17C258.78,347.31,258.4,347.34,258.08,347.2L258.08,347.2z M247.9,345.3c-1.21-0.37-4.03-1.03-3-2.79
			c1.07-1.18,2.36,0.56,3.6,0.61C249.92,343.49,249.3,345.7,247.9,345.3L247.9,345.3z M234.7,341.55c-0.67-0.82-2.21-0.78-2.27-1.99
			c0-0.52,0.34-1,0.85-1.14c1.1-0.22,1.97,0.78,2.81,1.34C237.25,340.64,235.85,342.45,234.7,341.55L234.7,341.55z M222.06,337.46
			c-0.35-0.17-0.7-0.34-1.06-0.48c-0.02-0.01-0.05-0.01-0.07-0.02c-1.63,0.47-2.05-2.12-0.38-2.26c1.15-0.04,3.5,0.63,2.98,2.16
			C223.31,337.41,222.61,337.72,222.06,337.46L222.06,337.46z M212.33,325.77c-1.87-1.09-3.75-2.15-5.77-2.96
			c-0.99-0.56-2.4-0.87-2.9-1.99c-0.27-0.88,0.69-1.71,1.53-1.34c0.38,0.18,0.67,0.5,1.07,0.66c0.47-2.22,5.74-1.73,6.8-0.14
			C214.4,321.41,215.33,326.03,212.33,325.77L212.33,325.77z M337.82,297.18c-1.13-1.07-0.16-2.84-0.08-4.17
			c0.89-3.88,0.6-7.85,0.61-11.79c0.07-0.89-0.09-1.88,0.28-2.71c0.4-0.67,1.43-0.76,1.89-0.11c0.49,1.38-0.12,3.06,0.08,4.55
			c0.68-0.15,1.35,0.42,1.35,1.11c0.16,3.48,0.51,7.16-0.96,10.43C340.44,295.69,339.5,298.18,337.82,297.18z"/>
		<g>
			<path class="st6" d="M212.95,337.15c-4.53-0.23-9.34-1.52-12.8-4.55c-3.46-2.89-4.89-8.75-1.22-12.04
				c1.6-1.47,3.78-1.88,5.85-2.25c3.12-0.56,6.08-1.27,9.12-2.11c18.13-5.68,36-12.43,53.46-19.93c7.3-3.78,13.95-9.1,17.79-16.5
				c6.08-9.46,8.22-20.52,9.4-31.53c1.83-21.92,2.26-43.99,0.46-65.91c0.19-1.7-1.07-4.48,0.78-4.89c0.52,0,0.95,0.43,0.95,0.95
				c0.33,11.11,1.76,22.09,1.38,33.19c-0.53,17.1-0.45,34.36-3.89,51.17c-2.83,10.54-7.75,21.73-16.32,28.79
				c-9.92,8.29-22.79,11.61-34.56,16.42c-11.49,3.96-22.69,8.89-34.6,11.48c-2.82,0.78-6.08,0.61-8.47,2.46
				c-4.53,4.68,1.38,10.93,6.32,12.1c2.48,0.84,5.1,1.36,7.73,1.19c1.12,0.18,3.05-1.13,3.62,0.32
				C218.1,337.57,214.28,336.91,212.95,337.15z"/>
			<path class="st6" d="M223.53,344.27c-8.31-0.47-9.84-7.75-3.31-12.42c3.83-3.07,8.84-4.04,12.97-6.64
				c1.44-1.31,3.19,1.11-0.53,2.47c-4.42,2.45-9.76,3.48-13.18,7.45c-4.54,5.1,2.28,8.14,6.85,7.09c2.08,0.07,4.76-3.47,5.76-2.11
				C233.41,342.42,225.3,344.93,223.53,344.27z"/>
			<path class="st6" d="M236.47,347.95c-15.02-2.09-1.3-15.2,5.92-17.85c1.18-0.17,1.49,1.65,0.32,1.88
				c-1.12,0.47-2.14,1.15-3.15,1.82c-2.94,2.15-11.61,8.1-6.06,11.51c2.77,1.54,5.81,0.24,8.59-0.12
				C244.66,347.48,237.8,348.01,236.47,347.95z"/>
			<path class="st6" d="M246.73,350.03c-6.85-0.5-5.42-5.74-2.11-9.71c1.08-1.46,6.58-8.42,8.29-6.44c0.62,1.52-2.03,2.06-2.78,3.1
				c-1.67,1.65-9.39,9.33-5.13,10.75c6.95,2.54,9.91-4.97,11.79-3.17c0.32,0.42,0.23,1.01-0.17,1.34
				C253.91,348.35,250.58,350.57,246.73,350.03z"/>
			<path class="st6" d="M259.05,353.04c-8.75-2.52-0.45-12.28,3.88-15.2c1.23-1.31,3.27,0.03,1.64,1.24
				c-3.13,2.31-7.84,6.19-7.3,10.47c0.11,0.41,0.44,0.89,0.79,1.1c6.11,3.08,12.08-6.24,26.33-4.85
				c19.23,0.54,22.17-6.76,37.69-10.87c13.58-3.33,30.37-3.04,40.07-14.56c7.59-10.94,7.08-26.78,1.01-38.32
				c-12.44-20.46-12.61-39.1-12.48-62.21c0.01-10.45,0.03-20.9-0.13-31.34c0.29-2.07-1.02-11.23,0.88-10.86
				c0.52,0,0.96,0.43,0.95,0.95c-0.02,7.03,0.15,14.06,0.19,21.08c0.09,12.56-0.22,25.13,0.3,37.69
				c-0.01,9.27,1.35,18.59,4.29,27.38c4.8,14.06,13.87,22.37,12.35,38.61c-1.18,27.05-22.86,28.95-44.42,32.87
				c-11.34,1.71-20.28,10.14-31.83,11.06c-5.81,0.79-11.72-0.05-17.51,0.83C269.98,349.02,265.11,354.03,259.05,353.04z"/>
			<path class="st6" d="M337.2,299.12c-0.82-0.88,0.36-1.65,0.89-2.29c4.55-4.74,4.08-12,1.57-17.63c-1.35-1.72,0.77-3.44,1.45-1.39
				c2.82,5.95,3.67,13.72-0.68,19.16C339.58,297.77,338.57,300.12,337.2,299.12z"/>
			<path class="st6" d="M211.91,327.31c-3.25-0.9-5.85-3.33-8.94-4.66c-0.77-0.62-2.39-0.36-2.48-1.58c0.47-2.84,6.6,1.92,8.06,2.48
				c1.36,0.75,2.73,2.01,4.37,1.88c1.91-0.53,1.63-3,0.47-4.16c-0.72-1.33-3.7-1.49-3.3-3.16c0.7-1.33,2.21,0.04,3.08,0.49
				C217.23,320.7,217.45,327.81,211.91,327.31z"/>
			<path class="st6" d="M221.07,338.48c-1.02-0.59-2.24-1-3.06-1.86c-0.85-1.25,1.28-2.56,1.75-1c3.62,2.93,7.45,0.4,2.06-0.98
				c-0.65-0.04-1.37-0.39-1.26-1.15c0.07-0.5,0.56-0.9,1.07-0.81C228.28,333.05,227.57,340.84,221.07,338.48z"/>
			<path class="st6" d="M236.35,343.92c-2.11-0.24-4.24-1.45-5.22-3.37c-0.33-1.07,1.3-1.69,1.76-0.68c0-0.01-0.01-0.02-0.01-0.03
				c-0.01-0.01-0.01-0.02-0.01-0.02c0.69,2.06,7.33,3.52,3.55,0.46c-0.79-0.67-1.97-0.56-2.72-1.19c-0.98-2.49,2.61-1.23,3.62-0.49
				C240.34,340.18,240.45,344.35,236.35,343.92z"/>
			<path class="st6" d="M247.29,346.68c-1.37-0.22-6.63-2.73-3.52-3.94c1.63,0.73,3.36,2.78,5.41,1.99
				c-0.04,0.02-0.05,0.03-0.11,0.05c0.49-1.1-1.96-1.82-2.79-2.09c-1.19-0.31-0.68-2.17,0.51-1.84
				C251.47,341.61,253.36,347.44,247.29,346.68z"/>
			<path class="st6" d="M260.16,348.88c-1.49-0.15-3.36-0.68-3.91-2.24c-0.28-0.63-0.06-1.47,0.7-1.57
				c1.55-0.04,0.53,2.28,4.18,1.85c-0.27-1.89-3.67-2.13-3.14-3.7C259.92,340.6,266.9,349.18,260.16,348.88z"/>
			<path class="st6" d="M334.58,338.76c-0.68-2,7.28-2.05,8.75-2.73c5.6-0.97,11.05-2.78,15.79-5.98c6.28,0.33-8.75,6.77-10.13,6.67
				c-3.9,0.98-7.87,1.69-11.84,2.38C336.29,339.22,334.97,339.96,334.58,338.76z"/>
			<path class="st6" d="M365.01,326.7c-0.97-1.38,1.42-2.4,1.87-3.63c0.73-0.78,1.01-2.95,2.44-2.3c1.31,1.15-0.79,2.88-1.32,4.02
				C367.26,325.57,366.28,327.69,365.01,326.7z"/>
			<path class="st6" d="M290.69,223.56c0.12-5.11,0.27-10.24-0.02-15.35c0.22-1.25-1.19-4.23,0.24-4.64
				c2.55-0.84,1.6,11.49,1.8,13.3c-0.32,1.47,0.73,7.71-1.08,7.64C291.13,224.51,290.67,224.08,290.69,223.56z"/>
		</g>
	</g>
	<g class="st1">
		<path class="st2" d="M342.13,161.82c1.81,6.13,3.84,12.37,2.88,18.85c-0.11,1.52-0.99,5.33-2.34,7.95
			c0.09,0.54-0.04,1.14-0.48,1.72c-2.96,3.6-6.61,6.55-9.72,10c-3.25,3.68-5.97,7.78-8.91,11.7c-2.87,4.13-6.24,7.86-9.44,11.73
			c-0.76,0.99-1.61,2.44-2.77,2.79c-2.77,3.77-6.18,7.02-10.46,9.15c-2.92,1.46-6.3,3.06-9.62,2.25c-0.15,0.01-0.3,0-0.46-0.03
			c-12.6-1.6-17.73-6.21-23.57-17.25c-3.01-6.11-4.03-12.85-5.12-19.41c-0.1-1.02-0.23-2.03-0.36-3.04
			c-0.34-0.32-0.6-0.77-0.69-1.38c-0.52-3.15-0.67-6.32-0.76-9.5c-0.18-1.6-0.32-3.2-0.41-4.81c0-0.4,0.09-0.76,0.24-1.05
			c-0.13-2.96-0.37-5.91-0.98-8.83c-0.6-3.36-1.98-6.54-2.76-9.82c0-0.21,0.02-0.41,0.07-0.59c-2.13-5.79-4.58-11.45-6.89-17.17
			c-3.06-6.73-6.04-13.53-7.42-20.84c-1.57-6.63-0.71-13.48-1.35-20.17c-0.16-1.66-1.31-3.33-2-4.97c-0.66-0.17-1.24-0.6-1.5-1.31
			c-2.11-4.42-1.65-12.37,4.1-13.55c0.44-5.49,3.06-8.24,8.69-7.75c0.38-2.05,1-4.06,2.06-5.85c0.02-1.25,1.07-2.29,2.32-2.29
			c0.05,0,0.09,0,0.14,0c0.34-0.2,0.74-0.32,1.17-0.32c0.79,0,1.5,0.41,1.92,1.04c0.57-0.24,1.32-0.27,2.2,0.04
			c0.06-0.05,0.13-0.11,0.19-0.15c1.05-2.59,3.17-4.38,6.61-3.29c1.44,0.5,2.97,1.2,4.14,2.24c0.14-0.25,0.29-0.5,0.43-0.74
			c0.03-0.06,0.07-0.11,0.1-0.17c0.02-0.13,0.05-0.25,0.08-0.38c0.18-0.7,0.53-1.36,0.86-2c1.14-2.22,2.79-4.15,4.75-5.7
			c1.01-0.8,2.11-1.49,3.29-2.02c1.19-0.54,2.5-0.72,3.8-0.7c0.76,0.02,1.54,0.12,2.26,0.36c0.87,0.29,1.65,0.78,2.29,1.44
			c0.91,0.94,1.53,2.13,2.1,3.29c0.77,1.59,1.41,3.22,1.98,4.89c0.13,0.37,0.27,0.75,0.37,1.13c0.13,0.52,0.24,1.05,0.35,1.58
			c0.12,0.64,0.22,1.29,0.31,1.94c0,0,0,0,0,0c0.07,0.22,0.14,0.44,0.21,0.65c0.59,0.23,1.09,0.72,1.32,1.52
			c1.59,4.87,4.18,9.35,6.18,14.06c1.81,4.44,3.56,8.93,5.05,13.49c3.23,11.25,1.4,23.21,1.92,34.76c0.09,3.55,0.33,7.1,0.7,10.63
			c0.13,0.14,0.26,0.29,0.4,0.42c3.04,2.76,7.11,3.65,11.13,3.33c4.32-0.25,7.68-3.2,11.29-5.26c0.83-0.7,1.87-1.58,2.91-1.67
			c0.56-1.64,2.84-2.46,4.1-0.81c0.8,1.09,0.34,2.18,0.49,3.36C339.6,150.94,340.48,156.47,342.13,161.82z"/>
		<path class="st3" d="M340.13,150.31c2.8,11.94,8.99,25.07,3.33,37.08c-4.14,8.02-11.28,13.68-16.98,20.49
			c-3.68,4.55-7.49,9.01-11.11,13.6c-6.39,7.55-13.75,17.75-24.81,16.93c-5.74-0.64-18.59-5.32-19.65-11.5
			c-1.29-0.95-7.83-8.21-4.95-9.05c1.54-0.31,2.17,2.64,3.14,3.61c2.22,3.56,5.84,5.93,9.79,7.17c9.58,3.95,19.47-0.31,25.87-7.65
			c9.05-14.93,1.32-30.6-6.09-44.86c-3.51-6.39-4.3-13.7-3.14-20.83c2.11-18.02,13.67-36.69,4.64-54.51
			c-0.35-0.62-0.7-1.25-1.06-1.89c-2.55-3.05-5.89-5.46-10.27-6.87c-3.03-1-6.2-1.57-9.4-1.43c-0.31-0.03-0.54-0.17-0.7-0.36
			c-0.17,0.01-0.35,0.01-0.52,0.01c-0.08,0-0.16,0-0.23-0.02c-0.26-0.41-0.52-0.81-0.81-1.19c-0.02-0.02-0.03-0.05-0.05-0.07
			c0.01-0.05,0.01-0.1,0.02-0.14c-0.07-0.02-0.13-0.04-0.2-0.08c-0.16-0.19-0.34-0.38-0.54-0.52c-0.19-0.33-0.22-0.75,0.03-1.13
			c0.11-0.1,0.24-0.18,0.38-0.26c-0.05-0.08-0.11-0.16-0.17-0.23c-0.08-0.12-0.17-0.23-0.26-0.35c-0.13,0.05-0.28,0.09-0.45,0.14
			c-10.43,0.42-19.43,6.09-27.36,12.45c-0.6,0.43-1.19,0.9-1.78,1.38c-1.95,4.22-3.23,8.76-3.75,13.38c0,2.2,0.37,4.42,0.18,6.58
			c-0.07,0.19-0.19,0.33-0.33,0.44c0.24,2.37,0.77,4.71,1.47,6.99c0.41,1.39-1.79,2.03-2.18,0.6c-1.05-3.16-1.56-6.44-1.63-9.73
			c-1.59-0.61-0.43-3.82-0.63-5.2c0.1-1.92,0.23-3.89,0.36-5.78c0.19-1.03,0.19-2.58,0.34-4.04c-1.48-0.6-1.96-2.9-2.26-4.31
			c0.15-2.23,3.86-3.09,4.29-6.58c0.41-1.36-0.37-3.19,0.8-4.24c1.45-0.81,3.04,1.05,4.53-0.12c5.92-2.85,0.08-10.36,6.25-7.55
			c3.48,0.47,5.9-2.96,6.33-6.05c0.97-0.75,1.59-0.77,1.89-0.35c0.2,0.1,0.4,0.25,0.61,0.47c0.91,1.95,3.6,2.51,5.23,1.1
			c0.81-0.59,0.74-2.27,1.96-2.15c-0.2-2.4,0.11-4.45,1.39-4.65c-0.03-3.81,1.06-8.24,4.2-10.64c0.57-0.22,1.24,0.02,1.48,0.6
			c0.45,1.1-0.9,1.6-1.32,2.45c-1.88,2.94-3.04,7.2-1.19,10.4c3.01,4.16,9.04,5.48,13.65,3.39c1.51-0.72,2.73-1.95,3.49-3.43
			c0.49-0.81,0.43-2.18,1.57-2.36c1.35-0.16,1.42,1.48,1.51,2.45c0.18,1.59,0.56,3.15,1.08,4.66c1.18,3.66,2.87,7.1,4.9,10.35
			c0.29,0.32,0.39,0.74,0.34,1.13c0.82,1.18,1.21,3.2,1.78,4.16c0.05,0.11,0.08,0.22,0.09,0.33c0.72,1.14,1.33,2.3,1.61,3.01
			c0.62,1.26,2.34,2.93,1.24,4.33c0.22,0.26,0.54,0.98,0.89,1.99c2.11,4.27,2.81,9.23,2.61,14.23c-0.24,1.33,0.65,5.96-0.3,7.33
			c0.15,2.1,0.23,4.21,0.32,6.31c0,0.24-0.06,0.44-0.16,0.6c0.03,2.41,0.03,4.82,0.05,7.22c0.01,0.74-0.58,1.11-1.16,1.1
			c0.08,2.08,0.28,4.15,0.7,6.21c0.31,1.32,0.57,2.67,0.92,3.98c0.29-1.62,1.41-2.3,4.86-1.18c8.53,2.48,13.2-0.46,19.65-5.71
			C340.19,135.67,338.98,147.11,340.13,150.31z"/>
		<path class="st4" d="M242.11,83.38c0.02-9.34,5.87-6.11,3.05-4.13c-0.54,1.3-0.78,2.72-0.79,4.13
			C244.39,84.84,242.1,84.85,242.11,83.38L242.11,83.38z M293.8,208.34c4.16,3.05,2.06,9.32-1.57,11.91
			c-2.5,1.84-5.76,2.54-8.82,2.11c-2.35-0.39-8.04-1.87-8.38-4.56c-4.55-5.71-1.18-12.41,6.26-11.49
			C285.46,206.57,290.14,205.97,293.8,208.34L293.8,208.34z M287.81,99.33c1.69,5.73-8.57,4.37-11.9,5.3
			c-4.8,0.48-9.19,2.28-13.41,4.48c-3.88,1.74-8.38,5.83-12.77,3.54c-4.19-4.4,3.51-10.55,6.92-12.89
			c3.73-2.64,8.13-4.16,12.66-4.65C274.25,94.55,284.79,94.93,287.81,99.33L287.81,99.33z M274.77,65.76
			c-2.68-2.46,5.29-10.92,8.23-8.31c1.53,1.88-1.76,3.43-2.7,4.82C278.71,63.5,277.04,66.48,274.77,65.76L274.77,65.76z
			 M261.82,72.24c-2.81-0.85,1.32-7.65,3.37-7.69c1.26-0.03,1.54,1.86,0.34,2.21C262.97,68.44,263.65,72.53,261.82,72.24
			L261.82,72.24z M251.59,77.59c-2.5-0.58,0.63-7.01,2.09-7.81c1.26-0.75,2.41,1.22,1.14,1.95
			C253.03,73.06,253.44,77.95,251.59,77.59z"/>
		<g class="st5">
			<path class="st6" d="M311.05,165.47c-5.03-20.06-1.56-40.93-4.62-61.2c-1.71-8.52-6.33-16.03-9.72-23.94
				c-2.91-6.11-4.12-12.85-7.12-18.89c-7.25-12.37-20.21,4.06-17.98,13.31c1.1,5.91,6.55,9.62,8.46,15.15
				c0.5,1.13-1.31,1.89-1.76,0.74c-0.42-1.25-1.01-2.42-1.76-3.51c-4.36-5.52-9.1-12.26-6.2-19.58c1.77-7.17,9.97-16.06,17.59-10.92
				c5.22,4.21,6.01,11.62,8.32,17.56c4.14,11.54,11.79,22,12.74,34.52c1.12,13.34,0.53,26.76,1.38,40.1
				c0.25,5.18,1.3,10.26,2.34,15.32c0.07,0.43,0.19,0.85,0.22,1.28C312.95,166.56,311.11,166.69,311.05,165.47z"/>
			<path class="st6" d="M264.63,88.24c-0.01-5.96-3.54-10.69-5.07-16.19c-1.63-5.25,4.25-9.66,9.01-7.42
				c1.41,0.37,4.83,3.25,2.23,4.11c-1.32-0.3-1.07-2.14-3.92-2.67c-11.61-0.23-1.56,12.24-0.93,17.81c0.01,1.35,1.48,4.67-0.25,5.17
				C265.21,89.12,264.67,88.75,264.63,88.24z"/>
			<path class="st6" d="M256.28,92.1c-1.16-5.58-5.8-9.59-6.99-15.13c-1.29-5.8,6.02-11.71,11.1-7.96c1.58,1-0.4,2.67-1.46,1.26
				c-4.57-2.27-9.52,3.48-7.33,7.85c0.88,2.62,2.55,4.83,3.95,7.18c0.6,1.35,3.85,6.77,1.9,7.47
				C256.97,92.9,256.41,92.6,256.28,92.1z"/>
			<path class="st6" d="M248.28,96.92c-1.96-4.57-6.67-7.81-7.69-12.84c-1.26-5.17,4.78-11.08,9.65-7.87
				c1.4,0.73,0.48,2.69-0.89,1.78c-4.04-2.96-8.51,3.24-6.54,7.09C242.89,87.07,253.4,97.38,248.28,96.92z"/>
			<path class="st6" d="M247.34,97.05c-2.39-1.6-3.54-4.38-4.54-6.97c-0.49-1.13,1.28-1.88,1.75-0.74c0.93,2.3,1.85,4.93,4.09,6.27
				C251.07,95.62,249.47,98.83,247.34,97.05L247.34,97.05z M247.94,96.44c0.01-0.13,0.05-0.26,0.12-0.37c0,0,0,0,0,0.01
				c-0.02,0.03-0.03,0.07-0.05,0.1c0,0,0,0,0-0.01c-0.01,0.04-0.03,0.08-0.04,0.12c0,0,0-0.01,0-0.01
				c-0.01,0.04-0.02,0.08-0.03,0.12c0,0,0,0,0,0C247.95,96.41,247.95,96.43,247.94,96.44z"/>
			<path class="st6" d="M289.47,239.6c-11.28-0.57-20.17-9.95-24.02-20.01c-7.08-16.57-4.93-35.01-8.7-52.31
				c-2.45-11.63-8.87-21.91-12.63-33.11c-2.11-5.92-3.64-12.08-4.31-18.34c-0.55-4.01,0.36-8.07-0.11-12.07
				c-1.27-4.27-4.44-7.86-4.64-12.47c-0.14-3.11,1.94-7.66,5.52-7.39c2.25,0.36,1.7,3.13-0.29,1.9c-1.83-0.04-2.78,2.46-3.22,3.96
				c-0.73,5.15,3.56,9.16,4.56,13.93c0.43,3.65-0.35,7.33,0.01,11c0.77,9.33,3.79,18.3,7.42,26.88c4.22,9.87,9.21,19.6,10.48,30.4
				c3.3,19.36,0.55,41.69,14.21,57.55c9.89,12.02,29.49,10.73,36.5-3.59c0.26-0.45,0.85-0.6,1.3-0.34c1.58,1.2-1.74,3.97-2.26,5.3
				C304.82,237.06,296.93,239.99,289.47,239.6z"/>
			<path class="st6" d="M309.71,227.28c2.95-7.94,5.46-16.22,5.76-24.76c-0.01-1.22,1.92-1.24,1.9,0
				c-0.08,6.02-1.7,11.84-3.14,17.65c-0.58,2.49-1.73,4.77-2.62,7.14C311.59,228.52,309.69,228.5,309.71,227.28z"/>
			<path class="st6" d="M309.26,228.65c0.1-1.11,1.31-1.88,1.9-2.8c2.52-3,5.16-5.89,7.69-8.88c5.63-7.11,11.29-14.19,17.01-21.23
				c1.28-1.04,6.36-8.57,7.54-6.9c1.32,1.03-3.18,4.33-3.8,5.5c-2.64,2.98-5.18,6.05-7.59,9.22c-5.28,6.62-10.49,13.31-16.07,19.68
				c-1.29,1.47-2.57,2.94-3.81,4.44C311.47,228.59,309.97,230.63,309.26,228.65z"/>
			<path class="st6" d="M312.79,149.22c-6.44-1.43-3.49-4.94-2.16-2.91c8,4.07,17.29,0.04,23.98-4.83c1.17-0.46,2.52-2.68,3.77-1.54
				c0.31,0.41,0.24,1.02-0.17,1.34C331,146.71,322.06,151.72,312.79,149.22z"/>
			<path class="st6" d="M244.83,102.09c-2.77-1.72,6.99-7.5,8.43-8.47c6.51-3.89,13.57-7.07,21.06-8.44
				c1.21-0.18,1.49,1.72,0.26,1.89c-8.95,1.76-17.39,5.85-24.76,11.15c-1.23,0.95-2.43,1.94-3.49,3.08
				C245.98,101.8,245.52,102.39,244.83,102.09z"/>
			<path class="st6" d="M242.03,143.84c-2.74-5.46-5.33-11.13-6.1-17.24c0.04-1.39-1.4-6.7,0.51-6.75c0.53,0,0.94,0.43,0.95,0.95
				c0.08,4.22,0.66,8.46,2.06,12.45c1.2,3.29,2.64,6.5,4.22,9.62C244.31,143.93,242.63,144.92,242.03,143.84z"/>
			<path class="st6" d="M248.66,157.6c-1.04-1.31-1.21-3.24-2.11-4.7c-0.35-0.88-1.69-2.09-0.54-2.88c1.7-0.59,2.11,2.24,2.84,3.29
				C249.24,154.47,251.43,158.27,248.66,157.6z"/>
		</g>
	</g>
	<g class="st1">
		<path class="st2" d="M181.35,439.75c0.51,1.46-0.75,2.93-2.16,2.99c-1.77,3.44-6.61,4.89-11.3,3.62
			c-3.8-1.02-7.15-3.35-10.01-5.99c-1.98-1.74-3.02-4.38-5.17-5.9c-2.55-1.3-5.54-1.47-8.12-2.76c-2.45-0.93-4.51-2.61-6.55-4.22
			c-8.25-7.31-13.4-17.26-20.12-25.85c-1.32-2.34-4.13-4.69-4.24-7.43c-1.36-1.64-2.75-3.26-4.11-4.89
			c-4.15-3.9-8.67-7.39-13.46-10.52c-1.42-0.68-2.97-1.13-4.32-1.95c-0.25-0.16-0.44-0.35-0.59-0.57
			c-7.57-2.6-15.25-4.97-21.93-9.57c-18.01-11.99-14.84-29.03-7.59-46.45c1.84-5.44,3.21-11.09,3.61-16.83
			c0.09-1.34,0.16-2.69,0.18-4.03c0.14-1.53-0.33-3.88,0.4-5.3c-0.19-1.54-0.45-3.07-0.81-4.58c-0.66-1.73-1.39-3.43-2.07-5.15
			c-0.21-0.39-0.4-0.84-0.55-1.3c-3.33-3.35,7.57-10.98,10.26-12.28c6.81-3.29,14.56-4.85,22.11-4.2c4.1,0.32,8.19,1.72,12.32,0.89
			c2.23-0.48,3.31,2.08,2.41,3.58c0.03,0.11,0.05,0.22,0.07,0.34c0.33,2.35,0.64,4.7,1.13,7.02c4.42,13.9,7.54,28.2,11.58,42.22
			c1.3,4.31,2.98,8.5,4.58,12.71c2.17,5.61,3.57,11.48,5.67,17.11c3.74,9.2,8.4,17.99,12.28,27.13c0.53,1.44,2.61,4.8,3.76,7.74
			c0.01,0.02,0.02,0.04,0.04,0.06c1.33,2.25,2.69,4.49,4.36,6.51c3.05,4.05,7.79,5.96,11.87,8.7c1.67,1.1,5.85,6.11,6.42,9.33
			c1.91,2.28,5.57,8.82,4.24,11.29c0.49,1.21,0.84,2.3,0.96,3.05c0.24,1.91,1.08,5.44-0.01,7.39c1.04,1.37,1.97,2.81,2.61,4.41
			c0.04,0.09,0.07,0.17,0.1,0.26C180.33,437.01,180.74,438.62,181.35,439.75z"/>
		<path class="st3" d="M56.49,335.61c-2.3-0.67,3.22-12.31,3.6-14.58c2.69-7.67,4.4-15.69,4.46-23.84c0.04-3.57,0.09-7.26-0.9-10.71
			c-1.31-2.17-1.68-4.17-1.36-6c0-0.01,0.01-0.02,0.01-0.02c0.34-0.63,0.71-1.25,1.08-1.86c0.5-0.77,1.03-1.53,1.59-2.25
			c0.48-0.55,0.98-1.09,1.5-1.61c0.5-0.47,1.03-0.9,1.57-1.31c0.82-0.59,1.68-1.12,2.55-1.62c0.34,0.19,0.58,0.54,0.56,1.04
			c1.77,4.38,2.81,9.02,2.96,13.74c1.2,13.97-6.28,26.54-12.38,38.54c-1.37,2.5-2.44,4.81-3.14,7.52c-0.28,1.03-0.33,3.05-1.62,3.05
			C56.83,335.69,56.67,335.66,56.49,335.61L56.49,335.61z M177.5,430.55c0.25,1.12-1.25,1.88-1.98,0.97
			c-1.47-3.66-4.01-6.67-6.4-9.76c-3.54-5.2-6.33-10.88-9.17-16.49c-1.46-3.15-3.11-5.87-4.92-8.74c-0.33-1.28,1.31-1.92,2.13-0.99
			c1.58,1.29,3.22,2.51,4.9,3.66c4.46,2.54,7.48,6.48,9.92,10.89c4.14,5.1,3.63,8.17,4.11,14.11
			C176.86,426.28,176.6,428.58,177.5,430.55L177.5,430.55z M179.48,442.21c-0.96-1.03-2.67-0.25-3.91-0.78
			c-3.52-0.87-6.59-2.95-9.53-4.99c-2.82-1.82-4.83-4.81-8.02-6.02c-6.91-0.87-14.01-2.46-19.7-6.74c-4.68-3.1-8.18-7.43-11.59-11.8
			c-0.37-1.49-0.78-2.98-0.9-4.52c-0.18-6.44-2.82-12.59-7.43-17.1c-3.96-4.39-8.48-8.32-13.67-11.21
			c-8.01-4.49-17.16-5.99-25.84-8.62c-2.22-0.8-4.37-1.79-6.55-2.71c-0.79-0.38-1.75-1.1-2.44-0.15c-1.06,2.25,3.74,2.78,5.11,3.75
			c5.17,2.39,10.87,3.11,16.26,4.84c0.26,1.43,2.09,1.79,3.13,2.57c2.57,1.38,5.07,2.88,7.36,4.7c9.04,7.67,16.07,17.4,21.57,27.87
			c0.05,0.2,0.16,0.4,0.32,0.61c0.09,0.18,0.18,0.36,0.27,0.53c0.01,0.01,0.01,0.02,0.02,0.02c0.72,0.99,1.41,2,2.07,3.03
			c0.02,0,0.04,0,0.07,0c0.19,0,0.37-0.05,0.54-0.13c8.16,10.01,8.39,12.42,23.21,18.71c6.52,3.32,10.25,11.29,18.21,11.79
			C170.02,446.56,181.09,445.48,179.48,442.21L179.48,442.21z M83.57,329.72c0.86,0.32,1.96-0.15,1.93-1.17
			c-0.57-1.73-2.44-2.81-3.04-4.64c-0.74-1.73-1.07-3.62-1.27-5.48c-0.04-0.81,0.21-1.94-0.76-2.28c0.41-0.94,0.9-1.85,1.45-2.71
			c0.77-1.25-1.23-2.42-1.95-1.14C75.93,317.93,75.19,327.91,83.57,329.72z"/>
		<path class="st4" d="M146.69,382.11c-1.37-2.04-2.75-4.07-4.11-6.12c-0.01-0.02-0.02-0.04-0.04-0.05
			c-0.01-0.01-0.01-0.02-0.02-0.03c0.01,0.01,0.01,0.02,0.02,0.03c-0.01-0.01-0.02-0.03-0.03-0.04c0,0,0.01,0.01,0.01,0.01
			c-0.02-0.04-0.05-0.07-0.07-0.11c-0.04-0.07-0.09-0.13-0.13-0.19c0.01,0.02,0.02,0.04,0.04,0.06c0.01,0.01,0.01,0.02,0.02,0.03
			c-0.01-0.01-0.01-0.02-0.02-0.03c-0.08-0.12-0.17-0.25-0.25-0.37c0.01,0.02,0.03,0.04,0.04,0.06c0,0,0,0,0,0
			c-0.01-0.01-0.01-0.02-0.02-0.03c-0.01-0.01-0.01-0.02-0.02-0.03c0-0.01-0.01-0.01-0.01-0.02c0,0,0-0.01-0.01-0.01
			c0-0.01-0.01-0.01-0.01-0.02c0,0,0-0.01-0.01-0.01c-0.01-0.02-0.02-0.04-0.03-0.05c-0.07-0.11-0.14-0.21-0.21-0.32
			c0.02,0.03,0.04,0.06,0.06,0.1c-0.65-0.99-1.29-1.98-1.92-2.98c-0.03-0.04-0.05-0.08-0.08-0.12c-0.09-0.15-0.19-0.3-0.28-0.44
			c0,0,0-0.01-0.01-0.01c0-0.01-0.01-0.01-0.01-0.02c-0.02-0.04-0.04-0.07-0.07-0.11v0c0,0,0-0.01-0.01-0.01
			c-0.01-0.01-0.01-0.02-0.02-0.04c-0.01-0.02-0.03-0.04-0.04-0.06c0,0,0,0,0,0c-0.08-0.12-0.15-0.24-0.23-0.37
			c0.03,0.05,0.06,0.09,0.08,0.14c-0.04-0.07-0.09-0.14-0.13-0.21c0.03,0.05,0.06,0.09,0.08,0.14c-0.04-0.07-0.09-0.14-0.13-0.21
			c-0.08-0.12-0.15-0.25-0.23-0.38c0.01,0.02,0.02,0.03,0.03,0.05c0,0,0,0,0,0c-0.01-0.02-0.02-0.04-0.03-0.05c0,0,0,0,0,0.01
			c0,0,0,0,0,0c0,0,0,0,0,0c0,0,0-0.01-0.01-0.01c0,0,0-0.01-0.01-0.01c0,0,0-0.01-0.01-0.01c-0.01-0.02-0.03-0.04-0.04-0.07
			c-0.11-0.18-0.23-0.37-0.34-0.55c0.03,0.05,0.06,0.09,0.08,0.14c-0.15-0.24-0.29-0.48-0.44-0.72c0.02,0.03,0.03,0.05,0.05,0.08
			c-0.04-0.06-0.08-0.13-0.11-0.19c0,0,0,0,0,0.01c0.02,0.03,0.03,0.06,0.05,0.09c-0.02-0.03-0.03-0.06-0.05-0.09
			c0,0,0-0.01-0.01-0.01c0,0,0,0,0,0c0-0.01-0.01-0.01-0.01-0.02c0-0.01-0.01-0.02-0.01-0.02c0,0.01,0.01,0.02,0.01,0.02
			c0,0.01,0.01,0.01,0.01,0.02c0-0.01-0.01-0.01-0.01-0.02c-0.01-0.02-0.03-0.04-0.04-0.06c0,0,0,0.01,0.01,0.01
			c-0.01-0.02-0.02-0.04-0.03-0.05c0,0,0,0,0,0c-0.06-0.1-0.12-0.19-0.17-0.29c-0.13-0.23-0.27-0.45-0.4-0.67
			c0.03,0.05,0.05,0.09,0.08,0.14c-0.33-0.56-0.66-1.13-0.99-1.7c0.03,0.05,0.05,0.09,0.08,0.14c-1.08-1.86-2.12-3.74-3.17-5.62
			c-0.97-1.75-1.92-3.52-2.82-5.31c-0.03-0.07-0.07-0.14-0.1-0.21c0.01,0.01,0.01,0.02,0.02,0.03c-0.06-0.12-0.12-0.25-0.18-0.37
			c-0.86-1.77-1.68-3.55-2.44-5.36c-0.81-1.91-1.61-3.83-2.41-5.75c0,0,0,0.01,0.01,0.01c0,0,0,0.01,0,0.01c0,0,0-0.01,0-0.01
			c0,0,0,0,0,0.01c0,0.01,0.01,0.02,0.01,0.02c0-0.01-0.01-0.02-0.01-0.02c-0.02-0.04-0.04-0.09-0.06-0.13
			c-0.06-0.15-0.12-0.3-0.19-0.45c-2.5-7.45-4.47-15.06-5.65-22.86c-0.57-3.37-1.08-6.76-1.56-10.15c0.03-1.69,2.44-1.46,2.3,0.24
			c1.84,3.59,2.02,7.98,2.99,11.91c1.13,3.84,2.17,7.7,3.06,11.6c2.17,9.02,6.03,17.47,9.76,25.93c3.04,6.41,5.91,12.91,9.15,19.22
			c0.89,1.66,1.78,3.33,2.67,5C147.58,383.45,147.13,382.78,146.69,382.11L146.69,382.11z M178.09,441.08
			c-2.86-1.36-5.01-4.69-5.48-7.78c-0.47-0.94-1.18-2.54,0.13-3.12c1.98-0.55,3.2,3.4,4.39,4.61
			C178.15,436.36,182.49,441.25,178.09,441.08z"/>
		<g class="st5">
			<path class="st6" d="M169.81,447.07c-8.41-0.84-14.78-7.11-18.92-14.05c-0.7-1.04,0.89-2.08,1.58-1.07
				c1.06,1.6,2.13,3.2,3.31,4.72c4.78,6.36,14.2,11.36,21.67,6.62c2.61-1.52,3.87-3.56,1.41-5.99c-1.51-1.98-3.06-3.93-4.56-5.91
				c-12.66-16.43-20.73-35.72-30.26-54c-6.44-13.1-12.47-26.48-17.18-40.3c-4.58-13.87-8.06-28.07-12.3-42.04
				c-2.33-8.47-4.75-16.93-6.41-25.57c-0.22-1.13,1.64-1.63,1.87-0.36c0.39,2.3,0.99,4.56,1.49,6.84c3,13.18,7.25,26.02,10.77,39.07
				c4.91,19.32,12.08,37.96,20.7,55.9c8.28,16.23,15.84,32.91,25.31,48.49c3.97,6.87,9.58,12.65,13.72,19.35
				C183.19,444.47,174.31,447.49,169.81,447.07z"/>
			<path class="st6" d="M153.41,436.57c-5.75-3.4-12.63-4.73-17.78-9.21c-7.28-6.33-12.23-15.94-11.62-25.72
				c0.46-1.72,2.32-0.7,1.89,0.84c-0.32,10.53,6,20.96,15.02,26.19c3.15,1.77,6.52,2.92,9.81,4.36c1.48,0.79,3.47,1.26,4.4,2.74
				C155.49,436.8,153.98,437.53,153.41,436.57z"/>
			<path class="st6" d="M127.51,417.41c-11.75-18.38-19.3-33.5-41.31-41.4c-7.59-3.06-15.65-5.57-21.69-11.36
				c-7.41-6.39-10.99-16.96-9.6-26.57c1.26-10.97,7.66-20.49,8.97-31.46c0.89-5.09,0.76-10.35-0.46-15.37
				c-0.58-2.53-1.21-5.05-1.99-7.52c-0.16-0.49,0.1-1.04,0.6-1.21c1.81-0.92,2.71,7.09,3.27,8.37c2.03,8,0.86,16.34-1.3,24.19
				c-2.39,7.88-6.41,15.28-7.25,23.59c-1.77,12.07,5.28,24.03,15.92,29.54c9.73,5.13,21.05,7.27,29.74,14.35
				c5.59,4.03,10.48,8.96,14.34,14.69c3.06,4.47,5.9,9.1,8.84,13.65c1.1,1.95,2.67,3.7,3.51,5.76
				C129.14,417.43,128.13,417.97,127.51,417.41z"/>
			<path class="st6" d="M84.84,328.79c-1.93-1.76-3.29-4.06-3.92-6.59c-0.55-1.35-2.02-12.5,1.31-9.6
				c-0.23,3.99-0.35,8.3,1.64,11.98c0.6,1.02,1.35,1.97,2.22,2.78C87.02,328.15,85.76,329.61,84.84,328.79z"/>
			<path class="st6" d="M178.9,442.3c-3.6-1.02-7.87-3.46-8.16-7.6c-0.17-2.1,0.37-4.78,2.13-6.09c1.17-0.48,2,1.26,0.81,1.77
				c-3.2,4.73,0.96,8.92,5.59,10.05C180.48,440.66,180.1,442.56,178.9,442.3z"/>
			<path class="st6" d="M176.43,432.61c1.37-6.54-4-11.98-8.88-15.51c-0.9-0.65-1.82-1.28-2.72-1.94c-0.99-0.72,0.15-2.28,1.14-1.53
				c5.28,3.7,11.31,8.21,12.42,14.98c0.12,1.29,0.66,4.31-0.87,4.82C177.01,433.49,176.5,433.15,176.43,432.61z"/>
			<path class="st6" d="M175.89,424.23c-1.13-0.34-0.57-1.7-0.58-2.55c1.13-9.03-8.62-11.31-14.61-15.23
				c-1.97-0.8-1.49-2.87,0.22-2.14c5.19,3.88,13.33,5.36,15.67,12.09C177.01,417.73,178.25,424.63,175.89,424.23z"/>
			<path class="st6" d="M172.31,412.13c-1.21-0.29-1.01-1.94-1.49-2.87c-0.66-1.67-1.59-3.29-3.01-4.42
				c-2.77-2.31-5.81-3.93-8.73-5.95c-3.14-2.18-5.36-5.36-7.75-8.29c-0.77-0.95,0.74-2.17,1.49-1.19c0.62,0.88,1.36,1.68,2.04,2.51
				c4.58,7.42,15.34,8.66,17.96,17.32C173.08,410.22,174.04,412.15,172.31,412.13z"/>
			<path class="st6" d="M143,438.04c-9.21-2.4-16.36-9.82-19.99-18.44c-0.13-0.49,0.16-1.04,0.66-1.17c1.07-0.27,1.23,0.96,1.6,1.66
				c2.96,5.94,7.34,11.29,13.37,14.27c1.57,0.74,3.18,1.38,4.85,1.84C144.69,436.51,144.19,438.38,143,438.04z"/>
			<path class="st6" d="M154.97,446.38c-1.25-0.63-9.61-5.76-5.36-6.42c1.36,1.09,2.5,2.52,4.07,3.41c0.74,0.49,1.49,0.94,2.26,1.36
				C157,445.35,156.02,447.01,154.97,446.38z"/>
			<path class="st6" d="M119.84,293.76c-1.49-5.52-2.94-11.05-4.33-16.59c-0.05-1.39-2.12-5.07-0.24-5.56
				c0.62-0.09,1.08,0.44,1.11,1.02c0.9,4.02,1.97,8.01,3,12c0.76,2.88,1.51,5.75,2.28,8.63
				C122.01,294.43,120.16,294.96,119.84,293.76z"/>
		</g>
	</g>
	<g>
		<path class="st7" d="M216.67,250.27c2.12,9.5,4.97,19.21,4.17,29.03c-0.46,2.14-0.46,6.45-2.9,7c-2.17,3.64-6.26,5.62-11.22,5.06
			c-3.78-0.44-8.06-0.9-10.66-4.02c-0.69-0.9-1.61-2.29-2.35-3.79c-0.69,1.91-1.41,3.82-2.69,5.41c-2.49,2.93-7.25,3.64-10.7,2.17
			c-1.12-0.48-2.1-1.74-2.69-3.21c-2.06,1.96-4.45,3.44-7.35,3.62c-3.45,0.03-6.33-2.75-6.42-6.2c-1.11,1.02-2.25,2.04-3.35,3.07
			c-0.54,0.4-1.16,0.49-1.74,0.37c-1.65,0.72-3.41,0.86-5.21,0.01c-1.01-0.62-1.69-1.61-2.29-2.61c-0.23-0.39-0.46-0.79-0.67-1.19
			c-0.74,1.74-2.03,4.16-4.31,3.44c-2.34-0.97-2.37-4-2.87-6.13c-0.95-5.15-3.09-10.46-1.05-15.64c0.35-0.86,0.77-2.09,1.34-3.12
			c0.79-3.69,1.92-7.33,2.98-10.94c0.12-0.42,0.23-0.84,0.35-1.25c-0.16-0.39-0.21-0.83-0.11-1.25c0.63-2.51,1.27-5.01,1.96-7.5
			c1.37-4.64,2.88-9.27,3.55-14.08c-1.09-1.33,0.11-3.68,0.26-5.34c0.12-1.09,0.22-2.18,0.3-3.27c0-0.04-0.01-0.08-0.01-0.11
			c0.07-1.24,0.15-2.48,0.19-3.72c0.01-0.77,0.01-1.54-0.01-2.31c0-0.1,0.01-0.19,0.02-0.28c-0.04-0.25-0.04-0.51,0-0.77
			c-0.1-1.82,0.33-4.02,0.08-5.34c0.01-6.59-2.15-12.9-3.75-19.22c-2.26-7.82-1.1-16,1.26-23.65c1.24-5.11,1.68-10.38,2.15-15.6
			c0.21-7.38,0.36-14.76,0.56-22.14c0.06-2.29-0.17-4.61-0.22-6.91c-0.13-1.07-0.25-2.14,0.1-3.14c0,0,0-0.01,0-0.01
			c0.01-0.07,0.01-0.15,0.02-0.22c0.35-1.12,1.32-1.6,2.28-1.56c3.56-2.33,10.71-4.01,12.65-4.27c9.84-2.21,19.52,1.36,29.26,2.37
			c1.03,0.2,2.24-0.07,3.18,0.38c1.27-0.46,2.95,0.15,3.17,1.75c0.5,0.4,0.83,1.02,0.79,1.87c-0.16,2.5-0.31,5-0.37,7.51
			c-0.06,4.66-0.42,9.3-0.89,13.94c0.49,1.33-0.13,3.35-0.54,5.1c-0.14,1.28-0.28,2.55-0.42,3.82c0,0.43-0.04,0.88-0.13,1.32
			c-0.19,3.29-0.15,6.59,0,9.88c0.28,0.33,0.47,0.75,0.53,1.19c1.03,2.71,1.78,5.52,2.23,8.38c0-0.02-0.01-0.04-0.01-0.06
			c0-0.01,0-0.02-0.01-0.06c0.71,4.2,0.87,8.46,0.39,12.68c-0.03,0.58-0.29,1.12-0.68,1.51c-0.2,1.12-0.44,2.24-0.65,3.35
			c0,0.01,0.01,0.02,0.01,0.03c0.59,1.88-0.21,3.79,0.05,5.73c0.2,4.58,0.98,9.11,1.59,13.65c0.93,5.23,1.82,10.47,2.77,15.7
			c0.24,0.06,0.47,0.16,0.68,0.3c1.51,1.25,1.42,3.58,2,5.34c0.56,2.81,1.12,5.62,1.69,8.42c0.24,0.28,0.41,0.61,0.48,0.99
			C214.43,240.59,215.67,245.41,216.67,250.27z"/>
		<path class="st8" d="M149.76,170.48c-1.45-0.86,0.8-6.48,0.76-8.26c1.35-7.56,2.37-15.18,2.51-22.86
			c0.16-4.64,0.2-9.29,0.29-13.93c-0.07-2.57-0.2-5.13,0.44-7.3c-0.1-0.05-0.18-0.12-0.26-0.2c-0.39-0.46-0.37-0.94-0.1-1.42
			c0.74-0.56,1.49-1.11,2.27-1.6l0.08-0.05l0,0l0.02-0.01l0,0l0.02-0.01l0,0l0.02-0.01l0.01,0l0.01-0.01l0.01,0l0.01-0.01l0.01,0
			l0.01-0.01l0.01-0.01l0.01-0.01l0.01-0.01l0.01-0.01l0.01-0.01l0.01,0l0.01-0.01l0.01,0l0.01-0.01l0.01,0l0.02-0.01l0,0l0.02-0.01
			l0,0l0.02-0.01l0,0l0.02-0.01l0,0l0.02-0.01l0,0l0.02-0.01l0,0l0.02-0.01l0,0l0.02-0.01l0.01,0l0.01-0.01l0.01,0l0.01-0.01l0.01,0
			l0.06-0.03l0.01,0l0.01-0.01l0.01,0l0.01-0.01l0.02-0.01l0,0l0.02-0.01l0,0l0.02-0.01l0,0l0.02-0.01l0,0l0.02-0.01l0,0l0.04-0.02
			l0,0c0.04-0.02,0.07-0.04,0.11-0.05l0.01,0l0.01-0.01l0.01,0l0.03-0.02l0.01,0l0.02-0.01l0,0l0.02-0.01
			c0.13-0.06,0.26-0.13,0.4-0.19c0.1-0.04,0.2-0.08,0.31-0.13v0l0.09-0.04v0l0.04-0.02l0,0l0.04-0.02l0,0l0.04-0.02l0.04-0.02l0,0
			l0.04-0.02v0l0.04-0.02l0,0l0.04-0.02v0l0.04-0.02v0c0.64-0.25,1.29-0.48,1.95-0.68v0l0.05-0.01l0.05-0.01v0l0.05-0.01
			c0.27-0.08,0.55-0.15,0.82-0.22c0.15,0.23,0.2,0.54,0.1,0.89c-0.14,2.4,0.02,4.82,0,7.23c0.09,7.19,0.03,14.42-1.21,21.52
			c-0.96,6.7-2.95,13.16-5.37,19.46c-0.8,2.15-1.66,4.28-2.34,6.46c-0.2,0.84-0.62,2.12-1.52,2.12
			C150.18,170.64,149.98,170.59,149.76,170.48L149.76,170.48z M146.8,288.32c-0.51-0.05-0.86-0.47-0.95-0.93
			c-1.29-0.32-2.36-4.35-1.89-5.24c-5.21-10.41,0.37-22.85,2.1-33.5c-0.01-1.45,2.28-1.47,2.26,0c-0.02,0.86-0.24,1.7-0.41,2.53
			c-1.87,8.34-4.74,17.01-3.46,25.62c0.28,2.83,1.92,4.94,3.79,6.93c0.52-1.3,0.81-2.7,1.22-4.03c1.29-6.11,5.16-3.15,3-1.56
			c-0.61,1.14-0.97,2.59-1.36,4.03c0.06,0,0.12,0.01,0.18,0.01c0.67,0.18,0.87,0.91,1.31,1.36c1.14,1.21,2.91,1.72,4.51,1.95
			c1.63,0.04,2.75-0.1,3.58-0.33c0.23-0.54,0.47-1.07,0.56-1.49c0.86-2.47,2.19-4.82,4.21-6.52c0.72-0.78,2.23-0.52,2.23,0.67
			c-0.06,1.04-1.31,1.28-1.82,2.09c-0.87,0.99-1.5,2.13-2.02,3.33c0.32-0.18,0.69-0.32,1.18-0.4c2.72,1.4,1.83,3.21,6.57,3.42
			c0.89,0.16,1.67,0.15,2.36,0.02c0.18-0.25,0.33-0.5,0.41-0.75c1.15-2.8,2.35-5.59,4.16-8.04c0.45-0.65,1.02-1.57,1.94-1.31
			c0.66,0.19,1.08,0.91,0.8,1.57c-0.35,0.54-0.96,0.96-1.23,1.54c-0.82,0.73-1.76,3.11-2.77,5.37c1.17-0.84,2.01-1.43,3.07-0.2
			c1.33,3.66,7.07,2.79,9.38,0.61c0.9-1.11,1.57-2.4,2.24-3.66c0.59-0.81,0.51-2.45,1.76-2.51c0.2,0.03,0.36,0.08,0.5,0.14
			c0.42-0.78,1.83-0.9,2.11,0.22c2.93,3.48,8.05,3.1,12.1,2.3c9.78-1.94,10.34-14.37,8.64-22.31c-0.41-2.75-0.89-5.49-1.55-8.2
			c-0.16-1.15-1.22-3.16,0.49-3.55c2.37-0.6,3.85,12.78,4.01,14.77c0.47,8.42,1.94,17.58-2.64,25.19
			c-2.96,3.78-8.65,4.81-13.18,3.99c-3.38-0.55-6.79-1.88-8.63-4.93c-0.55-0.99-1.3-2.54-1.6-4.01c-0.52,0.92-1.11,1.79-1.33,2.3
			c-0.4,0.87-1.04,1.63-1.84,2.27c0.01,0.04,0.01,0.09,0.01,0.13c1.31,1.27-2.03,4.69-3.32,3.55c-2.14,0.64-4.45,1.44-6.65,0.39
			c-2.02-1.02-3.01-2.11-3.38-3.02c-1.21,2.09-6.76,4.39-8.23,3.69c-1.54-0.09-4.46-2.65-4.69-4.61c-0.6,0.82-2.55,1.16-3.39,1.56
			c-1.22,0.33-2.53,1.18-3.81,0.89c-1.48,0.59-3.24,0.56-4.55-0.41c-0.74-0.4-2.03-2.45-2.6-4.24
			C149.53,286.56,148.56,287.83,146.8,288.32L146.8,288.32z M155.93,287.73c0.09-0.02,0.18-0.05,0.27-0.07
			c-0.27-0.05-0.54-0.11-0.81-0.18c-0.62-0.17-1.23-0.37-1.83-0.62c0.43,0.63,1.18,1.01,1.95,0.94
			C155.65,287.77,155.79,287.75,155.93,287.73L155.93,287.73z M165.06,285.77c-0.11-0.12-0.21-0.24-0.31-0.36
			c-0.14,0.13-0.28,0.25-0.43,0.38c0.16,0.19,0.26,0.37,0.32,0.54C164.74,286.12,164.88,285.93,165.06,285.77L165.06,285.77z
			 M167.32,287.8c0.19-0.01,0.39-0.02,0.58-0.04c-0.3-0.13-0.6-0.28-0.88-0.44C167.1,287.48,167.21,287.64,167.32,287.8
			L167.32,287.8z M210.79,230.56c-3.51-8.84-7.53-17.57-9.04-27.04c-0.01-0.14-0.03-0.3-0.05-0.47c-0.25-0.74-0.49-1.48-0.71-2.23
			c-0.25-1.55-3.35-11.83,0.49-9.68c-0.03-3.26,3.05-3.5,2.5-0.38c0.99,0.92,0.26,2.57,0.54,3.78c0.2,2.6,0.46,5.2,0.97,7.76
			c0.56,2.61,1.42,5.13,2.22,7.67c0.57,1.23,1.26,4.38-0.86,3.69c0.15,0.5,0.29,1,0.44,1.49c0.8,2.39,1.69,4.74,2.63,7.07l0.06,0.24
			l0,0c0.46,1.86,0.93,3.71,1.41,5.56c0.27,1.04,0.55,2.08,0.84,3.11c-0.15,0.06-0.31,0.09-0.47,0.09
			C211.37,231.24,210.99,231.04,210.79,230.56L210.79,230.56z M197.77,114.54c-0.15-0.22-0.23-0.5-0.22-0.77
			c0.01-0.18,0.05-0.36,0.13-0.52c0.01-0.08,0.02-0.15,0.04-0.22l0.29,0.04l0.01,0l0,0l0.03,0l0,0l0,0l0.01,0l0,0l0.01,0l0,0l0.01,0
			l0,0l0,0l0,0l0,0l0,0l0,0l0.02,0l0,0l0.01,0l0,0l0,0l0,0l0,0l0.01,0l0,0l0.01,0h0l0.01,0l0,0l0.01,0l0,0l0,0l0,0l0,0l0.01,0l0,0
			l0.01,0l0,0l0.01,0h0l0.01,0l0,0l0.01,0l0,0l0,0l0,0l0,0l0.01,0l0,0l0.01,0l0.03,0l0.02,0l0.01,0l0.03,0l0.01,0l0.01,0l0.03,0
			l0.01,0l0.02,0l0.03,0l0,0l0.03,0l0.02,0l0.01,0l0.03,0l0.01,0l0.02,0l0.03,0l0,0l0.02,0l0.02,0l0,0l0.03,0l0.02,0l0.01,0l0.03,0
			l0.01,0l0.02,0l0.03,0l0,0l0.02,0l0.02,0l0,0l0.03,0l0.02,0l0.01,0l0.03,0l0.01,0l0.02,0l0.03,0l0,0l0.03,0l0.02,0l0.01,0l0.03,0
			l0.01,0l0.01,0l0.03,0l0.01,0l0.02,0l0.03,0l0,0l0.03,0l0.02,0l0.01,0l0.03,0l0.01,0l0.01,0l0.03,0l0.01,0l0.02,0l0.03,0l0,0
			l0.03,0l0.02,0l0.01,0l0.03,0l0.01,0l0.02,0l0.03,0l0,0l0.02,0l0.02,0l0,0l0.03,0l0.02,0l0.01,0l0.03,0l0.01,0l0.02,0l0.03,0.01
			l0,0l0.02,0l0.02,0l0,0l0.03,0.01l0.02,0l0.01,0l0.03,0.01l0.01,0l0.02,0l0.03,0.01l0,0l0.03,0l0.02,0l0.01,0l0.03,0.01l0.01,0
			l0.01,0l0.03,0.01l0,0l0,0l0.02,0l0.02,0l0.01,0l0.01,0l0.02,0l0.02,0l0,0l0.02,0l0.02,0l0.01,0l0.02,0l0.02,0l0.01,0l0.01,0
			l0.02,0l0.02,0l0,0l0.02,0l0.02,0l0.01,0l0.01,0l0.02,0l0.01,0l0.01,0l0.02,0l0.02,0l0,0l0.02,0l0.02,0l0.01,0l0.01,0l0.02,0
			l0.02,0l0.02,0l0.04,0.01l0.02,0l0.01,0l0.01,0l0.02,0l0.02,0l0,0l0.02,0l0.04,0.01l0.02,0l0.01,0l0.01,0l0.02,0l0.02,0l0,0
			l0.02,0l0.02,0l0.02,0l0.02,0l0.01,0l0.01,0l0.02,0l0.02,0l0,0l0.02,0l0.02,0l0.01,0l0.01,0l0.02,0l0.02,0l0,0l0.02,0l0.02,0l0,0
			l0.02,0l0.02,0l0.01,0l0.01,0l0.02,0l0.02,0l0,0l0.02,0l0.02,0l0.01,0l0.01,0l0.02,0l0.01,0l0.01,0l0.02,0l0.02,0l0.02,0l0.01,0
			l0.01,0l0.02,0l0.01,0l0.01,0l0.02,0l0,0l0.02,0l0.01,0l0.01,0l0.02,0l0.01,0l0.01,0l0.02,0l0,0l0.03,0.01l0.01,0l0.02,0l0.01,0
			l0.01,0c0.08,0.02,0.15,0.04,0.23,0.06l0.02,0l0,0l0.01,0l0.04,0.01l0.01,0l0.01,0l0.02,0l0,0l0.01,0l0.02,0l0,0l0.02,0l0.01,0
			l0.01,0l0.02,0l0,0l0.01,0l0.04,0.01l0.01,0l0.01,0l0.04,0.01l0.02,0l0,0l0.02,0l0.01,0l0.01,0l0.04,0.01l0.02,0l0,0l0.02,0
			l0.01,0l0.01,0l0.02,0.01l0,0l0.01,0l0.02,0l0,0l0.02,0l0.01,0l0.01,0l0.02,0.01l0,0l0.01,0l0.01,0l0,0l0.02,0.01l0.01,0l0.01,0
			l0.02,0.01l0,0l0.01,0c0.25,0.07,0.5,0.15,0.75,0.23c0.07,0.04,0.15,0.07,0.22,0.11c1.12,1.04,0.93,2.82,0.83,4.27
			c-0.24,6.89-0.63,13.79-0.53,20.69c0.07,4.96,0.35,9.92,0.66,14.87c-0.16,1.36,1.38,7.49-0.48,7.49c-0.28,0-0.63-0.14-1.08-0.45
			c-2.54-9.1-4.56-18.51-5.08-27.99C197.26,126.99,197.62,120.75,197.77,114.54z"/>
		<g>
			<path class="st9" d="M150.34,236.63c1.02-3.11,2.01-6.23,2.76-9.42c1.61-8.16,1.01-16.57-0.27-24.74
				c-0.44-1.75-0.96-3.49-1.69-5.13c-0.26-0.73-0.69-1.55-0.44-2.33c-0.67-1.73-1.06-3.54-1.31-5.37c0-0.18-0.02-0.38-0.06-0.59
				c-0.47-2.16-0.81-4.34-1.08-6.54c-0.28-1.79-0.5-3.62-1.19-5.31c-0.44-1.02,0.7-1.8,1.51-1.48c0.03-1.11,0.18-2.21,0.79-3.07
				c0.28-0.23,0.63-0.28,0.96-0.19c0,0.04,0,0.08-0.01,0.12c-0.06,1.23-0.14,2.46-0.12,3.69c0.01,0.6,0.03,1.19,0.11,1.78
				c0.08,0.62,0.19,1.24,0.31,1.86c0.22,1.2,0.46,2.4,0.75,3.58c0.28,1.17,0.59,2.33,0.91,3.49c0.64,2.33,1.33,4.65,2.02,6.96
				c0.7,2.37,1.33,4.75,1.85,7.16c0.46,2.15,0.84,4.33,1.16,6.5c0.17,1.27,0.28,2.54,0.34,3.82l0,0.02L150.34,236.63L150.34,236.63z
				 M157.62,211.48l0,0.04C157.62,211.51,157.62,211.5,157.62,211.48l0,0.04L157.62,211.48L157.62,211.48z M157.62,211.53
				l-2.21,16.18l0.02-0.08l0-0.01l0.01-0.07l0-0.01l0.02-0.08l0.02-0.08l0.01-0.03l0.01-0.05l0.02-0.08l0,0l0.01-0.07l0-0.01
				l0.02-0.08l0.01-0.04l0.01-0.04l0.01-0.03l0.01-0.07l0.01-0.07l0,0l0.02-0.08l0.02-0.08l0.02-0.08l0.02-0.08l0-0.01l0.01-0.07
				l0-0.01l0.02-0.08l0.01-0.05l0.01-0.03l0.02-0.08l0-0.02l0.01-0.06l0.02-0.07l0-0.01l0.02-0.08l0.02-0.08l0.02-0.08l0.02-0.08
				l0,0l0.01-0.07l0-0.01l0.01-0.05l0-0.02l0-0.01l0-0.01l0-0.02l0-0.02l0-0.02l0-0.01l0-0.01l0-0.02l0-0.02l0-0.02l0-0.01l0,0
				l0-0.02l0-0.02l0-0.02l0-0.02l0,0l0-0.02l0-0.02l0-0.02l0-0.02l0,0l0-0.02l0-0.02l0-0.02l0-0.02l0-0.01l0-0.01l0-0.02l0-0.02
				l0-0.02l0-0.01l0-0.01l0-0.02l0-0.02l0-0.02l0-0.01l0-0.01l0-0.02l0-0.02l0-0.02l0-0.02l0,0l0-0.02l0-0.02l0-0.02l0-0.02l0,0
				l0-0.02l0-0.02l0-0.02l0-0.02l0,0l0-0.02l0-0.02l0-0.02l0-0.02l0-0.01l0-0.01l0-0.02l0-0.02l0-0.02l0-0.01l0-0.01l0-0.02l0-0.02
				l0-0.02l0-0.01l0-0.01l0-0.02l0-0.02l0-0.02l0-0.02l0,0l0-0.02l0-0.02l0-0.02l0-0.02l0.01-0.06l0-0.02l0.01-0.04l0.01-0.04
				l0.01-0.02l0.01-0.06l0,0l0.02-0.08l0.01-0.05l0.01-0.03l0.01-0.03l0.01-0.05l0-0.01l0.01-0.06l0-0.01l0.01-0.05l0.01-0.03
				l0.01-0.03l0.01-0.05l0-0.01l0.01-0.06l0-0.01l0.01-0.06l0.01-0.03l0.01-0.04l0.01-0.04l0-0.02l0.01-0.06l0,0l0.01-0.06l0-0.02
				l0.01-0.04l0.01-0.04l0-0.02l0.01-0.06l0,0l0.01-0.06l0-0.02l0.01-0.04l0.01-0.04l0.01-0.03l0.03-0.12l0-0.01l0.01-0.05
				l0.01-0.03l0.02-0.08l0-0.01l0.01-0.06l0-0.01l0.01-0.05l0.01-0.03l0.01-0.03l0.01-0.05l0-0.01l0.01-0.06l0,0l0.01-0.06
				l0.01-0.02l0.01-0.04l0.03-0.12l0,0l0.01-0.06l0-0.02l0.01-0.04l0.01-0.04l0-0.02l0.01-0.06l0,0l0.01-0.06l0-0.02l0.01-0.05
				l0.02-0.12l0-0.01l0.01-0.06l0-0.01l0.01-0.05l0.01-0.03l0.01-0.03l0.03-0.12l0-0.01l0.01-0.05l0.01-0.03l0.01-0.04l0.03-0.12
				l0,0l0.01-0.06l0-0.02l0.01-0.04l0.01-0.04l0-0.02l0.01-0.06l0,0l0.01-0.06l0-0.02l0.01-0.04l0.01-0.04l0-0.03l0.01-0.06l0-0.01
				l0.01-0.06c0.08-0.41,0.16-0.82,0.23-1.23c0.1-0.65,0.19-1.31,0.26-1.96c-0.01-0.38-0.01-0.75-0.03-1.13c0.08-1,0.15-2,0.2-2.99
				c-0.01-0.48-0.02-0.97-0.04-1.45c0-0.03,0-0.06,0-0.09L157.62,211.53L157.62,211.53z M155.39,227.83l-5.06,8.8
				c-0.66,1.81-1.32,3.63-2.13,5.38c-0.07,0.16-0.1,0.33-0.09,0.49c-0.19,0.67-0.13,1.31,0.71,1.6c0.09,0.02,0.17,0.03,0.25,0.03
				c0.09,0,0.18-0.01,0.26-0.03c0.09-0.21,0.17-0.41,0.26-0.62h0l0-0.01l0-0.01l0-0.01l0-0.01l0,0l0-0.01l0-0.01
				c0.04-0.09,0.08-0.18,0.12-0.28l0,0l0-0.01l0.01-0.03l0-0.01l0-0.01l0-0.01l0-0.01l0,0l0,0l0.07-0.16l0,0l0-0.01l0.01-0.02l0,0
				l0.01-0.02l0-0.01l0-0.01l0.01-0.03l0,0l0,0l0.01-0.02l0-0.01l0-0.01l0.01-0.03l0,0l0.01-0.01l0-0.01l0-0.01l0.01-0.01l0,0
				l0.01-0.02l0,0l0,0l0.03-0.06l0,0l0,0l0.04-0.09l0,0l0,0l0.01-0.02l0,0l0.01-0.02l0-0.01l0-0.01l0.01-0.01l0,0l0,0l0.01-0.02l0,0
				l0-0.01l0,0l0-0.01l0-0.01l0-0.01l0,0l0,0l0.01-0.02l0,0l0.01-0.01l0-0.01l0-0.01l0-0.01l0-0.01l0,0l0.01-0.02l0-0.01l0,0l0-0.01
				l0.01-0.01l0-0.01l0-0.01l0-0.01l0,0l0.01-0.02l0-0.01l0,0l0-0.01l0.01-0.01l0,0l0-0.01l0.01-0.01l0,0l0.01-0.01l0,0l0,0l0-0.01
				l0.01-0.01l0,0l0,0l0.01-0.01l0,0l0.01-0.01l0,0l0-0.01l0-0.01l0.01-0.01l0,0l0,0l0.01-0.01l0,0l0.01-0.01l0,0l0-0.01l0-0.01
				l0.01-0.02l0.02-0.05l0.02-0.05l0.02-0.05l0.02-0.05l0.02-0.05l0.02-0.05l0.02-0.05l0.02-0.05l0.02-0.05l0.02-0.05l0,0l0.02-0.05
				h0l0.02-0.05l0.02-0.05l0.02-0.05l0.02-0.05l0.02-0.05l0.02-0.05l0.02-0.05l0.02-0.05l0,0l0.02-0.05l0,0l0,0l0.02-0.05l0,0
				l0.02-0.05l0.02-0.05l0,0l0.02-0.05l0,0v0l0.02-0.05h0l0.02-0.05l0,0l0.02-0.05l0,0l0.02-0.05l0.02-0.05l0.02-0.05l0.02-0.05
				l0.02-0.05l0,0l0.02-0.05l0,0l0.02-0.05l0.02-0.05l0,0l0.02-0.05h0l0.02-0.05l0,0l0.02-0.05l0.02-0.05l0.02-0.05l0.02-0.05l0,0
				l0.02-0.05l0,0l0.02-0.05l0,0l0.02-0.05h0l0.02-0.05l0.02-0.05l0.02-0.05l0.02-0.05l0,0l0.02-0.05h0l0.02-0.05l0,0l0.02-0.05
				l0.02-0.05l0.02-0.05l0.02-0.05l0.02-0.05h0l0.02-0.05l0.02-0.05l0.02-0.05l0.02-0.05l0.02-0.05l0.02-0.05l0.02-0.05l0.02-0.05
				l0.02-0.05l0,0l0.02-0.05l0.01-0.02l0,0l0.02-0.04l0.02-0.03v0l0.01-0.02l0.02-0.05v0l0,0l0.02-0.05l0.01-0.01l0,0l0.02-0.04
				l0.01-0.03v0l0.01-0.02l0.02-0.05l0,0l0-0.01l0.02-0.05l0-0.01l0,0l0,0l0.06-0.14l0,0l0-0.01l0.02-0.05l0-0.01l0,0l0.02-0.05
				l0.01-0.02l0,0l0.01-0.03l0.02-0.04l0,0l0.01-0.01l0.02-0.05l0,0l0.02-0.05l0.01-0.02l0,0l0.06-0.14l0,0v0l0.02-0.05l0.01-0.02v0
				l0.01-0.03l0.02-0.04l0,0l0.03-0.07l0,0l0.02-0.05l0.01-0.02l0,0l0.02-0.04l0.01-0.03v0l0.01-0.02l0.02-0.05v0l0,0l0.02-0.05
				l0.01-0.01l0,0l0.02-0.04l0.01-0.03l0,0l0.01-0.02l0.02-0.05l0-0.01l0.02-0.05l0-0.01v0l0.02-0.04l0.01-0.03v0l0.01-0.03
				l0.02-0.04l0,0l0-0.01l0.02-0.05l0-0.01l0,0l0.02-0.05l0.04-0.11l0.02-0.05l0,0l0,0l0.02-0.05l0.01-0.02l0.01-0.03l0.02-0.04v0
				l0.01-0.02l0.02-0.05l0,0l0.02-0.05l0.01-0.02l0,0l0.03-0.09l0,0l0,0l0,0l0,0l0,0l0,0l0,0l0,0l0,0l0,0l0,0l0,0l0,0l0,0l0,0l0,0
				l0,0l0,0l0.01-0.02l0,0l0,0l0,0l0,0l0,0l0,0l0.01-0.02l0,0l0.01-0.02l0,0l0-0.01l0,0l0,0l0-0.01l0,0l0.01-0.03v0l0.01-0.02
				l0.01-0.02l0.01-0.02l0-0.01l0-0.01l0.01-0.02l0.01-0.02l0.01-0.02l0,0l0.01-0.02l0.01-0.02l0.01-0.02l0-0.01l0-0.01l0.01-0.02
				l0.01-0.02l0.01-0.02l0,0l0.01-0.02l0.01-0.02l0.01-0.02l0-0.01l0-0.01l0.01-0.02l0.01-0.02l0.01-0.02l0,0l0.01-0.02l0.01-0.02
				l0.01-0.02l0-0.01l0-0.01l0.01-0.02l0,0c0.02-0.06,0.05-0.12,0.07-0.18l0-0.01l0.01-0.01c0.07-0.2,0.15-0.4,0.22-0.6l0-0.01
				l0-0.01l0-0.01l0-0.01l0-0.01v0l0-0.01l0-0.01l0-0.01l0-0.01l0-0.01l0-0.01l0-0.01l0-0.01l0-0.01l0-0.01l0-0.01l0-0.01l0,0
				l0-0.01l0-0.01l0-0.01l0-0.01l0-0.01l0-0.01l0-0.01l0-0.01l0-0.01l0-0.01l0-0.01l0,0l0,0l0,0l0-0.01l0-0.01l0-0.01l0-0.01l0-0.01
				l0-0.01l0-0.01l0-0.01l0.01-0.01v0l0,0l0-0.01l0-0.01l0-0.01l0-0.01l0-0.01l0-0.01l0-0.01l0-0.01l0-0.01l0,0v0l0,0l0-0.01l0-0.01
				l0-0.01l0-0.01l0-0.01l0-0.01l0-0.01l0-0.01l0-0.01l0-0.01l0-0.01v0l0.03-0.08l0,0l0.03-0.08v0l0.03-0.08v0l0.03-0.08v0
				l0.03-0.08v0l0.03-0.08v0l0.03-0.08v0l0.02-0.08l0,0l0.02-0.08v0l0.02-0.08v0l0.02-0.08v0l0.02-0.08v0l0.02-0.08l0,0l0.02-0.08v0
				l0.02-0.08l0,0l0.02-0.08l0,0l0.02-0.08v0l0.02-0.08l0,0l0.02-0.08l0,0v0l0.02-0.08v0l0.02-0.08v0l0.02-0.08l0,0l0.02-0.08v0
				l0.02-0.08l0,0l0.02-0.08l0,0l0,0l0.02-0.08v0l0.02-0.08l0,0l0,0l0.02-0.08l0,0l0.02-0.08l0,0l0,0l0.02-0.08l0,0l0.02-0.08v0
				l0.02-0.08v0l0,0l0.02-0.08v0l0.02-0.08l0,0l0.02-0.08v0l0.02-0.08l0,0l0.02-0.08v0l0.02-0.08v0l0.02-0.08l0,0l0.02-0.08l0,0
				l0.02-0.08v0l0.02-0.08l0,0l0.02-0.08v0l0.02-0.08l0,0l0.02-0.08l0.02-0.08l0.02-0.08v0l0.02-0.08v0l0.02-0.08l0,0l0.02-0.08
				l0.02-0.08l0.02-0.08l0.02-0.08l0.02-0.08l0.02-0.08l0.02-0.08l0.02-0.08l0.02-0.08l0.02-0.08l0.02-0.08l0.02-0.08l0.02-0.08
				l0.02-0.08l0.02-0.08l0.02-0.07l0-0.01l0.01-0.05l0.01-0.03l0.01-0.04l0.01-0.04l0.01-0.02l0.01-0.06l0-0.01l0.02-0.07l0,0
				l0.02-0.08l0.01-0.05l0.01-0.03l0.01-0.03l0.01-0.05l0.02-0.08l0-0.01l0.01-0.07l0-0.01l0.02-0.08l0.01-0.04l0.01-0.04l0.01-0.03
				l0.01-0.05l0.02-0.08l0,0l0.01-0.07l0-0.01l0.01-0.05l0.01-0.03l0.02-0.08l0.02-0.08l0-0.01l0.01-0.07l0,0l0.01-0.06l0-0.02
				L155.39,227.83L155.39,227.83z M149.99,242.56l-0.04,0.09l0.01-0.01l0-0.01l0-0.01l0.01-0.02h0l0.01-0.02l0-0.01l0-0.01
				L149.99,242.56L149.99,242.56z M149.93,242.7l-0.01,0.01L149.93,242.7L149.93,242.7z M149.83,242.94l7.8-31.46v0v0v0l0,0v0v0l0,0
				c0-0.01,0-0.01,0-0.02v0v0v0v0v0v0v0v0l0,0v0l0,0v0v0l0,0v0v0h0v0v0l0,0v0v0l0,0v0v0h0v0v0l0,0v0v0h0v0v0l0,0v0l0,0.05v0v0v0v0v0
				v0v0v0v0l0,0v0v0v0l0,0v0v0v0v0h0v0v0v0v0l0,0v0v0l0,0.02c0,0,0,0,0,0l0-0.03v0v0l0,0v0v0v0v0v0l0,0v0v0l0,0l0,0v0v0v0v0v0l0,0v0
				v0v0v0v0v0v0v0v0v0v0v0v0v0l0,0v0v0v0l0,0l0,0v0v0v0l0,0v0v0v0v0v0l0,0l-7.87,31.57l0,0l0.04-0.08l0-0.01l0-0.01l0.01-0.01l0,0
				l0.01-0.02l0,0L149.83,242.94L149.83,242.94L149.83,242.94z M198.26,280.01c-1.3-0.06-1.88-1.76-0.7-2.46
				c1.08-0.56,2.29-1.04,3.47-1.29c1.89-0.22,8.64-0.62,8.29,2.34c-0.25,1.1-1.52,0.93-2.39,0.99
				C204.06,279.79,201.16,280.23,198.26,280.01L198.26,280.01z M145.65,286.43c-2.98-1.33,0.94-4.49,1.6-1.65
				C147.93,285.82,146.67,286.92,145.65,286.43L145.65,286.43z M156.17,286.57c-2.28-0.01-1.76-2.81,0.43-2.28
				C159.21,282.44,160.74,286.86,156.17,286.57L156.17,286.57z M169.53,287.68c-1.79-1.06,0.19-2.78,1.63-2.32
				C172.93,286.39,170.97,288.22,169.53,287.68L169.53,287.68z M182.35,287.15c-0.53-1.1,0.34-2.56,1.59-1.82
				c1.09-0.12,2.13,0.78,1.4,1.86C184.66,287.82,182.79,288.26,182.35,287.15L182.35,287.15z M184.21,285.58
				C184.21,285.58,184.21,285.58,184.21,285.58c-0.02-0.04-0.05-0.07-0.08-0.1c-0.02-0.01-0.03-0.03-0.05-0.04c0,0,0,0,0,0
				C184.13,285.49,184.17,285.53,184.21,285.58z"/>
		</g>
		<g>
			<path class="st6" d="M199.92,192.93c-1.59-0.81,2.22-5.04,2.56-6.42c4.74-8.51,1.51-18.14-0.13-27.02
				c-0.83-13.18,0.91-26.42,1.07-39.61c0.05-1.45,0.12-2.91,0.3-4.35c0.07-0.51,0.56-0.88,1.07-0.81c1.44,0.3,0.51,2.28,0.62,3.18
				c-0.32,13.22-1.56,26.43-1.36,39.65c1.17,9.2,5.08,18.7,1.08,27.75C204.41,186.58,201.39,194.12,199.92,192.93z"/>
			<path class="st6" d="M205.32,292.31c-17.33-0.69-17.08-19.95,0.89-17.99c1.13,0.43,3.8,1.35,2.99,2.92
				c-0.31,0.4-0.94,0.51-1.34,0.17c-1.79-1.83-4.45-1.51-6.73-1.02c-7.07,0.85-9.14,7.59-3.33,11.91c6.58,3.52,18.42,3.84,21-4.79
				c4.56-13.16-1.27-26.7-4.63-39.45c-4.49-17.34-8.91-34.87-10.76-52.71c0.13-1.72-0.97-6.75,1.09-6.72
				c0.52,0.07,0.88,0.56,0.81,1.07c-0.49,9.21,1.8,18.43,3.5,27.41c2.76,13.21,5.83,26.35,9.71,39.28
				C223.09,266.03,227.81,294.83,205.32,292.31z"/>
			<path class="st6" d="M199.55,281.12c-1.36-0.06-2.99-0.04-4.02-1.06c-1.27-1.21-0.34-3.39,1.15-3.92
				c1.29-0.44,1.88,1.6,0.54,1.85c-0.16,0.17-0.29,0.36-0.39,0.57c-0.08,1.07,11.44,0.8,12.22,0.19c-0.27-0.75-1.3-1.57-0.39-2.29
				c0.41-0.32,1.01-0.23,1.34,0.17c0.8,0.95,1.53,2.59,0.34,3.54C207.55,281.88,202.82,280.8,199.55,281.12z"/>
			<path class="st6" d="M182.03,293.13c-6.4-0.83-5.91-8.59-3.5-12.97c0.69-1.23,1-2.89,2.07-3.82c0.74-0.35,1.61,0.5,1.25,1.25
				c-2.24,4.15-6.35,13.31,1.46,13.79c5.48,0.07,7.35-1.09,8.26-6.59c0.32-1.07,0.5-2.24,1.12-3.18c0.7-0.94,2.21,0.11,1.56,1.09
				c-0.83,1.88-1.06,3.98-1.73,5.92C191.36,293.03,185.87,293.66,182.03,293.13z"/>
			<path class="st6" d="M167.91,292.53c-5.76-1.86-4.86-8.85-2.84-13.27c0.69-0.98,1.16-3.54,2.74-2.94
				c0.44,0.26,0.62,0.86,0.34,1.3c-1.86,3.13-4.15,8.32-1.76,11.64c2.29,2.64,6.96,2.23,9.06-0.47c1.11-0.86,1.16-4.37,3.1-3.16
				c0.77,0.91-0.49,2.06-0.71,2.98c-1.8,3.63-6.24,5.13-10,3.89C167.84,292.5,167.91,292.53,167.91,292.53z"/>
			<path class="st6" d="M155.84,291.02c-3.41-0.24-5.29-3.73-5.76-6.77c-0.38-2.87,0.69-5.75,1.76-8.37
				c0.21-0.47,0.76-0.71,1.25-0.51c0.47,0.2,0.72,0.77,0.51,1.25c-0.68,1.49-1.14,3.07-1.5,4.67c-1,4.43,2.09,9.69,7.07,7.29
				c1.91-0.57,3.42-1.99,4-3.9c0.46-1.14,2.24-0.39,1.76,0.74C163.76,289.18,159.58,291.2,155.84,291.02z"/>
			<path class="st6" d="M145.94,289.43c-3.97-1.54-3.82-6.53-4.13-10.08c-2.82-6.53-0.58-13.54,1.09-20.08
				c2.23-7.91,4.77-15.75,6.57-23.77c2.52-9.89,3.14-20.19,2.87-30.36c-1.31-9.97-6.25-19.56-4.65-29.85c0.65-5.4,2.47-10.6,3.1-16
				c1.25-11.43,1.45-22.83,1.48-34.3c-0.01-2.54-0.02-5.08-0.03-7.61c-0.01-1.16,1.92-1.28,1.9,0c0.01,3.43,0.05,6.85,0.02,10.28
				c-0.04,10.29-0.35,20.59-1.35,30.82c-0.63,6.43-2.97,12.57-3.43,19.02c-0.92,10.23,4.65,19.53,4.92,29.59
				c0.09,10.2-0.67,20.45-3.34,30.32c-2.31,10.54-6.39,20.63-8.23,31.27c-1.05,3.7-0.05,7.3,1.02,10.85c0.17,2.48,0.07,5.2,1.6,7.3
				c1.8,2.21,4.44-0.09,4.62-2.33c-0.68-1.55,1.97-1.92,1.91-0.27C151.89,287.14,149.09,290.53,145.94,289.43z"/>
			<path class="st6" d="M182.26,288.85c-1.36-0.42-2.62-1.86-2.06-3.32c-1.13-2.64,4.61-2.06,5.82-1.15
				C190.25,287,185.42,290.2,182.26,288.85L182.26,288.85z M184.05,287.25c0.59-0.07,1.2-0.21,1.68-0.56
				c-0.79-1.19-2.57-1.29-3.85-1.06c0.16,0.32,0,0.77,0.29,1.04c-0.02-0.02-0.05-0.04-0.07-0.07l0,0.01c0-0.01-0.01-0.02-0.01-0.03
				c0,0,0,0-0.01,0.01C182.62,287.04,183.35,287.29,184.05,287.25z"/>
			<path class="st6" d="M170.24,289.28c-1.63-0.08-5.46-2.1-4.2-4.05c-0.03-1.79,4.93-1.63,6.14-1.26
				C176.45,285.33,173.73,289.65,170.24,289.28L170.24,289.28z M170.67,287.38c0.7-0.06,1.53-0.34,1.83-1.04
				c-1.23-1.21-3.24-0.6-4.77-0.42C168.43,286.77,169.56,287.4,170.67,287.38z"/>
			<path class="st6" d="M155.71,288.13c-1.23-0.15-3.8-2.01-2.04-3.09c-3.23-2.25,4.49-3.2,5.83-2.24
				C164.17,284.68,158.97,289.46,155.71,288.13L155.71,288.13z M157.31,286.39c0.89-0.08,1.81-0.56,2.11-1.45
				c-1.49-0.98-3.69-0.74-5.21,0.07C155.37,285.74,155.6,286.53,157.31,286.39z"/>
			<path class="st6" d="M145.89,287.03c-0.47-0.78,0.32-1.25,0.81-1.7c0.71-1.08-1.33-1.12-2.01-1.13c-0.67-0.02-1.31,0.62-1.93,0.1
				c-1.24-1.26,0.79-2.11,1.9-2.01C151.61,282.08,148.04,289.21,145.89,287.03z"/>
			<path class="st6" d="M225.75,271.63c-0.42-5.36-1.17-10.75-2.89-15.85c-1.33-3.45-2.86-6.83-3.83-10.41
				c-0.34-1.18,1.51-1.7,1.84-0.51c1.35,5.09,4.06,9.71,5.1,14.89C226.21,260.93,229.51,276.37,225.75,271.63z"/>
			<path class="st6" d="M224.87,282c-1.33-0.75,0.14-2.41,0.2-3.51c0.25-0.9,0.32-2.69,1.69-2.22c1.2,0.63,0.11,2.15,0.03,3.14
				C226.4,280.35,226.35,282.46,224.87,282z"/>
			<path class="st6" d="M143.42,187.58c-1.18-1.31-2.34-21.36,1.46-17.15c-0.46,3.59-1.03,7.28-0.66,10.96
				c0.18,1.92,0.47,3.84,1.04,5.69C145.6,188.25,143.75,188.78,143.42,187.58z"/>
		</g>
	</g>
	<g class="st1">
		<path class="st2" d="M442.27,389.62c3.99,0.26,3.79,5.6,2.91,8.45c-2.12,6.32-7.3,10.84-12.02,15.28
			c-2.37,2.24-4.78,4.44-7.21,6.61c-0.51,0.45-1.18,0.65-1.82,0.58c-2.42,2.37-4.79,4.79-7.56,6.75c-0.13,0.15-0.28,0.28-0.46,0.38
			c-0.61,0.39-1.22,0.76-1.84,1.14c-0.99,0.73-1.97,1.55-3.05,1.99c-1.19,0.84-2.33,1.76-3.35,2.83
			c-7.83,7.59-16.53,15.41-28.28,13.81c-3.9,0.03-7.56-1.36-10.66-3.7c-4.38-3.09-8.88-6.67-10.62-11.95
			c-0.35-1.59-1.27-4.19-0.61-5.8c-1.56-10.17,2.55-20.65,2.2-30.97c-0.06-4.68-1.45-9.27-1.07-13.97
			c0.4-6.94,3.36-13.38,3.93-20.31c0.76-8.21,1.4-16.43,2.01-24.65c0.08-2.54,0.18-5.08,0.29-7.62c0.68-13.52-0.08-27.01-0.19-40.53
			c-0.01-0.87-0.11-1.96-0.02-2.98c-0.27-0.21-0.49-0.5-0.63-0.91c-0.91-1.51,0.61-3.62,2.7-4.06c2.88-1.29,5.95-1.8,9.06-2.05
			c4.96-1.16,10.07-1.55,15.21-1.23c6.45,0,12.75,1.38,19.06,2.41c4.95,0.56,9.76,1.74,14.59,2.93c3.02,0.37,2.74,3.63,0.79,4.48
			c-0.21,2.02-0.62,4.01-1.02,6c0.35,0.46,0.56,1.11,0.54,1.95c-0.47,2.52-0.94,5.04-1.38,7.57c-1.2,7.64-3.16,15.13-4.62,22.71
			c-1.3,7.42-2.46,14.88-4.13,22.23c-1.16,5.04-2.24,10.11-3.13,15.21c0.37,0.83,0.62,1.8,0.86,2.6c0.87,2.72,1.81,5.43,2.98,8.04
			c0.12,0.26,0.24,0.52,0.37,0.78c0.57,0.08,1.11,0.4,1.49,1.01c2.69,3.2,5.67,6.12,8.57,9.11c1.85-0.63,4.75-0.16,5.97,1.17
			c0.35,0.29,0.63,0.59,0.86,0.89c1.21-0.58,2.61-0.77,3.72-0.37c1.67,0.65,2.43,3.12,1.97,4.91
			C439.85,390.02,441.02,389.63,442.27,389.62z"/>
		<path class="st3" d="M371.35,278.52c0.07,0.17,0.11,0.39,0.11,0.64c-0.16,7.42-0.85,14.79-1.47,22.18
			c-0.61,9.37-2.02,18.67-2.82,28.02c-0.22,2.12-0.45,4.26-0.63,6.39c-0.04,0.23-0.08,0.46-0.12,0.68c-0.19,0.99-0.35,1.98-0.5,2.98
			c-0.14,0.85-0.26,1.71-0.39,2.56c-0.15,0.97-0.28,1.94-0.4,2.92c-0.12,0.04-0.25,0.06-0.39,0.06c-0.02,0-0.04,0-0.06,0
			c-2.73-0.46-0.58-11.08-0.69-13.48c0.67-7.05,0.99-14.12,0.99-21.21c0.06-7.17,0.11-14.33-0.19-21.49
			c0.21-2.48-1.01-5.91,0.78-7.83c0.79-0.4,1.58-0.79,2.39-1.16c0.29-0.13,0.58-0.26,0.87-0.38c0.11,0.01,0.21,0.04,0.32,0.07
			c-0.01-0.07-0.02-0.14-0.02-0.2c0.56-0.24,1.12-0.47,1.69-0.7c0.1-0.01,0.2-0.02,0.29-0.04
			C371.2,278.54,371.27,278.53,371.35,278.52L371.35,278.52z M439.77,391c-0.92-3.9-3.45-5.24-7.23-4.1
			c-1.28-0.54-3.32-4.3-4.39-1.48c-7.45-5.75-11.5-10.49-14.69-19.49c-0.32-0.89-1.37-1.68-2.23-1.15c0.06-0.34,0.12-0.67,0.18-1.01
			c2.76-13.94,4.81-28,7.03-42.03c1.7-10.45,4.14-20.69,6.52-31.05c0.57-2.25,0.89-3.77,0.88-4.89c0.82,0.25,1.45-0.66,1.19-1.62
			c-0.6-0.44-1.21-0.86-1.85-1.24c-0.97-0.54-1.96-1.05-2.99-1.48c-1.11-0.43-2.26-0.76-3.41-1.09c-1.1-0.15-2.19-0.3-3.29-0.44
			c-0.34-0.04-0.67-0.08-1.01-0.09c-0.25-0.11-0.54-0.12-0.81-0.04c-0.17-0.01-0.35-0.01-0.53-0.01c-0.01,0.08-0.02,0.16-0.03,0.25
			c-0.55,0.02-1.07,0.38-1.09,1.09c0.29,2.24-0.23,4.51-0.38,6.78c-0.39,3.65-0.83,7.29-1.31,10.92c-0.49,3.35-0.98,6.71-1.44,10.07
			c-3.04,20.16-6.9,40.2-8.78,60.53c-0.93,7.57-2.05,15.19-1.54,22.83c0.23,5.81,2.03,11.37,3.15,17.03
			c2.14,9.19,2.17,19.14-2.93,26.96c-2.99,4.21-7.5,7.07-12.48,8.12c-0.48,0.2-0.97,0.39-1.47,0.56c-0.56,0.19-1.14,0.32-1.72,0.44
			c-1.15,0.24-2.31,0.3-3.48,0.3c-0.03,0-0.05,0-0.08,0c-1.13,0-2.26-0.17-3.37-0.37c-1.04-0.19-2.08-0.4-3.11-0.65
			c-1.07-0.26-2.14-0.56-3.16-0.97c-0.03-0.01-0.06-0.03-0.1-0.04c-0.02-0.01-0.04-0.02-0.06-0.03c-0.01,0-0.01-0.01-0.02-0.01
			c0,0,0,0,0,0c-0.02-0.01-0.04-0.02-0.06-0.03c0,0,0,0,0,0c0,0-0.01,0-0.01,0c0,0-0.01,0-0.01,0c-0.55-0.23-1.1-0.48-1.63-0.77
			c-0.55-0.3-1.08-0.64-1.61-0.98c-0.5-0.32-0.98-0.67-1.46-1.03c-0.47-0.35-0.94-0.71-1.38-1.11c-0.44-0.4-0.84-0.84-1.22-1.29
			c-0.05-0.06-0.1-0.12-0.15-0.18c-1.97,2.87,6.5,6.04,8.5,7.07c3.13,1.44,6.55,2.17,9.98,2.34c1.14-0.03,2.28-0.11,3.42-0.26
			c0.27,0.42,0.68,0.58,1.14,0.58c1.15,0,2.7-0.93,3.71-1.02c2.63-0.62,5.05-1.83,7.22-3.41c1.84-0.98,3.58-2.13,5.18-3.44
			c0.37,0.03,0.75-0.12,0.97-0.43c0.25-0.36,0.51-0.73,0.76-1.09c0.12-0.11,0.23-0.22,0.35-0.33c2.39-2,4.63-4.27,6.44-6.8
			c7.94-6.37,16.35-12.22,23.88-19.1c4.81-4.81,9.24-10.53,10.95-17.22C445.65,391.44,443.3,388.56,439.77,391L439.77,391z
			 M363.68,387.96c0.81,5.83-1.24,11.47-2.71,17.02c-0.75,1.57-0.6,7.64-2.83,7.13c-1.65-0.64-0.34-2.76-0.27-4.02
			c1.04-5.29,1.84-10.7,1.65-16.1c-0.21-2.33-0.63-4.64-0.96-6.96c-0.18-1.43-1.12-4.83,1.43-4.24c-0.21-1.72-1.78-11.53,1.52-10.19
			c1.1,0.56-0.03,3.41,0.28,4.69C361.57,379.63,363.21,383.71,363.68,387.96z"/>
		<g class="st5">
			<path class="st6" d="M379.98,448.52c-13.69-0.94-22.62-10.02-23.3-23.73c-0.6-8.62,1.72-17.16,2.28-25.69
				c0.52-6.54-0.82-12.96-0.64-19.46c0.19-5.45,1.84-10.68,3.05-15.95c1.19-7.54,1.13-15,1.53-22.57
				c0.7-12.09,1.69-24.19,1.29-36.31c-0.09-5.55-0.29-11.1-0.56-16.64c0.22-1.93-0.91-6.68,0.89-6.77c0.52,0,0.95,0.43,0.95,0.95
				c-0.02,3.31,0.06,6.61,0.25,9.91c1.26,20.71-0.57,41.37-1.53,62.04c0.15,8.53-3.29,16.45-3.95,24.86
				c-0.31,6.49,1.11,12.95,0.64,19.46c-0.46,8.82-2.98,17.61-2.29,26.48c0.85,16.38,15.28,24.62,30.43,20.5
				c9.62-2.33,16.52-9.94,22.61-17.25c1.35-1.34,8.07-10.46,9.59-8.85c0.35,0.35,0.39,1,0,1.35c-1.78,1.62-3.49,3.31-5.08,5.11
				c-3.17,3.73-6.25,7.56-9.71,11.03C399.72,444.24,390,449.04,379.98,448.52z"/>
			<path class="st6" d="M413.04,429.77c-1.08-0.58-0.47-1.86,0.59-1.93c2.26-1.25,4.22-2.93,6.22-4.55
				c8.68-7.62,26.89-19.1,24.13-32.38c-1.67-1.86-4.39,1.68-6.36,1.88c-0.5,0.15-1.04-0.17-1.17-0.66
				c-0.28-1.11,1.05-1.23,1.75-1.62c2.1-1.21,5.42-3.54,7.28-0.79c4.12,11.58-9.8,22.92-17.67,29.53
				C424.67,421.39,416.05,430.03,413.04,429.77z"/>
			<path class="st6" d="M437.24,393.31c-11.7-6.5-22.22-16.55-25.91-29.76c-0.85-1.41,0.69-2.99,1.6-1.31
				c0.21,0.74,0.43,1.46,0.67,2.15c3.09,9.93,10.33,17.77,18.76,23.57c2.19,1.53,4.38,3.48,7.05,4.02
				C441.46,392.53,440.13,394.95,437.24,393.31z"/>
			<path class="st6" d="M436.83,391.69c-0.12-1.15,1.15-1.97,1.3-3.12c0.18-2.31-3.11-2.3-4.54-1.38c-1.19,0.34-2.67,2.57-3.79,1.2
				c-0.59-1.48,1.75-2.01,2.64-2.74c2.63-1.82,7.72-1.03,7.63,2.82C439.95,389.71,438.22,394.08,436.83,391.69z"/>
			<path class="st6" d="M431.14,387.02c-1.43-3.44-5.25-1.78-5.32-3.55c0.75-2.55,5.75,0.29,6.55,1.86
				C433.89,386.93,432.17,388.82,431.14,387.02C431.14,387.01,431.14,387.02,431.14,387.02z"/>
			<path class="st6" d="M408.5,382.63c0.39-12.56,2.98-24.89,5.16-37.23c3.32-20.69,7.97-41.11,11.48-61.77
				c0.16-1.19,2.07-0.98,1.89,0.26c-4.55,25.46-9.85,50.76-14.05,76.28c-0.77,4.19-1.47,8.4-1.84,12.64
				c-0.27,3.27-0.67,6.54-0.73,9.81C410.42,383.83,408.49,383.89,408.5,382.63z"/>
			<path class="st6" d="M358.72,342.82c0.5-8.6,0.21-17.29-0.43-25.84c-0.01-1.23,1.91-1.24,1.9,0c0.39,6.76,0.96,13.41,0.62,20.17
				c-0.35,1.42,0.63,6.59-1.14,6.62C359.17,343.77,358.7,343.33,358.72,342.82z"/>
			<path class="st6" d="M358.22,358.16c-1.75,0.16,0.01-8.01-0.21-9.57c0.14-1.22,2.07-0.96,1.89,0.26
				c-0.19,2.83-0.41,5.67-0.61,8.5C359.25,357.86,358.71,358.23,358.22,358.16z"/>
		</g>
	</g>
</g>
</svg>
