<?xml version="1.0" encoding="UTF-8"?>
<svg xmlns="http://www.w3.org/2000/svg" version="1.1" xmlns:xlink="http://www.w3.org/1999/xlink" viewBox="0 0 4000 4000">
  <defs>
    <linearGradient id="linear-gradient" x1="841.941" y1="2463.489" x2="1115.4" y2="2935.201" gradientTransform="translate(-1813.901 4022.063) rotate(-90)" gradientUnits="userSpaceOnUse">
      <stop offset="0" stop-color="#fff"/>
      <stop offset="1" stop-color="#000"/>
    </linearGradient>
    <mask id="mask" x="713.844" y="2635.115" width="446.248" height="756.817" maskUnits="userSpaceOnUse">
      <rect x="713.844" y="2635.115" width="446.248" height="756.816" style="fill: url(#linear-gradient);"/>
    </mask>
    <linearGradient id="linear-gradient-2" x1="1654.323" y1="3840.437" x2="2314.39" y2="3404.775" gradientTransform="translate(-1509.047 3780.258) rotate(-90)" xlink:href="#linear-gradient"/>
    <mask id="mask-1" x="1425.171" y="1126.601" width="1214.072" height="1092.092" maskUnits="userSpaceOnUse">
      <rect x="1425.171" y="1126.601" width="1214.071" height="1092.092" style="fill: url(#linear-gradient-2);"/>
    </mask>
    <linearGradient id="linear-gradient-3" x1="2467.692" y1="3322.741" x2="1989.43" y2="3765.778" gradientTransform="translate(-1527.923 3715.269) rotate(-90)" xlink:href="#linear-gradient"/>
    <mask id="mask-2" x="1686.11" y="1287.138" width="861.549" height="616.224" maskUnits="userSpaceOnUse">
      <rect x="1686.11" y="1287.138" width="861.549" height="616.224" style="fill: url(#linear-gradient-3);"/>
    </mask>
    <linearGradient id="linear-gradient-4" x1="2017.757" y1="4400.668" x2="2485.975" y2="3798.68" gradientTransform="translate(-1373.341 3801.343) rotate(-90)" xlink:href="#linear-gradient"/>
    <mask id="mask-3" x="1978.456" y="640.664" width="1319.237" height="1680.332" maskUnits="userSpaceOnUse">
      <rect x="1978.456" y="640.664" width="1319.236" height="1680.332" style="fill: url(#linear-gradient-4);"/>
    </mask>
    <linearGradient id="linear-gradient-5" x1="1622.367" y1="3570.506" x2="2082.677" y2="4086.517" gradientTransform="translate(-1525.241 3801.137) rotate(-90)" xlink:href="#linear-gradient"/>
    <mask id="mask-4" x="1973.896" y="1641.438" width="586.775" height="678.558" maskUnits="userSpaceOnUse">
      <rect x="1973.896" y="1641.439" width="586.775" height="678.558" style="fill: url(#linear-gradient-5);"/>
    </mask>
    <linearGradient id="linear-gradient-6" x1="2141.003" y1="4677.041" x2="2270.988" y2="3328.038" gradientTransform="translate(-1441.708 3780.798) rotate(-90)" xlink:href="#linear-gradient"/>
    <mask id="mask-5" x="1973.342" y="910.724" width="992.631" height="1310.587" maskUnits="userSpaceOnUse">
      <rect x="1973.342" y="910.724" width="992.631" height="1310.587" style="fill: url(#linear-gradient-6);"/>
    </mask>
    <linearGradient id="linear-gradient-7" x1="1528.762" y1="3280.706" x2="2213.913" y2="3624.519" gradientTransform="translate(-1639.038 3804.966) rotate(-90)" xlink:href="#linear-gradient"/>
    <mask id="mask-6" x="1425.17" y="1914.187" width="583.36" height="424.389" maskUnits="userSpaceOnUse">
      <rect x="1425.171" y="1914.187" width="583.36" height="424.389" style="fill: url(#linear-gradient-7);"/>
    </mask>
  </defs>
  <!-- Generator: Adobe Illustrator 28.7.7, SVG Export Plug-In . SVG Version: 1.2.0 Build 194)  -->
  <g>
    <g id="Layer_1">
      <g>
        <rect x=".5" y=".5" width="3999" height="3999" style="fill: #fff;"/>
        <path d="M3999,1v3998H1V1h3998M4000,0H0v4000h4000V0h0Z"/>
      </g>
      <g>
        <path d="M1833.435,2338.576c54.181-88.834-109.746-250.208-109.746-250.208-71.533-57.105-201.31,38.749-298.519,130.325-71.588,67.437-125.515,132.555-125.515,132.555-108.016,105.241-681.388,661.381-572.006,850.142,97.169,167.7,413.153,247.397,432.443,144.986,9.661-51.274-11.802-136.083,6.845-225.803,63.836-307.141,336.609-491.13,336.609-491.13,83.24-70.676,42.568-143.895,42.568-143.895,53.543-199.668,246.248-112.357,246.248-112.357,6.084-2.894,11.557-6.027,16.458-9.376,0,0,9.522-11.42,24.617-25.24" style="fill: #bf874a; fill-rule: evenodd;"/>
        <path d="M1833.435,2338.576c54.181-88.834-109.746-250.208-109.746-250.208-71.533-57.105-201.31,38.749-298.519,130.325-13.14,12.378-25.682,24.678-37.409,36.512-328.685,457.729-200.272,789.744-200.272,789.744,87.734-261.454,316.057-415.505,316.057-415.505,83.24-70.676,42.568-143.895,42.568-143.895,53.543-199.668,246.248-112.357,246.248-112.357,6.084-2.894,11.557-6.027,16.458-9.376,0,0,9.522-11.42,24.617-25.24" style="fill: #ad7540; fill-rule: evenodd;"/>
        <path d="M1217.09,2432.725c-191.005,191.849-581.378,610.007-489.441,768.665,97.169,167.7,413.153,247.397,432.443,144.986,9.661-51.274-11.802-136.083,6.845-225.803,5.428-26.12,12.398-51.325,20.552-75.625l-.044.016c-452.199,179.197,29.308-611.686,29.645-612.24" style="fill: #cb995c; fill-rule: evenodd;"/>
        <g style="mask: url(#mask);">
          <path d="M1025.906,2635.115c-179.805,202.194-364.6,451.789-298.258,566.275,97.169,167.7,413.153,247.397,432.443,144.986,0,0-603.517-124.994-134.185-711.262" style="fill: #f3d397; fill-rule: evenodd;"/>
        </g>
        <path d="M1268.73,2877.622l.086-.132-.097.11.011.022ZM1833.435,2338.576c54.181-88.834-109.746-250.208-109.746-250.208-35.93-28.683-86.554-18.771-140.365,9.801,191.106,18.829,112.138,166.229,112.138,166.229-122.495-16.194-246.86,218.698-246.86,218.698,49.021,53.366-17.721,175.686-83.336,270.064,73.677-80.139,138.28-123.716,138.28-123.716,83.24-70.676,42.568-143.895,42.568-143.895,53.543-199.668,246.248-112.357,246.248-112.357,6.084-2.894,11.557-6.027,16.458-9.376,0,0,9.522-11.42,24.617-25.24Z" style="fill: #905931; fill-rule: evenodd;"/>
        <path d="M1723.689,2088.368s163.928,161.374,109.746,250.208c35.957-32.917,103.53-79.439,149.328-17.58,0,0-60.295-332.245,133.546-570.783,0,0,249.011-205.202,417.671-251.467l431.992-588.021s-421.212,212.521-714.221,421.225c-302.455,247.088-609.057,548.666-826.582,886.743,97.209-91.575,226.986-187.43,298.519-130.325" style="fill: #c6c6c6; fill-rule: evenodd;"/>
        <g style="mask: url(#mask-1);">
          <path d="M2572.898,1126.601c-107.5,63.255-221.703,134.516-321.146,205.347-302.455,247.091-609.057,548.667-826.581,886.745,77.236-72.76,175.028-148.209,247.831-147.504l.006-.013c288.183-502.69,686.98-526.265,933.438-829.459,84.668-104.161-21.344-107.59-21.344-107.59,0,0-4.393-2.704-12.204-7.526" style="fill: #fefefe; fill-rule: evenodd;"/>
        </g>
        <g style="mask: url(#mask-2);">
          <path d="M2255.384,1329.379c-1.206.857-2.43,1.712-3.632,2.569-195.174,159.447-392.065,341.588-565.642,541.58,100.257,175.547,444.193-476.284,861.549-585.356,0,0-123.89-11.35-292.275,41.207" style="fill: #fefefe; fill-rule: evenodd;"/>
        </g>
        <path d="M2116.31,1750.212c-193.841,238.538-133.546,570.783-133.546,570.783,0,0,10.004-411.163,781.241-762.096l-230.024-60.155c-168.66,46.266-417.671,251.467-417.671,251.467" style="fill: #ababab; fill-rule: evenodd;"/>
        <path d="M2533.981,1498.745l230.024,60.155s454.067-491.632,533.686-902.676l-12.628-15.559c-93.333,49.479-558.208,303.155-1033.312,691.285,293.009-208.705,714.221-421.225,714.221-421.225l-431.992,588.021Z" style="fill: #ababab; fill-rule: evenodd;"/>
        <g style="mask: url(#mask-3);">
          <path d="M3225.952,672.738c-90.626,275.928-230.729,524.045-527.163,869.107-805.172,407.983-719.518,757.507-716.195,778.181.111.642.169.969.169.969,0,0,10.004-411.163,781.241-762.096,0,0,454.068-491.631,533.686-902.676.001-.001-12.628-15.559-12.628-15.559-3.712,1.968-59.112,32.074-59.112,32.074" style="fill: #fefefe; fill-rule: evenodd;"/>
        </g>
        <path d="M1153.923,3213.67c.01-2.037-3.664-7.843-9.117-16.455-28.666-45.275-101.816-160.814,7.548-380.201,22.243-44.623,45.929-88.026,68.36-129.128,55.91-102.45,103.973-190.521,103.864-250.656-.055-30.074-12.733-53.254-43.485-67.88l8.02-7.829c32.342,16.392,45.692,42.22,45.754,75.664.114,62.779-48.533,151.925-105.125,255.622-22.288,40.839-45.819,83.961-68.188,128.831-106.756,214.156-35.85,326.148-8.065,370.035,2.104,3.323,3.983,6.291,5.559,8.959-.043,4.395-.033,8.754.015,13.07l-5.141-.033Z" style="fill: #7a4325;"/>
        <path d="M1337.837,2784.287c-17.881-44.68-20.728-109.493,34.906-193.274,55.828-84.07,99.171-163.326,105.255-234.037,4.334-50.365-10.45-96.653-53.514-137.633l.686-.649c2.279-2.147,4.58-4.294,6.895-6.443,45.272,43.152,60.783,92.139,56.184,145.593-6.269,72.874-50.279,153.558-106.934,238.875-50.959,76.739-50.677,136.497-35.747,178.523-2.572,2.975-5.149,5.985-7.731,9.046" style="fill: #7a4325;"/>
        <path d="M990.854,2675.1c76.758-74.53,110.163-99.562,120.428-89.255,9.119,9.16-2.549,42.415-19.909,91.889-52.237,148.854-158.347,451.361,70.817,611.247.089,2.186.171,4.346.242,6.484l-2.906,4.251c-239.879-163.752-131.221-473.401-77.879-625.4,16.083-45.836,26.892-76.648,22.322-81.24-6.352-6.378-45.935,29.187-147.013,129.841l-3.603-3.644c12.386-14.86,24.91-29.601,37.501-44.173" style="fill: #7a4325;"/>
        <path d="M845.274,2858.415c31.218-26.634,49.544-31.291,60.745-19.599,13.52,14.11,13.077,53.146,12.476,105.985-1.444,127.035-3.802,336.558,180.388,445.585-5.687.755-11.688,1.213-17.94,1.411-176.511-113.206-174.16-320.41-172.719-447.12.573-50.391.994-87.62-9.648-98.728-8.362-8.728-26.748.463-63.242,35.429l-3.564-3.718c4.415-6.395,8.927-12.814,13.505-19.245" style="fill: #7a4325;"/>
        <path d="M779.59,3069.529c.946,20.936,8.914,48.405,18.547,74.641,15.145,41.254,36.736,88.614,55.32,111.277,5.761,7.022,10.918,11.406,15.028,12.01,2.948.435,5.772-2.077,8.33-8.414,6.253-15.496,8.944-48.891,5.848-107.703-1.723-32.757-9.325-65.189-25.779-87.109-13.062-17.398-31.917-28.17-58.162-26.982-2.594.117-4.871.554-6.848,1.28-4.665,1.712-7.819,5.214-9.75,10.051-2.183,5.469-2.91,12.641-2.534,20.949M788.484,3147.749c-9.937-27.065-18.165-55.586-19.169-77.772-.439-9.699.505-18.303,3.266-25.227,3.016-7.554,8.09-13.076,15.712-15.875,2.954-1.085,6.276-1.734,9.98-1.9,30.116-1.363,51.782,11.036,66.817,31.063,17.812,23.732,26.008,58.191,27.827,92.764,3.18,60.425.189,95.288-6.592,112.097-4.667,11.564-11.326,15.923-19.33,14.745-6.846-1.007-14.125-6.71-21.489-15.69-19.391-23.646-41.583-72.147-57.022-114.204Z" style="fill: #7a4325;"/>
        <g style="mask: url(#mask-4);">
          <path d="M2560.67,1641.438c-4.943,2.801-577.94,327.398-371.843,52.586-44.115,32.784-72.518,56.188-72.518,56.188-187.661,230.933-137.132,549.696-133.719,569.784-3.085-19.255-39.161-314.656,578.08-678.558" style="fill: #909090; fill-rule: evenodd;"/>
        </g>
        <g style="mask: url(#mask-5);">
          <path d="M2188.827,1694.024c86.512-64.288,233.454-164.639,345.154-195.279l431.992-588.021s-380.062,191.759-669.283,389.853c212.954-133.309,615.945-341.015,615.945-341.015l-401.412,517.901c-125.119,42.173-405.196,247.592-405.196,247.592-124.104,149.35-136.678,369.543-131.846,496.254-2.92-116.769,14.633-314.204,142.129-471.098,0,0,28.402-23.405,72.518-56.188" style="fill: #fefefe; fill-rule: evenodd;"/>
        </g>
        <path d="M1973.55,2327.001l9.214-6.005c-45.799-61.859-113.372-15.337-149.328,17.58-15.095,13.819-24.617,25.24-24.617,25.24,99.156-100.008,164.731-36.815,164.731-36.815" style="fill: #909090; fill-rule: evenodd;"/>
        <g style="mask: url(#mask-6);">
          <path d="M2008.53,1914.187c-54.754,68.788-190.602,223.289-399.668,51.495-66.055,81.726-127.814,166.163-183.692,253.011,2.28-2.147,4.576-4.296,6.891-6.446,46.804-43.484,100.453-87.104,151.262-114.082,53.812-28.573,104.437-38.48,140.367-9.797,0,0,163.928,161.374,109.746,250.208,35.957-32.917,103.53-79.439,149.328-17.58,0,0-.059-.327-.169-.969,0-.01-.004-.02-.004-.03-1.095-6.444-7.032-43.583-8.409-98.686-3.02-79.22.762-194.981,34.349-307.123" style="fill: #ababab; fill-rule: evenodd;"/>
        </g>
        <path d="M1593.96,2212.484c-12.453-15.345-10.109-37.879,5.237-50.333,15.345-12.453,37.879-10.108,50.333,5.237,12.452,15.345,10.107,37.881-5.238,50.333-15.345,12.452-37.88,10.109-50.332-5.238" style="fill: #ffcf4b; fill-rule: evenodd;"/>
        <path d="M1073.496,2824.262c-12.453-15.346-10.109-37.881,5.236-50.333,15.347-12.454,37.881-10.109,50.333,5.236,12.454,15.345,10.109,37.881-5.236,50.333-15.347,12.454-37.881,10.109-50.334-5.236" style="fill: #ffcf4b; fill-rule: evenodd;"/>
      </g>
    </g>
  </g>
</svg>