<?xml version="1.0" encoding="utf-8"?>
<!-- Generator: Adobe Illustrator 28.4.1, SVG Export Plug-In . SVG Version: 6.00 Build 0)  -->
<svg version="1.1" id="Layer_1" xmlns="http://www.w3.org/2000/svg" xmlns:xlink="http://www.w3.org/1999/xlink" x="0px" y="0px"
	 viewBox="0 0 286.82 191.99" style="enable-background:new 0 0 286.82 191.99;" xml:space="preserve">
<style type="text/css">
	.st0{fill:#D1D3D4;}
	.st1{fill:#FFFFFF;}
	.st2{fill:#EDEDEE;}
	.st3{fill:#BCBEC0;}
	.st4{opacity:0.5;fill:#B6C5CC;}
</style>
<g>
	<path class="st0" d="M260.24,155.66c-2.78-4.41-4.45-8.41-4.34-13.65c0.09-4.71,0.98-9.42,1.25-14.13
		c0.62-10.9,0.81-21.88,0.91-32.8c0.05-5.42-0.12-10.81-1.04-16.17c-0.42-2.41-1.13-4.72-1.77-7.08c-0.19-0.7-0.43-1.37-0.68-2.04
		c0.23-1.86,0.66-3.68,1.63-5.31c1.23-2.08,2.91-3.68,3.56-6.06c0.89-3.23-3.32-2.59-5.19-2.15c-1.97,0.46-3.84,0.95-5.88,1.16
		c-3.6,0.37-7.29-0.08-10.83-0.7c-5.7-0.98-11.22-2.7-16.89-3.83c-0.02-1.59-0.32-3.24-0.69-4.75c-0.65-2.64-1.12-5.32-1.75-7.97
		c-0.54-2.24-1.18-4.32-2.29-6.36c-1.02-1.89-2.13-3.72-2.95-5.71c-0.95-2.3-0.98-4.31,0.22-6.49c0.51-0.92,1.24-2.49,0.23-3.39
		c-1.11-0.98-2.21-1.16-3.55-0.43c-2.29,1.23-4.52,2.15-7.07,2.65c-6.47-0.22-12.98,0.12-19.45,0.17
		c-7.22,0.06-14.45,0.1-21.68,0.22c-13.92,0.23-27.8,0.93-41.63,2.48c-13.5,1.52-26.9,3.87-39.98,7.45
		c-6.33,1.73-12.55,3.8-18.65,6.18c-6.09,2.38-12.14,5.44-18.67,6.56c-6.23,1.06-13.91,1.14-18.32,6.22
		c-1.07,1.23-2.25,3.1-1.23,4.68c1.33,2.05,4.22,1.06,6.3,1.22c0.98,0.9,1.34,2.43,1.74,3.62c0.65,1.92,1.02,3.91,1.37,5.89
		c0.89,4.95,1.62,9.92,2.57,14.86c1.16,6.01,3.42,11.84,5.55,17.58c2.2,5.96,4.77,11.78,7.7,17.44c2.91,5.62,6,11.15,9.19,16.63
		c1.39,2.39,2.95,4.67,4.4,7.02c1.73,2.8,2.75,5.46,1.27,8.58c-0.97,2.04-3.72,8.3,1.25,7.35c1.87-0.36,3.29-1.86,4.3-3.3
		c0.82-1.16,1.37-2.31,2.77-2.95c1.18-0.54,2.7-0.55,3.99-0.41c0.26,1.2,0.53,2.39,0.79,3.6c1.34,6.1-3.61,9.76-5.83,14.88
		c-1.16,2.67-0.42,6.14,3.08,6.05c4.39-0.11,8.24-3.27,11.72-5.7c4.77-0.19,9.58,0.28,14.3,0.87c6.94,0.86,13.83,1.61,20.82,2.03
		c14.16,0.83,28.34,0.23,42.51,0.2c14.17-0.04,28-1.75,41.98-3.81c14.15-2.09,28.43-5.58,42.84-4.35c4.51,0.38,8.41,1.79,12.41,3.53
		c0.45-0.02,0.89-0.06,1.32-0.16c0.79-0.19,1.32-0.61,1.71-1.17C264.39,161.36,261.31,157.35,260.24,155.66z"/>
	<path class="st1" d="M71.4,147.24c-1.85,0.67-2.83,2.5-3.89,3.97c-0.67,0.93-3.41,3.01-3.89,0.85c-0.31-1.37,0.67-2.97,1.27-4.15
		c1-1.98,1.62-3.79,0.99-5.97c-0.7-2.4-2.39-4.59-3.8-6.63c-1.77-2.56-3.28-5.25-4.83-7.93c-3.16-5.5-6-11.22-8.59-16.99
		c-5.16-11.45-9.82-23.55-12.03-35.87c-0.74-4.16-1.52-8.39-2.59-12.49c-0.55-2.09-1.34-5.08-3.26-6.58
		c0.05-0.11,0.05-0.23-0.07-0.29c-0.33-0.15-0.68-0.26-1.05-0.35c-0.15-0.06-0.3-0.11-0.47-0.16c-0.05-0.01-0.11,0-0.17,0.03
		c-1.35-0.24-2.77-0.31-3.85-1.2c-1.68-1.38,1.51-3.9,2.51-4.6c4.96-3.49,12.29-2.88,18.03-4.27c6.08-1.48,11.83-4.39,17.64-6.62
		c6.46-2.49,13.09-4.54,19.8-6.3c27.09-7.09,55.27-8.83,83.22-9.12c6.35-0.06,12.71-0.09,19.07-0.15c6.43-0.07,12.91,0.02,19.3-0.75
		c0.32-0.04,0.73-0.53,0.72-0.86c0.73-0.1,1.45-0.24,2.19-0.46c0.71-0.22,1.38-0.58,2.02-0.94c1.03-0.86,2.03-0.56,3,0.91
		c-0.05,0.56-0.57,1.2-0.84,1.67c-1.54,2.7-0.78,5.64,0.4,8.34c1.53,3.5,3.45,6.51,4.39,10.24c1.01,4.03,2.19,8.02,3.03,12.08
		c-0.4-0.07-0.8-0.14-1.2-0.21c-14.23-2.32-29.01-2.31-43.39-2.02c-14.28,0.29-28.56,1.05-42.82,2c-7.78,0.51-15.56,1.06-23.33,1.69
		c-7.15,0.58-14.37,1.04-21.45,2.15c-3.15,0.49-6.25,1.23-9.26,2.25c-3.36,1.13-6.48,2.81-9.9,3.79c-2.4,0.69-4.81,0.76-7.28,0.93
		c-0.55,0.04-1.06,0.18-1.51,0.41c-1.28,0.22-2.35,0.83-2.35,2.15c0,1.39,1.35,2.91,2.17,3.94c1.15,1.45,2.45,2.73,3.84,3.98
		c5.13,4.6,3.77,11.44,4.45,17.56c0.76,6.83,1.08,13.72,1.79,20.56c1.24,11.78,3.69,23.23,6.22,34.76
		C74.18,146.53,72.73,146.75,71.4,147.24z"/>
	<path class="st2" d="M216.6,40.57c-0.93-3.73-2.86-6.74-4.39-10.24c-1.18-2.69-1.94-5.64-0.4-8.34c0.27-0.48,0.79-1.11,0.84-1.67
		c-0.75-1.13-1.51-1.56-2.29-1.32c-0.35,0.58-0.75,1.14-1.22,1.71c-1.75,2.1-4.26,4.14-4.96,6.85c-0.61,2.35,2.04,4.32,3.36,6.16
		c3.71,5.2,5.45,11.34-2.77,12.85c-5.93,1.09-12.46-0.35-18.37-1.04c-6.44-0.75-12.86-0.91-19.35-0.87
		c-27.94,0.17-56.2,2.76-83.66,7.74c-6.31,1.14-12.8,2.15-18.83,4.35c-5.13,1.87-9.2,5.26-14.12,7.36c-2.25,0.97-4.59,1.1-6.03-1.19
		c-2.04-3.27-3.44-5.84-6.7-8.18c-7.81-5.61,5.54-8.74,9.81-8.84c6.87-0.17,12.81-4.82,18.43-8.26c0.84-0.51,1.69-1.03,2.53-1.54
		c-1.73,0.6-3.45,1.22-5.17,1.88c-5.81,2.23-11.56,5.15-17.64,6.62c-5.74,1.39-13.07,0.78-18.03,4.27c-1,0.7-4.18,3.23-2.51,4.6
		c1.08,0.89,2.5,0.96,3.85,1.2c0.06-0.03,0.12-0.04,0.17-0.03c0.16,0.05,0.32,0.1,0.47,0.16c0.36,0.09,0.71,0.2,1.05,0.35
		c0.12,0.06,0.12,0.17,0.07,0.29c1.93,1.5,2.72,4.49,3.26,6.58c1.07,4.1,1.84,8.33,2.59,12.49c2.21,12.32,6.86,24.42,12.03,35.87
		c2.6,5.77,5.44,11.49,8.59,16.99c1.54,2.68,3.06,5.37,4.83,7.93c1.42,2.05,3.11,4.23,3.8,6.63c0.63,2.18,0.01,3.99-0.99,5.97
		c-0.6,1.18-1.58,2.78-1.27,4.15c0.48,2.16,3.23,0.08,3.89-0.85c1.06-1.48,2.04-3.3,3.89-3.97c1.34-0.49,2.79-0.71,4.22-0.66
		c-2.54-11.53-4.99-22.98-6.22-34.76c-0.72-6.84-1.03-13.73-1.79-20.56c-0.68-6.12,0.68-12.96-4.45-17.56
		c-1.39-1.24-2.69-2.52-3.84-3.98c-0.82-1.04-2.17-2.55-2.17-3.94c0-1.32,1.07-1.93,2.35-2.15c0.45-0.23,0.97-0.38,1.51-0.41
		c2.47-0.17,4.88-0.24,7.28-0.93c3.42-0.99,6.54-2.66,9.9-3.79c3.01-1.01,6.11-1.75,9.26-2.25c7.08-1.11,14.3-1.57,21.45-2.15
		c7.77-0.63,15.55-1.18,23.33-1.69c14.25-0.95,28.53-1.71,42.82-2c14.38-0.28,29.16-0.3,43.39,2.02c0.4,0.06,0.8,0.14,1.2,0.21
		C218.79,48.59,217.61,44.59,216.6,40.57z"/>
	<path class="st2" d="M67.6,91.27c-0.68-6.12,0.68-12.96-4.45-17.56c-1.39-1.24-2.69-2.52-3.84-3.98c-0.82-1.04-2.17-2.55-2.17-3.94
		c0-1.04,0.67-1.63,1.57-1.95c-1.49-0.24-2.98-0.41-4.48-0.41c-5.33,0.01,3,13.08,4.06,15.45c2.68,6.02,4.54,12.33,5.61,18.8
		c1.02,6.11,1.98,12.84,0,18.87c-0.45,1.37-1.99,1.96-3.3,1.3c-5.24-2.66-8.1-8.45-10.19-13.51c-2.65-6.41-4.46-13.1-6.13-19.81
		c-1.68-6.72-4.64-13.86-5.85-20.67c-0.72-4.06-0.73-8.32-5.13-10.3c-2.67-1.2-8.56,0.62-7.71-2.84c-0.81,0.94-1.32,2.01-0.42,2.75
		c1.08,0.89,2.5,0.96,3.85,1.2c0.06-0.03,0.12-0.04,0.17-0.03c0.16,0.05,0.32,0.1,0.47,0.16c0.36,0.09,0.71,0.2,1.05,0.35
		c0.12,0.06,0.12,0.17,0.07,0.29c1.93,1.5,2.72,4.49,3.26,6.58c1.07,4.1,1.84,8.33,2.59,12.49c2.21,12.32,6.86,24.42,12.03,35.87
		c2.6,5.77,5.44,11.49,8.59,16.99c1.54,2.68,3.06,5.37,4.83,7.93c1.42,2.05,3.11,4.23,3.8,6.63c0.63,2.18,0.01,3.99-0.99,5.97
		c-0.6,1.18-1.58,2.78-1.27,4.15c0.48,2.16,3.23,0.08,3.89-0.85c1.06-1.48,2.04-3.3,3.89-3.97c1.34-0.49,2.79-0.71,4.22-0.66
		c-2.54-11.53-4.99-22.98-6.22-34.76C68.67,104.98,68.36,98.1,67.6,91.27z"/>
	<path class="st1" d="M261.92,163.6c-0.69,1.61-3.7-0.64-5.08-1.73c-3.12-1.04-6.5-1.5-9.68-1.68c-6.86-0.4-13.77,0.24-20.57,1.13
		c-14.11,1.86-28.05,4.65-42.22,6.12c-14.38,1.49-29.03,1.02-43.48,1.18c-14.09,0.15-27.97-0.94-41.93-2.56
		c-4.04-0.47-8.03-0.71-11.99-0.39c0-0.01,0.01-0.02,0.01-0.03c-1.27,0.17-2.54,0.4-3.79,0.66c-1.03,0.21-1.98,0.61-2.93,1.01
		c0.9-0.15,1.8-0.26,2.7-0.35c-1.47,0.82-2.96,1.64-4.5,2.34c-1.38,0.63-2.95,1.27-4.51,1.1c-2.54-0.29-1.39-4.29-0.86-5.58
		c0.93-2.27,2.62-4.19,3.67-6.42c1-2.12,1.28-4.34,1.09-6.65c-0.54-6.55-2.02-13.21-3.33-19.65c-2.75-13.44-3.31-27.13-5.3-40.66
		c-0.82-5.57-0.61-11.84-3.34-16.92c-1.78-3.32-4.62-5.69-6.69-8.78c0.12-0.11,0.18-0.29-0.01-0.32c0.01-0.26,0.03-0.53,0.04-0.8
		c0.28-0.18,0.71-0.3,1.17-0.38c0.09,0,0.18,0,0.27,0.01c0.45,0.01,0.9,0,1.36,0.02c0.82,0.03,1.6,0,2.41-0.09
		c2.99-0.31,5.76-1.24,8.52-2.34c2.93-1.17,5.77-2.36,8.85-3.16c3.29-0.86,6.69-1.33,10.07-1.73c14.1-1.63,28.34-2.43,42.5-3.35
		c14.49-0.95,29.01-1.66,43.52-1.85c13.89-0.19,28.34-0.1,42.02,2.5c0.69-0.12,1.49,0.15,2.12,0.29c0.11,0.02,0.15,0.09,0.16,0.17
		c10.02,2.16,20.27,6.03,30.58,3.39c1.39-0.36,2.81-0.77,4.26-0.75c2.7,0.04,0.07,3.65-0.6,4.53c-1.23,1.63-2.27,3.14-2.95,5.01
		c-0.3-0.91-0.54-1.84-0.63-2.81c-0.42,2.25,0.1,4.59,0.79,6.79c0.72,2.3,1.31,4.57,1.49,6.97c0.1,1.28,0.13,2.56,0.14,3.84
		c0.41,3.4,0.59,6.84,0.61,10.26c0.07,9.88-0.44,19.75-0.74,29.62c-0.27,8.52-1.67,17.26-0.21,25.74c0.71,4.12,2.59,7.76,4.7,11.36
		c0.47,0.8,0.89,1.6,1.27,2.44c0.02,0.04,0.03,0.09,0.05,0.13C261.48,161.89,262.23,162.89,261.92,163.6z"/>
	<path class="st2" d="M260.95,161.23c-0.02-0.04-0.03-0.09-0.05-0.13c-0.38-0.83-0.81-1.64-1.27-2.44c-2.11-3.6-3.99-7.24-4.7-11.36
		c-1.46-8.48-0.05-17.21,0.21-25.74c0.31-9.87,0.82-19.74,0.74-29.62c-0.02-3.42-0.2-6.86-0.61-10.26
		c-0.01-1.28-0.04-2.56-0.14-3.84c-0.18-2.4-0.78-4.67-1.49-6.97c-0.68-2.2-1.21-4.54-0.79-6.79c0.1,0.98,0.33,1.9,0.63,2.81
		c0.68-1.87,1.72-3.37,2.95-5.01c0.67-0.89,3.3-4.49,0.6-4.53c-1.45-0.02-2.87,0.4-4.26,0.75c-10.31,2.64-20.56-1.23-30.58-3.39
		c0-0.08-0.05-0.14-0.16-0.17c-0.63-0.14-1.43-0.41-2.12-0.29c-13.68-2.6-28.14-2.69-42.02-2.5c-14.52,0.19-29.04,0.9-43.52,1.85
		c-14.16,0.93-28.4,1.72-42.5,3.35c-3.38,0.39-6.78,0.87-10.07,1.73c-3.08,0.8-5.92,1.99-8.85,3.16c-2.77,1.11-5.53,2.03-8.52,2.34
		c-0.81,0.09-1.59,0.12-2.41,0.09c-0.45-0.02-0.91,0-1.36-0.02c-0.09-0.01-0.18-0.01-0.27-0.01c-0.46,0.08-0.89,0.2-1.17,0.38
		c-0.01,0.26-0.02,0.53-0.04,0.8c0.19,0.02,0.13,0.2,0.01,0.32c2.07,3.09,4.91,5.45,6.69,8.78c2.73,5.08,2.52,11.35,3.34,16.92
		c1.99,13.54,2.55,27.22,5.3,40.66c1.32,6.44,2.79,13.1,3.33,19.65c0.19,2.31-0.09,4.52-1.09,6.65c-1.04,2.22-2.73,4.15-3.67,6.42
		c-0.53,1.29-1.68,5.29,0.86,5.58c1.56,0.17,3.13-0.47,4.51-1.1c1.55-0.71,3.03-1.52,4.5-2.34c-0.9,0.09-1.81,0.21-2.7,0.35
		c0.95-0.39,1.9-0.8,2.93-1.01c1.26-0.26,2.52-0.49,3.79-0.66c0,0.01-0.01,0.02-0.01,0.03c3.95-0.32,7.95-0.08,11.99,0.39
		c13.97,1.63,27.85,2.71,41.93,2.56c14.45-0.15,29.09,0.32,43.48-1.18c14.17-1.47,28.11-4.27,42.22-6.12
		c6.79-0.9,13.7-1.53,20.57-1.13c3.18,0.18,6.56,0.64,9.68,1.68c1.38,1.09,4.38,3.34,5.08,1.73
		C262.23,162.89,261.48,161.89,260.95,161.23z M249.2,111.12c-1.89,8.14-7.87,18.01-3.33,26.25c2.56,4.67,5.42,11.21-2.33,12.58
		c-4.4,0.78-9.05-0.94-13.36-1.56c-6.78-0.97-13.88,1.49-20.42,2.96c-15.07,3.36-30.31,6.36-45.76,7.44
		c-8.26,0.58-16.57,0.62-24.81-0.22c-5.81-0.59-16.11-0.85-20.37-5.46c-7.88-8.55,17.11-13.8,21.72-14.63
		c12.76-2.31,25.37-3.68,38.35-3.35c7.91,0.21,16.22,0.02,23.71-2.78c7.85-2.94,12.94-8.9,18.81-14.4
		c4.45-4.15,10.64-6.54,15.33-10.47c7.38-6.21-3.59-7.34-8.31-7.57c-8.56-0.41-17.19,0.04-25.71-1.1
		c-8.24-1.11-16.17-3.78-24.4-4.99c-22.41-3.29-51.65-5.32-68.19,12.92c-4.41,4.86-9.77,13.32-16.02,16.04
		c-10.42,4.54-11.97-10.74-12.04-16.85c-0.07-6.56,1.22-13.07,0.68-19.62c-0.61-7.34-4.39-10.3-7.83-16.34
		c-4.62-8.12,35.3-12.05,40.59-12.6c9.43-0.99,18.88-1.67,28.32-2.52c11.36-1.03,22.75-2.25,34.18-2.15
		c16.82,0.14,35.37,1.66,51.5,6.42c4.19,1.23,8.4,2.16,12.84,1.81c1.73-0.14,5.3-1.65,6.85-0.89c3.6,1.76,0.43,3.17-0.63,4.78
		c-4.69,7.09-0.81,14.92,1.11,22.2C251.75,94.99,251.04,103.18,249.2,111.12z"/>
	<path class="st2" d="M262.43,162.32c-0.02-0.05-0.73-0.99-0.75-1.03c-0.39-0.83-1.59-1.83-2.06-2.63c-2.11-3.6-3.86-7.87-4.57-12
		c-0.34-1.96-0.13-6.46-0.21-8.44c-1.5,4.74-3.42,9.47-1.28,12.77c1.38,2.13,2.28,4.72-2.78,4.64c-7.53-0.13-15.13-2.32-22.67-1.65
		c-7.96,0.71-15.83,1.96-23.67,3.4c-14.79,2.72-29.53,5.4-44.53,6.82c-17.13,1.63-36.16,0.95-53.2-1.51
		c-3.93-0.57-9.91-1.66-8.07-6.85c1.88-5.3,9.4-8.94,14.07-11.5c5.78-3.17,11.77-6.25,17.83-8.89c11.45-4.99,23.47-6.78,35.6-9.49
		c12.47-2.78,23.41-9.56,35.08-14.38c8.59-3.54,17.47-6.35,26.46-8.75c-11.14,0.32-22.26,1.34-33.25,3.19
		c-12.54,2.11-24.93,5.08-36.96,9.1c-11.52,3.85-32.52,10.93-42.28,18.16c-8.59,6.36-27.37,24.3-34.23,13.22
		c-4.42-7.15-3.64-18.4-5.12-26.4c-2.1-11.36-4.69-20.43-2.39-31.84c0.75-3.74,2.09-8.6-0.24-12.09c-2.27-3.42-5.71-4.78-9.41-6.23
		c-1.18-0.46-2.57-1.06-3.9-1.79c1.88,2.38,4.06,4.47,5.53,7.21c2.73,5.08,2.53,11.35,3.35,16.92c1.99,13.54,2.55,27.22,5.3,40.66
		c1.32,6.45,2.79,13.1,3.34,19.65c0.19,2.31-0.09,4.53-1.09,6.65c-1.05,2.23-2.73,4.15-3.67,6.42c-0.53,1.29-1.68,5.29,0.86,5.57
		c1.56,0.18,3.13-0.46,4.52-1.1c1.55-0.71,3.03-1.52,4.5-2.34c-0.9,0.09-1.81,0.21-2.7,0.35c0.96-0.39,1.9-0.8,2.93-1.01
		c1.26-0.25,2.52-0.49,3.79-0.66c0,0.01,0,0.02-0.01,0.03c3.95-0.32,7.95-0.07,11.99,0.4c13.97,1.62,27.85,2.71,41.93,2.56
		c14.45-0.15,29.09,0.32,43.48-1.18c14.18-1.47,28.11-4.27,42.22-6.13c6.79-0.9,13.7-1.53,20.56-1.13c3.18,0.18,6.56,0.64,9.68,1.69
		c1.37,1.09,3.03,1.86,4.83,1.98C261.98,164.73,263.07,163.14,262.43,162.32z"/>
	<path class="st3" d="M231.58,101.17c-23.53,0.38-46.79,4.62-69.03,11.94c-11.55,3.81-22.82,8.54-33.57,14.1
		c-5.06,2.61-9.97,5.5-14.71,8.62c-2.03,1.34-3.91,2.73-5.69,4.36c-2.2,2.01-4.32,4.24-7.1,5.51c-0.24,0.11-0.32,0.58,0.03,0.43
		c4.08-1.72,6.93-5.29,10.45-7.8c4.88-3.48,10.33-6.4,15.68-9.15c10.51-5.41,21.51-9.96,32.75-13.78
		c22.79-7.75,46.68-11.77,70.76-13.24C231.6,102.12,232.23,101.15,231.58,101.17z"/>
	<path class="st4" d="M171.01,94.95c-7.32-0.48-14.57-1.03-21.9-0.32c-5.5,0.54-11,1.34-16.36,2.69
		c-10.53,2.64-20.89,8.3-26.17,17.8c-0.04,0.07,0.06,0.12,0.11,0.06c3.35-4.48,7.28-8.15,12.17-11.03
		c4.57-2.69,9.68-4.42,14.83-5.76c5.25-1.36,10.63-2.17,16.02-2.79c7.08-0.81,14.19-0.21,21.3-0.21
		C171.3,95.38,171.3,94.97,171.01,94.95z"/>
	<path class="st1" d="M230.63,64.67c-4.44-2.48-10.37-3.4-15.33-4.49c-5.4-1.18-10.91-1.99-16.43-2.44
		c-12.65-1.04-25.4-0.47-38.06,0.16c-23.44,1.18-48.54,0.54-70.59,9.28c-0.74,0.29-0.48,1.4,0.34,1.19
		c22.12-5.73,45.87-5.05,68.6-6.05c12.14-0.53,24.28-0.89,36.41-0.13c5.9,0.37,11.73,1.24,17.59,1.95
		c5.54,0.67,11.53,2.03,17.09,1.9C230.99,66.02,231.3,65.04,230.63,64.67z"/>
	<path class="st1" d="M240.34,73.47c-0.11-0.32-0.6-0.19-0.52,0.14c4.28,17.05,0.75,35.19-2.54,52.07c-0.13,0.68,0.91,1.23,1.25,0.5
		c3.82-8.24,6.17-16.74,6.79-25.75C245.98,91.01,243.37,82.31,240.34,73.47z"/>
	<path class="st1" d="M177.31,26.22c-20.95-2.99-42.85-1.77-63.74,1.22c-10.3,1.48-20.48,3.72-30.25,7.23
		c-9.69,3.49-17.97,8.23-26.09,14.36c-0.28,0.21,0.08,0.63,0.37,0.47c35.95-19.77,79.46-20.29,119.6-22.54
		C177.62,26.93,177.77,26.29,177.31,26.22z"/>
</g>
</svg>
