<?xml version="1.0" encoding="utf-8"?>
<!-- Generator: Adobe Illustrator 28.4.1, SVG Export Plug-In . SVG Version: 6.00 Build 0)  -->
<svg version="1.1" id="Layer_1" xmlns="http://www.w3.org/2000/svg" xmlns:xlink="http://www.w3.org/1999/xlink" x="0px" y="0px"
	 viewBox="0 0 270.77 286.07" style="enable-background:new 0 0 270.77 286.07;" xml:space="preserve">
<style type="text/css">
	.st0{fill:#FFFFFF;}
	.st1{fill:#F1F1F1;}
	.st2{fill:#E2E2E2;}
	.st3{fill:#D4D4D4;}
	.st4{fill:#C5C5C5;}
	.st5{fill:#B7B7B7;}
	.st6{fill:#A8A8A8;}
	.st7{fill:#9A9A9A;}
	.st8{fill:#8B8B8B;}
	.st9{fill:#7D7D7D;}
	.st10{fill:#6E6E6E;}
	.st11{fill:#606060;}
	.st12{fill:#A8AB9F;}
	.st13{fill:#5E2C00;}
	.st14{fill:#CED0C0;}
	.st15{fill:#E8E6E0;}
	.st16{fill:#F7F3DD;}
	.st17{fill:#8AC643;}
	.st18{fill:#E37C36;}
	.st19{opacity:0.5;fill:#C7D5DB;}
	.st20{opacity:0.5;fill:#DADBDC;}
</style>
<g>
	<g>
		<path class="st0" d="M109.82,108.45c0.12,0.16,0.22,0.33,0.35,0.48c2.32,2.9,5.46,4.96,9,5.98c-5.63,0.19-11.17,0.45-16.57,0.79
			C105.54,113.88,108.08,111.38,109.82,108.45z M30.57,241.7c0.19,7.62,5.09,28.08,25.21,31.41c16.97,5.35,49.21,8.67,84.34,8.67
			c23,0,45.19-1.42,62.47-4c27.14-4.05,32.74-9.36,34.57-11.38c10.14-9.08,10.92-23.06,10.97-24.61l2.54-64.29
			c6.6-1.9,11.05-4.54,13.58-8.02c2.49-3.44,3.12-7.62,1.73-11.44c-2.05-5.66-8.23-9.26-14.09-11.47l0.28-7.19c0-0.06,0-0.13,0-0.19
			c0-0.01,0-0.02,0-0.03c0-0.01,0-0.02,0-0.03c0-7.94-9.04-13.54-28.96-17.69c0.99-1.04,1.91-2.17,2.75-3.36
			c5.1-7.31,11.23-18.7,5.53-33.25c-1-2.55-2.31-4.96-3.91-7.22c1.7-3.64,2.12-7.38,1.23-11.17c1.56-1.1,2.86-2.2,3.81-3.07
			c5.92-5.4,8.34-12.72,6.79-20.6c-0.82-4.22-3.06-8.24-6.47-11.6c-5.47-5.39-13.64-8.74-21.32-8.74c-2.54,0-4.98,0.36-7.23,1.07
			c-7.49,2.38-15.21,7.75-16.62,16.06c-10.32,1.12-19.11,5.28-25,11.91c-4.07,4.58-6.69,9.84-7.57,15.21
			c-0.31,1.88-0.42,3.7-0.52,5.45c-0.1,1.76-0.2,3.42-0.5,4.95c-0.01,0.04-0.02,0.09-0.03,0.13c-0.14,0.57-0.18,1.15-0.11,1.73
			c0.7,6.14,2.86,11.18,6.31,14.8c-0.3,0.96-0.53,1.9-0.68,2.8c-6.76,1.59-12.57,6.15-15.22,12.23c-0.84,1.92-1.19,3.91-1.05,5.82
			c-1.42-0.01-2.83-0.01-4.24-0.01c-2.9,0-5.79,0.03-8.68,0.07c1.56-0.52,3.06-1.22,4.45-2.13c4.67-3.04,7.35-8.4,7.15-14.34
			c-0.2-5.98-3.35-11.4-8.23-14.13c-2.33-1.31-4.86-1.97-7.49-1.97c-6.27,0-12.6,3.96-16.01,9.93c0.03-0.18,0.08-0.37,0.1-0.54
			c0.75-4.68,0-11.17-3.37-15.12c-0.38-0.45-0.8-0.86-1.24-1.24c0.95-3.17,0.84-6.42-0.31-9.71c-0.71-2.03-1.68-3.53-2.72-4.63
			c2.69-13.04-2.58-26.97-9.51-35.57c-6.7-8.31-15.37-11.47-25.61-9.17c-3.73-4.29-8.87-6.61-14.81-6.61
			c-10.18,0-21.27,7.13-26.37,16.95c-6.33,12.17-7.26,23.01-2.84,33.12c2.88,6.58,8.98,13.22,16.7,14.68
			c0.96,4.35,2.99,8.56,5.86,11.98c4.21,5.03,10.41,7.21,17.53,6.17c2.12,4.1,6.18,7,11.01,7.97c0.64,6.8,4.1,13.77,10.17,16.85
			c-7.3,0.72-14.13,1.59-20.28,2.59c-26.62,4.32-38.5,10.32-38.5,19.43c0,0.16,0.01,0.33,0.02,0.5c0,0.08,0,0.16,0,0.24l0.71,16.25
			c-6.28,1.91-14.85,5.75-17.45,12.91c-1.5,4.13-0.82,8.62,1.86,12.32c2.98,4.11,8.59,7.25,17.1,9.53L30.57,241.7z"/>
		<path class="st1" d="M109.41,107.98c0.12,0.16,0.22,0.33,0.35,0.48c2.32,2.9,5.46,4.96,9,5.98c-5.63,0.19-11.17,0.45-16.57,0.79
			C105.13,113.42,107.67,110.91,109.41,107.98z M30.16,241.24c0.18,7.62,5.09,28.08,25.21,31.41c16.97,5.35,49.21,8.67,84.34,8.67
			c23,0,45.19-1.42,62.47-4c27.13-4.05,32.74-9.36,34.57-11.38c10.14-9.08,10.92-23.06,10.97-24.61l2.54-64.29
			c6.6-1.9,11.05-4.54,13.57-8.02c2.49-3.44,3.12-7.62,1.74-11.44c-2.05-5.66-8.23-9.26-14.09-11.47l0.28-7.19c0-0.06,0-0.13,0-0.19
			c0-0.01,0-0.02,0-0.03c0-0.01,0-0.02,0-0.03c0-7.94-9.04-13.54-28.96-17.69c0.99-1.04,1.91-2.16,2.75-3.36
			c5.1-7.31,11.23-18.7,5.53-33.24c-1-2.55-2.31-4.96-3.92-7.22c1.71-3.64,2.12-7.38,1.23-11.17c1.56-1.1,2.86-2.2,3.81-3.07
			c5.92-5.4,8.34-12.72,6.79-20.6c-0.82-4.22-3.06-8.24-6.47-11.6c-5.47-5.39-13.64-8.74-21.32-8.74c-2.55,0-4.98,0.36-7.23,1.07
			c-7.49,2.38-15.21,7.75-16.62,16.06c-10.32,1.12-19.11,5.28-25.01,11.91c-4.07,4.58-6.69,9.84-7.57,15.21
			c-0.31,1.89-0.41,3.7-0.52,5.45c-0.1,1.76-0.2,3.42-0.5,4.95c-0.01,0.04-0.02,0.09-0.03,0.13c-0.14,0.57-0.18,1.15-0.12,1.73
			c0.7,6.14,2.86,11.18,6.31,14.8c-0.31,0.96-0.53,1.9-0.68,2.8c-6.76,1.59-12.57,6.15-15.22,12.23c-0.84,1.92-1.19,3.91-1.05,5.82
			c-1.42-0.01-2.83-0.01-4.24-0.01c-2.9,0-5.8,0.03-8.68,0.07c1.56-0.52,3.06-1.23,4.45-2.13c4.67-3.04,7.35-8.4,7.15-14.34
			c-0.2-5.98-3.35-11.4-8.23-14.13c-2.33-1.31-4.85-1.97-7.5-1.97c-6.27,0-12.6,3.96-16.01,9.93c0.03-0.18,0.08-0.37,0.1-0.54
			c0.75-4.68,0-11.17-3.37-15.12c-0.39-0.45-0.8-0.87-1.24-1.24c0.95-3.17,0.84-6.42-0.31-9.71c-0.71-2.03-1.68-3.53-2.72-4.63
			c2.69-13.04-2.58-26.97-9.51-35.57c-6.7-8.31-15.37-11.47-25.61-9.17c-3.73-4.29-8.87-6.61-14.81-6.61
			c-10.18,0-21.27,7.13-26.37,16.95c-6.33,12.17-7.26,23-2.84,33.12c2.88,6.58,8.98,13.22,16.7,14.68
			c0.96,4.35,2.99,8.56,5.86,11.98c4.21,5.03,10.41,7.21,17.53,6.17c2.12,4.1,6.18,7,11.01,7.97c0.64,6.8,4.1,13.77,10.17,16.85
			c-7.3,0.72-14.13,1.59-20.29,2.59c-26.62,4.32-38.49,10.32-38.49,19.43c0,0.16,0.01,0.33,0.02,0.5c0,0.08,0,0.16,0,0.24l0.7,16.25
			c-6.28,1.91-14.85,5.75-17.45,12.91c-1.5,4.13-0.82,8.62,1.86,12.32c2.98,4.11,8.59,7.25,17.1,9.53L30.16,241.24z"/>
		<path class="st2" d="M108.99,107.52c0.12,0.16,0.22,0.33,0.35,0.48c2.32,2.9,5.46,4.96,9,5.98c-5.63,0.19-11.17,0.45-16.57,0.79
			C104.71,112.95,107.25,110.45,108.99,107.52z M29.74,240.77c0.18,7.62,5.09,28.08,25.21,31.41c16.97,5.35,49.21,8.67,84.34,8.67
			c23,0,45.19-1.42,62.47-4c27.13-4.05,32.74-9.36,34.57-11.38c10.14-9.08,10.92-23.06,10.97-24.61l2.54-64.29
			c6.6-1.9,11.05-4.54,13.58-8.02c2.49-3.44,3.12-7.62,1.73-11.44c-2.05-5.66-8.22-9.26-14.09-11.47l0.28-7.19c0-0.06,0-0.13,0-0.19
			c0-0.01,0-0.02,0-0.03s0-0.02,0-0.03c0-7.94-9.04-13.54-28.96-17.69c0.99-1.04,1.91-2.17,2.75-3.36
			c5.1-7.31,11.23-18.7,5.53-33.25c-1-2.55-2.31-4.96-3.91-7.22c1.71-3.64,2.12-7.38,1.23-11.17c1.56-1.1,2.86-2.2,3.81-3.07
			c5.92-5.4,8.34-12.72,6.79-20.6c-0.82-4.22-3.06-8.24-6.47-11.6c-5.47-5.39-13.64-8.74-21.32-8.74c-2.55,0-4.98,0.36-7.23,1.07
			c-7.49,2.38-15.21,7.75-16.62,16.06c-10.32,1.12-19.11,5.28-25,11.92c-4.07,4.58-6.69,9.83-7.57,15.21
			c-0.31,1.88-0.42,3.7-0.52,5.45c-0.1,1.76-0.2,3.42-0.5,4.95c-0.01,0.04-0.02,0.09-0.03,0.13c-0.14,0.57-0.18,1.15-0.12,1.73
			c0.7,6.14,2.86,11.18,6.31,14.8c-0.31,0.96-0.53,1.9-0.68,2.8c-6.76,1.59-12.57,6.15-15.22,12.23c-0.83,1.92-1.19,3.91-1.05,5.82
			c-1.42-0.01-2.84-0.02-4.24-0.02c-2.9,0-5.8,0.03-8.68,0.07c1.56-0.52,3.06-1.22,4.45-2.13c4.67-3.04,7.35-8.4,7.15-14.34
			c-0.2-5.98-3.35-11.4-8.23-14.13c-2.33-1.31-4.85-1.97-7.49-1.97c-6.27,0-12.6,3.96-16.01,9.93c0.03-0.18,0.08-0.37,0.1-0.54
			c0.75-4.68,0-11.17-3.37-15.12c-0.39-0.45-0.8-0.87-1.24-1.24c0.95-3.17,0.84-6.42-0.31-9.72c-0.71-2.03-1.68-3.53-2.72-4.63
			c2.69-13.04-2.58-26.97-9.51-35.57c-6.7-8.31-15.37-11.47-25.61-9.17c-3.73-4.29-8.87-6.61-14.81-6.61
			c-10.18,0-21.27,7.13-26.37,16.95c-6.33,12.17-7.26,23-2.84,33.12c2.88,6.58,8.98,13.22,16.7,14.68
			c0.96,4.35,2.99,8.56,5.86,11.98c4.21,5.03,10.41,7.21,17.53,6.16c2.12,4.1,6.18,7,11.01,7.97c0.64,6.8,4.1,13.77,10.17,16.85
			c-7.3,0.72-14.13,1.59-20.28,2.59c-26.62,4.32-38.5,10.32-38.5,19.44c0,0.16,0.01,0.33,0.02,0.5c0,0.08,0,0.16,0,0.24l0.7,16.25
			c-6.28,1.91-14.85,5.75-17.45,12.91c-1.5,4.13-0.82,8.62,1.86,12.32c2.98,4.11,8.59,7.25,17.1,9.53L29.74,240.77z"/>
		<path class="st3" d="M108.58,107.05c0.12,0.16,0.22,0.33,0.35,0.48c2.32,2.9,5.46,4.96,9,5.98c-5.63,0.19-11.17,0.45-16.57,0.79
			C104.3,112.49,106.84,109.99,108.58,107.05z M29.33,240.31c0.19,7.62,5.09,28.08,25.21,31.41c16.97,5.35,49.21,8.67,84.34,8.67
			c23,0,45.19-1.42,62.47-4c27.13-4.05,32.74-9.36,34.58-11.38c10.14-9.08,10.92-23.05,10.97-24.61l2.54-64.29
			c6.6-1.9,11.05-4.54,13.57-8.02c2.49-3.44,3.12-7.62,1.74-11.44c-2.05-5.66-8.23-9.26-14.09-11.47l0.28-7.19c0-0.06,0-0.13,0-0.19
			c0-0.01,0-0.02,0-0.03c0-0.01,0-0.02,0-0.03c0-7.94-9.04-13.54-28.96-17.69c0.99-1.04,1.91-2.17,2.75-3.36
			c5.1-7.3,11.22-18.7,5.53-33.25c-1-2.55-2.31-4.96-3.92-7.22c1.71-3.64,2.12-7.38,1.23-11.17c1.56-1.1,2.86-2.2,3.81-3.07
			c5.92-5.4,8.34-12.72,6.79-20.6c-0.82-4.22-3.06-8.24-6.47-11.6c-5.47-5.39-13.64-8.74-21.32-8.74c-2.54,0-4.98,0.36-7.23,1.07
			c-7.49,2.38-15.21,7.75-16.62,16.06c-10.32,1.12-19.11,5.28-25,11.91c-4.07,4.58-6.69,9.84-7.57,15.21
			c-0.31,1.89-0.42,3.7-0.52,5.45c-0.1,1.76-0.2,3.42-0.5,4.95c-0.01,0.04-0.02,0.09-0.03,0.13c-0.13,0.57-0.18,1.15-0.12,1.73
			c0.7,6.14,2.86,11.18,6.31,14.8c-0.31,0.96-0.53,1.9-0.68,2.8c-6.76,1.59-12.57,6.15-15.22,12.23c-0.83,1.92-1.19,3.91-1.05,5.82
			c-1.42-0.01-2.83-0.02-4.24-0.02c-2.9,0-5.8,0.03-8.68,0.07c1.56-0.52,3.06-1.22,4.46-2.13c4.67-3.04,7.35-8.4,7.15-14.34
			c-0.2-5.98-3.35-11.4-8.23-14.13c-2.33-1.31-4.86-1.97-7.5-1.97c-6.27,0-12.6,3.96-16.01,9.93c0.04-0.18,0.08-0.37,0.1-0.54
			c0.74-4.68,0-11.17-3.37-15.12c-0.39-0.45-0.8-0.86-1.24-1.23c0.95-3.17,0.84-6.42-0.31-9.71c-0.71-2.03-1.68-3.53-2.72-4.63
			c2.69-13.04-2.58-26.97-9.51-35.57c-6.71-8.31-15.37-11.47-25.61-9.17c-3.73-4.29-8.87-6.61-14.82-6.61
			c-10.18,0-21.27,7.13-26.37,16.95c-6.33,12.17-7.26,23.01-2.84,33.12c2.88,6.59,8.98,13.22,16.69,14.68
			c0.96,4.35,3,8.56,5.86,11.98c4.21,5.03,10.41,7.21,17.53,6.17c2.12,4.11,6.18,7,11.01,7.97c0.64,6.8,4.1,13.77,10.17,16.85
			c-7.3,0.72-14.13,1.59-20.28,2.59c-26.62,4.32-38.49,10.32-38.49,19.44c0,0.16,0,0.33,0.02,0.5c0,0.08,0,0.16,0,0.24l0.7,16.25
			c-6.28,1.91-14.85,5.75-17.45,12.91c-1.5,4.13-0.82,8.62,1.86,12.32c2.98,4.11,8.59,7.25,17.1,9.53L29.33,240.31z"/>
		<path class="st4" d="M108.16,106.59c0.12,0.16,0.22,0.33,0.35,0.48c2.32,2.9,5.46,4.96,9,5.98c-5.63,0.19-11.17,0.45-16.57,0.79
			C103.88,112.03,106.42,109.52,108.16,106.59z M28.91,239.84c0.18,7.62,5.09,28.08,25.21,31.41c16.97,5.35,49.21,8.67,84.34,8.67
			c23,0,45.19-1.42,62.47-4c27.13-4.05,32.74-9.36,34.57-11.38c10.14-9.08,10.92-23.06,10.97-24.61l2.54-64.29
			c6.6-1.9,11.05-4.54,13.57-8.02c2.49-3.44,3.13-7.62,1.74-11.44c-2.05-5.66-8.22-9.26-14.09-11.47l0.28-7.19c0-0.06,0-0.13,0-0.19
			c0-0.01,0-0.02,0-0.03c0-0.01,0-0.02,0-0.03c0-7.94-9.04-13.54-28.96-17.69c0.99-1.04,1.91-2.17,2.75-3.36
			c5.1-7.31,11.23-18.7,5.53-33.25c-1-2.55-2.31-4.96-3.91-7.22c1.71-3.64,2.12-7.38,1.23-11.17c1.56-1.1,2.86-2.2,3.81-3.07
			c5.92-5.4,8.34-12.72,6.79-20.6c-0.82-4.22-3.06-8.24-6.47-11.6c-5.47-5.39-13.64-8.74-21.32-8.74c-2.54,0-4.98,0.36-7.23,1.07
			c-7.49,2.38-15.21,7.75-16.62,16.06c-10.32,1.12-19.11,5.28-25,11.91c-4.07,4.58-6.69,9.84-7.57,15.21
			c-0.31,1.88-0.42,3.7-0.52,5.45c-0.1,1.76-0.2,3.42-0.5,4.95c-0.01,0.04-0.02,0.09-0.03,0.13c-0.14,0.57-0.18,1.15-0.11,1.73
			c0.7,6.14,2.86,11.18,6.31,14.8c-0.3,0.96-0.53,1.9-0.68,2.8c-6.76,1.59-12.57,6.15-15.22,12.23c-0.83,1.92-1.19,3.91-1.05,5.82
			c-1.42-0.01-2.83-0.01-4.24-0.01c-2.9,0-5.79,0.03-8.68,0.07c1.56-0.52,3.06-1.23,4.45-2.13c4.67-3.04,7.35-8.4,7.15-14.34
			c-0.2-5.98-3.35-11.4-8.23-14.13c-2.33-1.31-4.85-1.97-7.49-1.97c-6.27,0-12.6,3.96-16.01,9.93c0.03-0.18,0.08-0.37,0.1-0.54
			c0.74-4.68,0-11.17-3.37-15.12c-0.39-0.45-0.8-0.87-1.24-1.24c0.95-3.17,0.84-6.42-0.31-9.71c-0.71-2.03-1.68-3.53-2.72-4.63
			c2.69-13.04-2.58-26.97-9.51-35.57c-6.71-8.31-15.37-11.47-25.61-9.17c-3.73-4.29-8.87-6.61-14.82-6.61
			c-10.18,0-21.27,7.13-26.37,16.95c-6.33,12.17-7.26,23.01-2.84,33.12c2.88,6.58,8.98,13.22,16.69,14.68
			c0.96,4.35,3,8.56,5.86,11.98c4.21,5.03,10.41,7.21,17.53,6.17c2.12,4.1,6.18,7,11.01,7.97c0.64,6.8,4.1,13.77,10.17,16.85
			c-7.3,0.72-14.13,1.59-20.28,2.59c-26.62,4.32-38.5,10.32-38.5,19.43c0,0.16,0,0.33,0.02,0.5c0,0.08,0,0.16,0,0.24l0.71,16.25
			c-6.28,1.91-14.85,5.75-17.45,12.91c-1.5,4.13-0.82,8.62,1.86,12.32c2.98,4.12,8.59,7.25,17.1,9.53L28.91,239.84z"/>
		<path class="st5" d="M107.75,106.12c0.12,0.16,0.22,0.33,0.35,0.48c2.32,2.9,5.46,4.96,9,5.98c-5.63,0.19-11.17,0.45-16.57,0.79
			C103.47,111.56,106.01,109.06,107.75,106.12z M28.5,239.38c0.18,7.62,5.09,28.08,25.21,31.41c16.97,5.35,49.21,8.67,84.34,8.67
			c23,0,45.19-1.42,62.47-4c27.14-4.05,32.74-9.36,34.57-11.38c10.14-9.08,10.92-23.06,10.97-24.61l2.53-64.29
			c6.59-1.9,11.05-4.54,13.58-8.02c2.49-3.44,3.12-7.62,1.74-11.44c-2.05-5.66-8.23-9.26-14.09-11.47l0.28-7.19
			c0-0.06,0-0.13,0-0.19c0-0.01,0-0.02,0-0.03c0-0.01,0-0.02,0-0.03c0-7.94-9.04-13.54-28.96-17.69c0.99-1.04,1.91-2.17,2.75-3.36
			c5.1-7.31,11.23-18.7,5.53-33.25c-1-2.55-2.31-4.96-3.91-7.22c1.71-3.64,2.12-7.38,1.23-11.17c1.56-1.1,2.86-2.2,3.81-3.07
			c5.93-5.4,8.34-12.72,6.79-20.6c-0.82-4.23-3.06-8.24-6.47-11.6c-5.47-5.39-13.64-8.74-21.32-8.74c-2.54,0-4.98,0.36-7.23,1.07
			c-7.49,2.38-15.21,7.75-16.62,16.06c-10.32,1.12-19.11,5.28-25,11.92c-4.07,4.58-6.69,9.83-7.57,15.21
			c-0.31,1.89-0.42,3.7-0.52,5.45c-0.1,1.76-0.2,3.42-0.5,4.95c-0.01,0.04-0.02,0.09-0.03,0.13c-0.14,0.57-0.18,1.15-0.11,1.73
			c0.7,6.14,2.86,11.18,6.31,14.8c-0.3,0.96-0.53,1.9-0.68,2.8c-6.76,1.59-12.58,6.15-15.22,12.23c-0.84,1.92-1.19,3.91-1.06,5.82
			c-1.42-0.01-2.83-0.01-4.24-0.01c-2.9,0-5.79,0.03-8.68,0.07c1.56-0.52,3.06-1.22,4.45-2.13c4.67-3.04,7.35-8.4,7.15-14.34
			c-0.2-5.98-3.35-11.4-8.23-14.13c-2.33-1.31-4.85-1.97-7.49-1.97c-6.27,0-12.6,3.96-16.01,9.93c0.03-0.18,0.08-0.37,0.1-0.54
			c0.74-4.68,0-11.17-3.37-15.12c-0.39-0.45-0.8-0.87-1.24-1.24c0.95-3.17,0.84-6.42-0.31-9.71c-0.71-2.03-1.68-3.53-2.72-4.63
			c2.69-13.04-2.58-26.97-9.51-35.57c-6.71-8.31-15.37-11.47-25.61-9.17c-3.73-4.29-8.87-6.61-14.81-6.61
			c-10.18,0-21.27,7.13-26.37,16.95c-6.33,12.17-7.26,23-2.84,33.12c2.88,6.58,8.98,13.22,16.7,14.68
			c0.96,4.35,2.99,8.56,5.86,11.98c4.21,5.03,10.41,7.21,17.53,6.16c2.12,4.1,6.18,7,11.01,7.97c0.64,6.8,4.1,13.77,10.17,16.85
			c-7.3,0.72-14.13,1.59-20.28,2.59c-26.62,4.32-38.5,10.32-38.5,19.43c0,0.16,0.01,0.33,0.02,0.5c0,0.08,0,0.16,0,0.24l0.7,16.25
			c-6.28,1.91-14.85,5.75-17.45,12.91c-1.5,4.13-0.82,8.62,1.86,12.32c2.98,4.11,8.59,7.25,17.1,9.53L28.5,239.38z"/>
		<path class="st6" d="M107.33,105.66c0.12,0.16,0.22,0.33,0.35,0.48c2.32,2.9,5.46,4.96,9,5.98c-5.63,0.19-11.17,0.45-16.57,0.79
			C103.05,111.1,105.59,108.59,107.33,105.66z M28.08,238.91c0.19,7.62,5.09,28.08,25.21,31.41c16.97,5.35,49.21,8.67,84.34,8.67
			c23,0,45.19-1.42,62.47-4c27.14-4.05,32.74-9.36,34.58-11.38c10.14-9.08,10.92-23.05,10.97-24.61l2.53-64.29
			c6.6-1.9,11.05-4.54,13.58-8.02c2.49-3.44,3.13-7.62,1.74-11.44c-2.05-5.66-8.23-9.26-14.09-11.47l0.28-7.19c0-0.06,0-0.13,0-0.19
			c0-0.01,0-0.02,0-0.02c0-0.01,0-0.02,0-0.03c0-7.94-9.04-13.54-28.96-17.69c0.99-1.04,1.91-2.17,2.75-3.36
			c5.1-7.31,11.22-18.7,5.53-33.25c-1-2.55-2.31-4.96-3.91-7.22c1.71-3.64,2.12-7.38,1.23-11.17c1.56-1.1,2.86-2.2,3.81-3.07
			c5.92-5.4,8.34-12.72,6.79-20.6c-0.82-4.22-3.06-8.23-6.47-11.6c-5.47-5.39-13.64-8.74-21.32-8.74c-2.54,0-4.97,0.36-7.23,1.07
			c-7.49,2.38-15.21,7.75-16.62,16.06c-10.32,1.12-19.11,5.28-25,11.91c-4.07,4.58-6.69,9.84-7.57,15.21
			c-0.31,1.88-0.42,3.7-0.52,5.45c-0.1,1.76-0.2,3.42-0.5,4.95c-0.01,0.04-0.02,0.09-0.03,0.13c-0.13,0.57-0.18,1.15-0.12,1.73
			c0.7,6.14,2.86,11.18,6.31,14.8c-0.3,0.96-0.53,1.9-0.68,2.8c-6.76,1.59-12.57,6.15-15.22,12.23c-0.84,1.92-1.19,3.91-1.06,5.82
			c-1.42-0.01-2.83-0.02-4.24-0.02c-2.9,0-5.79,0.03-8.68,0.07c1.56-0.52,3.06-1.22,4.45-2.13c4.67-3.04,7.35-8.4,7.15-14.34
			c-0.2-5.98-3.35-11.4-8.23-14.13c-2.34-1.31-4.86-1.97-7.5-1.97c-6.27,0-12.6,3.96-16.01,9.93c0.03-0.18,0.08-0.37,0.1-0.54
			c0.74-4.68,0-11.17-3.37-15.12c-0.39-0.45-0.8-0.86-1.24-1.23c0.95-3.17,0.84-6.42-0.31-9.72c-0.71-2.03-1.68-3.53-2.72-4.63
			C103,44.93,97.73,31,90.8,22.4c-6.71-8.31-15.37-11.47-25.61-9.17c-3.73-4.29-8.87-6.61-14.82-6.61
			C40.19,6.61,29.1,13.74,24,23.56c-6.33,12.17-7.26,23-2.84,33.12c2.88,6.58,8.98,13.22,16.7,14.68c0.96,4.35,3,8.56,5.86,11.98
			c4.21,5.03,10.41,7.21,17.53,6.17c2.12,4.1,6.18,7,11.01,7.97c0.64,6.8,4.1,13.77,10.17,16.85c-7.3,0.72-14.13,1.59-20.28,2.59
			c-26.62,4.32-38.5,10.32-38.5,19.44c0,0.16,0.01,0.33,0.02,0.5c0,0.08,0,0.16,0,0.24l0.7,16.25c-6.28,1.91-14.85,5.75-17.45,12.91
			c-1.5,4.13-0.82,8.62,1.86,12.32c2.98,4.11,8.59,7.25,17.1,9.53L28.08,238.91z"/>
		<path class="st7" d="M106.92,105.19c0.12,0.16,0.22,0.33,0.35,0.48c2.32,2.9,5.46,4.96,9,5.98c-5.63,0.19-11.17,0.45-16.57,0.79
			C102.64,110.63,105.18,108.13,106.92,105.19z M27.67,238.45c0.19,7.62,5.09,28.08,25.21,31.41c16.97,5.35,49.21,8.67,84.34,8.67
			c23,0,45.19-1.42,62.47-4c27.14-4.05,32.74-9.36,34.58-11.38c10.14-9.08,10.92-23.06,10.97-24.61l2.54-64.29
			c6.59-1.9,11.05-4.54,13.57-8.02c2.49-3.44,3.12-7.62,1.74-11.44c-2.05-5.66-8.23-9.26-14.09-11.47l0.28-7.19
			c0-0.06,0-0.13,0-0.19c0-0.01,0-0.02,0-0.03c0-0.01,0-0.02,0-0.03c0-7.94-9.04-13.54-28.96-17.69c0.99-1.04,1.91-2.17,2.75-3.36
			c5.1-7.31,11.23-18.7,5.53-33.25c-1-2.55-2.31-4.96-3.91-7.22c1.71-3.64,2.12-7.38,1.23-11.17c1.56-1.1,2.86-2.2,3.81-3.07
			c5.92-5.4,8.34-12.72,6.79-20.6c-0.82-4.22-3.06-8.24-6.46-11.6c-5.47-5.39-13.64-8.74-21.32-8.74c-2.54,0-4.98,0.36-7.23,1.07
			c-7.49,2.38-15.21,7.75-16.62,16.06c-10.32,1.12-19.11,5.28-25,11.91c-4.07,4.58-6.69,9.84-7.57,15.21
			c-0.31,1.88-0.42,3.7-0.52,5.45c-0.1,1.76-0.2,3.42-0.5,4.95c-0.01,0.04-0.02,0.09-0.03,0.13c-0.13,0.57-0.18,1.15-0.12,1.73
			c0.7,6.14,2.86,11.18,6.31,14.8c-0.3,0.96-0.53,1.9-0.68,2.8c-6.76,1.59-12.57,6.15-15.22,12.23c-0.84,1.92-1.19,3.91-1.06,5.82
			c-1.42-0.01-2.83-0.01-4.24-0.01c-2.9,0-5.79,0.03-8.68,0.07c1.56-0.52,3.06-1.22,4.46-2.13c4.67-3.04,7.35-8.4,7.15-14.34
			c-0.2-5.98-3.35-11.4-8.23-14.13c-2.33-1.31-4.86-1.97-7.49-1.97c-6.27,0-12.6,3.96-16.01,9.93c0.03-0.18,0.08-0.37,0.1-0.54
			c0.75-4.68,0-11.17-3.37-15.12c-0.38-0.45-0.8-0.87-1.24-1.24c0.95-3.17,0.84-6.42-0.31-9.71c-0.71-2.03-1.68-3.53-2.72-4.63
			c2.69-13.04-2.58-26.97-9.51-35.57c-6.7-8.31-15.37-11.47-25.61-9.17c-3.73-4.29-8.87-6.61-14.81-6.61
			c-10.18,0-21.27,7.13-26.37,16.95c-6.33,12.17-7.26,23.01-2.84,33.12c2.88,6.58,8.98,13.22,16.7,14.68
			c0.96,4.35,2.99,8.56,5.86,11.98c4.21,5.03,10.41,7.21,17.53,6.17c2.12,4.1,6.18,7,11.01,7.97c0.64,6.8,4.1,13.77,10.17,16.85
			c-7.3,0.72-14.13,1.59-20.28,2.59c-26.62,4.32-38.5,10.32-38.5,19.43c0,0.16,0.01,0.33,0.02,0.5c0,0.08,0,0.16,0,0.24l0.71,16.25
			c-6.28,1.91-14.85,5.75-17.45,12.91c-1.5,4.13-0.82,8.62,1.86,12.32c2.98,4.11,8.59,7.25,17.1,9.53L27.67,238.45z"/>
		<path class="st8" d="M106.5,104.73c0.12,0.16,0.22,0.33,0.35,0.48c2.32,2.9,5.46,4.96,9,5.98c-5.63,0.19-11.17,0.45-16.57,0.79
			C102.22,110.17,104.77,107.66,106.5,104.73z M27.25,237.99c0.18,7.62,5.09,28.08,25.21,31.41c16.97,5.35,49.21,8.67,84.34,8.67
			c23,0,45.19-1.42,62.47-4c27.13-4.05,32.74-9.36,34.58-11.38c10.14-9.08,10.92-23.05,10.97-24.61l2.54-64.29
			c6.6-1.9,11.05-4.54,13.58-8.02c2.49-3.44,3.12-7.62,1.74-11.44c-2.05-5.66-8.23-9.26-14.09-11.47l0.28-7.19c0-0.06,0-0.13,0-0.19
			c0-0.01,0-0.02,0-0.03c0-0.01,0-0.02,0-0.03c0-7.94-9.04-13.54-28.96-17.69c0.99-1.04,1.91-2.17,2.75-3.36
			c5.1-7.31,11.23-18.7,5.53-33.25c-1-2.55-2.31-4.96-3.91-7.22c1.71-3.64,2.12-7.38,1.23-11.17c1.56-1.1,2.86-2.2,3.81-3.07
			c5.92-5.4,8.34-12.72,6.79-20.6c-0.82-4.22-3.06-8.24-6.47-11.6c-5.47-5.39-13.64-8.74-21.32-8.74c-2.55,0-4.98,0.36-7.23,1.07
			c-7.49,2.38-15.21,7.75-16.62,16.06c-10.32,1.12-19.11,5.28-25,11.92c-4.07,4.58-6.69,9.84-7.57,15.21
			c-0.31,1.89-0.41,3.7-0.52,5.45c-0.1,1.76-0.2,3.42-0.5,4.95c-0.01,0.04-0.02,0.09-0.03,0.13c-0.14,0.57-0.18,1.15-0.12,1.73
			c0.7,6.14,2.86,11.18,6.31,14.8c-0.31,0.96-0.53,1.9-0.68,2.8c-6.76,1.59-12.57,6.15-15.22,12.23c-0.84,1.92-1.19,3.91-1.06,5.82
			c-1.42-0.01-2.83-0.01-4.24-0.01c-2.9,0-5.8,0.03-8.68,0.07c1.56-0.52,3.06-1.22,4.45-2.13c4.67-3.04,7.35-8.4,7.15-14.34
			c-0.2-5.98-3.35-11.4-8.23-14.13c-2.33-1.31-4.86-1.97-7.5-1.97c-6.27,0-12.6,3.96-16.01,9.93c0.04-0.18,0.08-0.37,0.1-0.54
			c0.74-4.68,0-11.17-3.37-15.12c-0.39-0.45-0.8-0.87-1.24-1.23c0.95-3.17,0.84-6.42-0.31-9.71c-0.71-2.03-1.68-3.53-2.72-4.63
			c2.69-13.04-2.58-26.97-9.51-35.57C83.27,13.16,74.6,10,64.36,12.29C60.63,8,55.49,5.68,49.54,5.68
			c-10.18,0-21.27,7.13-26.37,16.95c-6.33,12.17-7.26,23-2.84,33.12c2.88,6.59,8.98,13.22,16.7,14.68c0.96,4.35,3,8.56,5.86,11.98
			c4.21,5.03,10.41,7.21,17.53,6.17c2.12,4.11,6.18,7,11.01,7.97c0.64,6.8,4.1,13.77,10.17,16.85c-7.3,0.72-14.13,1.59-20.28,2.59
			c-26.62,4.32-38.5,10.32-38.5,19.43c0,0.16,0.01,0.33,0.02,0.5c0,0.08,0,0.16,0,0.24l0.71,16.25
			c-6.28,1.91-14.85,5.75-17.45,12.91c-1.5,4.13-0.82,8.62,1.86,12.32c2.98,4.11,8.59,7.25,17.1,9.53L27.25,237.99z"/>
		<path class="st9" d="M106.09,104.26c0.12,0.16,0.22,0.33,0.35,0.48c2.32,2.9,5.46,4.96,9,5.98c-5.63,0.19-11.17,0.45-16.57,0.79
			C101.81,109.7,104.35,107.2,106.09,104.26z M26.84,237.52c0.18,7.62,5.09,28.08,25.21,31.41c16.97,5.35,49.21,8.67,84.34,8.67
			c23,0,45.19-1.42,62.47-4c27.13-4.05,32.74-9.36,34.57-11.38c10.14-9.08,10.92-23.06,10.97-24.61l2.54-64.29
			c6.6-1.9,11.05-4.54,13.58-8.02c2.49-3.44,3.12-7.62,1.73-11.44c-2.05-5.66-8.22-9.26-14.09-11.47l0.28-7.19c0-0.06,0-0.13,0-0.19
			c0-0.01,0-0.02,0-0.03c0-0.01,0-0.02,0-0.03c0-7.94-9.04-13.54-28.96-17.69c0.99-1.04,1.91-2.17,2.75-3.36
			c5.1-7.31,11.23-18.7,5.53-33.25c-1-2.55-2.31-4.96-3.91-7.22c1.71-3.64,2.12-7.38,1.23-11.17c1.56-1.1,2.86-2.2,3.81-3.07
			c5.92-5.4,8.34-12.72,6.79-20.6c-0.82-4.22-3.06-8.24-6.47-11.6c-5.47-5.39-13.64-8.74-21.32-8.74c-2.55,0-4.98,0.36-7.23,1.07
			c-7.49,2.38-15.21,7.75-16.62,16.06c-10.32,1.12-19.11,5.28-25,11.92c-4.07,4.58-6.69,9.83-7.57,15.21
			c-0.31,1.88-0.42,3.7-0.52,5.45c-0.1,1.76-0.2,3.42-0.5,4.95c-0.01,0.04-0.02,0.09-0.03,0.13c-0.14,0.57-0.18,1.15-0.12,1.73
			c0.7,6.14,2.86,11.18,6.31,14.8c-0.31,0.96-0.53,1.9-0.68,2.8c-6.76,1.59-12.57,6.15-15.22,12.23c-0.83,1.92-1.19,3.91-1.05,5.82
			c-1.42-0.01-2.83-0.02-4.24-0.02c-2.9,0-5.8,0.03-8.68,0.07c1.56-0.52,3.06-1.22,4.45-2.13c4.67-3.04,7.35-8.4,7.15-14.34
			c-0.2-5.98-3.35-11.4-8.23-14.13c-2.33-1.31-4.85-1.97-7.49-1.97c-6.27,0-12.6,3.96-16.01,9.93c0.03-0.18,0.08-0.37,0.1-0.54
			c0.75-4.68,0-11.17-3.37-15.12c-0.39-0.45-0.8-0.87-1.24-1.24c0.95-3.17,0.84-6.42-0.31-9.72c-0.71-2.03-1.68-3.53-2.72-4.63
			c2.69-13.04-2.58-26.97-9.51-35.57c-6.7-8.31-15.37-11.47-25.61-9.17c-3.73-4.29-8.87-6.61-14.81-6.61
			c-10.18,0-21.27,7.13-26.37,16.95c-6.33,12.17-7.26,23-2.84,33.12c2.88,6.58,8.98,13.22,16.7,14.68
			c0.96,4.35,2.99,8.56,5.86,11.98c4.21,5.03,10.41,7.21,17.53,6.16c2.12,4.1,6.18,7,11.01,7.97c0.64,6.8,4.1,13.77,10.17,16.85
			c-7.3,0.72-14.13,1.59-20.28,2.59c-26.62,4.32-38.5,10.32-38.5,19.44c0,0.16,0.01,0.33,0.02,0.5c0,0.08,0,0.16,0,0.24l0.7,16.25
			c-6.28,1.91-14.85,5.75-17.45,12.91c-1.5,4.13-0.82,8.62,1.86,12.32c2.98,4.11,8.59,7.25,17.1,9.53L26.84,237.52z"/>
		<path class="st10" d="M105.67,103.8c0.11,0.16,0.22,0.33,0.35,0.48c2.32,2.9,5.46,4.96,9,5.98c-5.63,0.18-11.17,0.45-16.57,0.79
			C101.39,109.24,103.93,106.73,105.67,103.8z M26.42,237.06c0.18,7.62,5.09,28.08,25.21,31.41c16.97,5.35,49.21,8.67,84.34,8.67
			c23,0,45.19-1.42,62.47-4c27.13-4.05,32.74-9.36,34.57-11.38c10.14-9.08,10.92-23.06,10.97-24.61l2.54-64.29
			c6.6-1.9,11.05-4.54,13.58-8.02c2.49-3.44,3.12-7.62,1.73-11.44c-2.05-5.66-8.22-9.26-14.09-11.47l0.28-7.19c0-0.06,0-0.13,0-0.19
			c0-0.01,0-0.02,0-0.03c0-0.01,0-0.02,0-0.03c0-7.94-9.04-13.54-28.96-17.69c0.99-1.04,1.91-2.17,2.75-3.36
			c5.1-7.31,11.23-18.7,5.53-33.24c-1-2.55-2.31-4.96-3.91-7.22c1.71-3.64,2.12-7.38,1.23-11.17c1.56-1.1,2.86-2.2,3.81-3.07
			c5.92-5.4,8.34-12.72,6.79-20.6c-0.82-4.22-3.06-8.24-6.47-11.6c-5.47-5.39-13.64-8.74-21.32-8.74c-2.55,0-4.98,0.36-7.23,1.08
			c-7.49,2.38-15.21,7.75-16.62,16.06c-10.32,1.12-19.11,5.28-25,11.91c-4.07,4.58-6.69,9.83-7.57,15.21
			c-0.31,1.88-0.41,3.7-0.52,5.45c-0.1,1.76-0.2,3.42-0.5,4.95c-0.01,0.04-0.02,0.09-0.04,0.13c-0.14,0.57-0.18,1.15-0.11,1.73
			c0.7,6.14,2.86,11.18,6.31,14.8c-0.31,0.96-0.53,1.9-0.68,2.8c-6.76,1.59-12.57,6.15-15.22,12.23c-0.83,1.92-1.19,3.91-1.05,5.82
			c-1.42-0.01-2.83-0.02-4.24-0.02c-2.9,0-5.8,0.03-8.68,0.07c1.56-0.52,3.06-1.22,4.45-2.13c4.67-3.04,7.35-8.4,7.15-14.34
			c-0.2-5.98-3.35-11.4-8.23-14.13c-2.33-1.31-4.85-1.97-7.49-1.97c-6.27,0-12.6,3.96-16.01,9.93c0.03-0.18,0.08-0.37,0.1-0.54
			c0.75-4.68,0-11.17-3.37-15.13c-0.39-0.45-0.8-0.86-1.24-1.24c0.95-3.17,0.84-6.42-0.31-9.71c-0.71-2.03-1.68-3.53-2.72-4.63
			c2.69-13.04-2.58-26.97-9.51-35.57c-6.7-8.31-15.37-11.47-25.61-9.17c-3.73-4.29-8.87-6.61-14.81-6.61
			c-10.18,0-21.27,7.13-26.37,16.95c-6.33,12.17-7.26,23-2.84,33.12c2.88,6.58,8.98,13.22,16.69,14.68
			c0.96,4.35,2.99,8.56,5.86,11.98c4.21,5.03,10.41,7.21,17.53,6.17c2.12,4.1,6.18,7,11.01,7.97c0.64,6.8,4.1,13.77,10.17,16.85
			c-7.3,0.72-14.13,1.59-20.29,2.59c-26.62,4.32-38.49,10.32-38.49,19.44c0,0.16,0.01,0.33,0.02,0.5c0,0.08,0,0.16,0,0.24l0.7,16.25
			c-6.28,1.91-14.85,5.75-17.45,12.91c-1.5,4.13-0.82,8.62,1.86,12.32c2.98,4.11,8.59,7.25,17.1,9.53L26.42,237.06z"/>
		<path class="st11" d="M105.26,103.33c0.12,0.16,0.22,0.33,0.35,0.48c2.32,2.9,5.46,4.96,9,5.98c-5.63,0.19-11.17,0.45-16.57,0.79
			C100.98,108.77,103.52,106.27,105.26,103.33z M26.01,236.59c0.18,7.62,5.09,28.08,25.21,31.41c16.97,5.35,49.21,8.67,84.34,8.67
			c23,0,45.19-1.42,62.47-4c27.14-4.05,32.74-9.36,34.57-11.38c10.14-9.08,10.92-23.06,10.97-24.61l2.53-64.29
			c6.6-1.9,11.05-4.54,13.58-8.02c2.49-3.44,3.12-7.62,1.73-11.44c-2.05-5.66-8.22-9.26-14.09-11.47l0.28-7.19c0-0.06,0-0.13,0-0.19
			c0-0.01,0-0.02,0-0.03c0-0.01,0-0.02,0-0.03c0-7.94-9.04-13.54-28.96-17.69c0.99-1.04,1.91-2.17,2.75-3.36
			c5.1-7.31,11.23-18.7,5.53-33.25c-1-2.55-2.31-4.96-3.91-7.22c1.71-3.64,2.12-7.38,1.23-11.17c1.56-1.1,2.86-2.2,3.81-3.07
			c5.92-5.4,8.34-12.72,6.79-20.6c-0.82-4.22-3.06-8.24-6.47-11.6c-5.47-5.39-13.64-8.74-21.32-8.74c-2.54,0-4.98,0.36-7.23,1.07
			c-7.49,2.38-15.21,7.75-16.62,16.06c-10.32,1.12-19.11,5.28-25,11.91c-4.07,4.58-6.69,9.84-7.57,15.21
			c-0.31,1.88-0.42,3.7-0.52,5.45c-0.1,1.76-0.2,3.42-0.5,4.95c-0.01,0.04-0.02,0.09-0.03,0.13c-0.14,0.57-0.18,1.15-0.11,1.73
			c0.7,6.14,2.86,11.18,6.31,14.8c-0.3,0.96-0.53,1.9-0.68,2.8c-6.76,1.59-12.57,6.15-15.22,12.23c-0.83,1.92-1.19,3.91-1.05,5.82
			c-1.42-0.01-2.83-0.01-4.24-0.01c-2.9,0-5.79,0.03-8.68,0.07c1.56-0.52,3.06-1.23,4.45-2.13c4.67-3.04,7.35-8.4,7.15-14.34
			c-0.2-5.98-3.35-11.4-8.23-14.13c-2.33-1.31-4.85-1.97-7.49-1.97c-6.27,0-12.6,3.96-16.01,9.93c0.03-0.18,0.08-0.37,0.1-0.54
			c0.75-4.68,0-11.17-3.37-15.12c-0.39-0.45-0.8-0.87-1.24-1.24c0.95-3.17,0.84-6.42-0.31-9.71c-0.71-2.03-1.68-3.53-2.72-4.63
			c2.69-13.04-2.58-26.97-9.51-35.57c-6.7-8.31-15.37-11.47-25.61-9.17c-3.73-4.29-8.87-6.61-14.81-6.61
			c-10.18,0-21.27,7.13-26.37,16.95c-6.33,12.17-7.26,23.01-2.84,33.12c2.88,6.59,8.98,13.22,16.7,14.68
			c0.96,4.35,3,8.56,5.86,11.98c4.21,5.03,10.41,7.21,17.53,6.17c2.12,4.1,6.18,7,11.01,7.97c0.64,6.8,4.1,13.77,10.17,16.85
			c-7.3,0.72-14.13,1.59-20.28,2.59c-26.62,4.32-38.5,10.32-38.5,19.43c0,0.16,0.01,0.33,0.02,0.5c0,0.08,0,0.16,0,0.24l0.71,16.25
			c-6.28,1.91-14.85,5.75-17.45,12.91c-1.5,4.13-0.82,8.62,1.86,12.32c2.98,4.11,8.59,7.25,17.1,9.53L26.01,236.59z"/>
	</g>
	<path class="st0" d="M26.01,236.59c0.18,7.62,5.09,28.08,25.21,31.41c16.97,5.35,49.21,8.67,84.34,8.67c23,0,45.19-1.42,62.47-4
		c27.14-4.05,32.74-9.36,34.57-11.38c10.14-9.08,10.92-23.06,10.97-24.61l2.53-64.29c6.6-1.9,11.05-4.54,13.58-8.02
		c2.49-3.44,3.12-7.62,1.73-11.44c-2.05-5.66-8.22-9.26-14.09-11.47l0.28-7.19c0-0.06,0-0.13,0-0.19c0-0.01,0-0.02,0-0.03
		c0-0.01,0-0.02,0-0.03c0-7.94-9.04-13.54-28.96-17.69c0.99-1.04,1.91-2.17,2.75-3.36c5.1-7.31,11.23-18.7,5.53-33.25
		c-1-2.55-2.31-4.96-3.91-7.22c1.71-3.64,2.12-7.38,1.23-11.17c1.56-1.1,2.86-2.2,3.81-3.07c5.92-5.4,8.34-12.72,6.79-20.6
		c-0.82-4.22-3.06-8.24-6.47-11.6c-5.47-5.39-13.64-8.74-21.32-8.74c-2.54,0-4.98,0.36-7.23,1.07c-7.49,2.38-15.21,7.75-16.62,16.06
		c-10.32,1.12-19.11,5.28-25,11.91c-4.07,4.58-6.69,9.84-7.57,15.21c-0.31,1.88-0.42,3.7-0.52,5.45c-0.1,1.76-0.2,3.42-0.5,4.95
		c-0.01,0.04-0.02,0.09-0.03,0.13c-0.14,0.57-0.18,1.15-0.11,1.73c0.7,6.14,2.86,11.18,6.31,14.8c-0.3,0.96-0.53,1.9-0.68,2.8
		c-6.76,1.59-12.57,6.15-15.22,12.23c-0.83,1.92-1.19,3.91-1.05,5.82c-1.42-0.01-2.83-0.01-4.24-0.01c-2.9,0-5.79,0.03-8.68,0.07
		c1.56-0.52,3.06-1.23,4.45-2.13c4.67-3.04,7.35-8.4,7.15-14.34c-0.2-5.98-3.35-11.4-8.23-14.13c-2.33-1.31-4.85-1.97-7.49-1.97
		c-6.27,0-12.6,3.96-16.01,9.93c0.03-0.18,0.08-0.37,0.1-0.54c0.75-4.68,0-11.17-3.37-15.12c-0.39-0.45-0.8-0.87-1.24-1.24
		c0.95-3.17,0.84-6.42-0.31-9.71c-0.71-2.03-1.68-3.53-2.72-4.63c2.69-13.04-2.58-26.97-9.51-35.57
		c-6.7-8.31-15.37-11.47-25.61-9.17c-3.73-4.29-8.87-6.61-14.81-6.61c-10.18,0-21.27,7.13-26.37,16.95
		c-6.33,12.17-7.26,23.01-2.84,33.12c2.88,6.59,8.98,13.22,16.7,14.68c0.96,4.35,3,8.56,5.86,11.98c4.21,5.03,10.41,7.21,17.53,6.17
		c2.12,4.1,6.18,7,11.01,7.97c0.64,6.8,4.1,13.77,10.17,16.85c-7.3,0.72-14.13,1.59-20.28,2.59c-26.62,4.32-38.5,10.32-38.5,19.43
		c0,0.16,0.01,0.33,0.02,0.5c0,0.08,0,0.16,0,0.24l0.71,16.25c-6.28,1.91-14.85,5.75-17.45,12.91c-1.5,4.13-0.82,8.62,1.86,12.32
		c2.98,4.11,8.59,7.25,17.1,9.53L26.01,236.59z M105.26,103.33c0.12,0.16,0.22,0.33,0.35,0.48c2.32,2.9,5.46,4.96,9,5.98
		c-5.63,0.19-11.17,0.45-16.57,0.79C100.98,108.77,103.52,106.27,105.26,103.33z"/>
	<g>
		<g>
			<g>
				<path class="st12" d="M220.03,171.83c-1.78,0-3.86-0.5-6.2-1.78c-1.07-0.59-2-1.11-2.82-1.58c-4.23-2.4-4.67-2.65-7.99-1.93
					c-5.08,1.1-9.79,2-9.83,2.01c-1.45,0.27-2.84-0.68-3.11-2.12c-0.28-1.45,0.67-2.84,2.12-3.11c0.05-0.01,4.69-0.9,9.7-1.98
					c5.31-1.16,7.2-0.08,11.75,2.5c0.79,0.45,1.7,0.96,2.75,1.54c4.58,2.51,6.13,0.04,6.19-0.06c0.46-0.77,1.27-1.25,2.16-1.29
					c9.02-0.42,22.93-2.69,25.63-6.4c0.34-0.48,0.28-0.66,0.23-0.77c-0.72-1.99-6.7-4.73-11.83-6.03c-1.43-0.36-2.29-1.81-1.92-3.23
					c0.36-1.43,1.81-2.29,3.24-1.93c2.23,0.57,13.46,3.69,15.52,9.38c0.69,1.91,0.36,3.94-0.93,5.72
					c-4.76,6.57-22.59,8.18-28.48,8.54C224.93,170.59,222.84,171.83,220.03,171.83z"/>
				<path class="st13" d="M220.03,173.16c-2.18,0-4.49-0.66-6.84-1.95c-1.08-0.59-2.01-1.12-2.83-1.59
					c-2.88-1.64-3.76-2.11-4.86-2.11c-0.57,0-1.29,0.13-2.19,0.33c-4.44,0.96-8.63,1.78-9.81,2.01c-0.31,0.06-0.57,0.08-0.82,0.08
					c-1.91,0-3.56-1.37-3.92-3.25c-0.41-2.16,1.02-4.26,3.18-4.67c0.05-0.01,4.68-0.89,9.67-1.98c5.81-1.26,8-0.02,12.69,2.64
					c0.79,0.45,1.69,0.96,2.73,1.53c1.16,0.64,2.17,0.96,3,0.96c1.01,0,1.38-0.51,1.43-0.56c0.67-1.13,1.88-1.85,3.22-1.92
					c10-0.47,22.05-2.85,24.48-5.69c-1.01-1.21-5.44-3.55-10.72-4.9c-1.03-0.26-1.9-0.91-2.45-1.83c-0.54-0.92-0.7-1.99-0.44-3.03
					c0.53-2.09,2.75-3.43,4.86-2.89c3.29,0.84,14.21,4.05,16.45,10.22c0.85,2.33,0.45,4.8-1.1,6.95
					c-4.88,6.74-21.52,8.57-28.99,9.06C225.58,171.68,223.35,173.16,220.03,173.16z M205.49,164.85c1.85,0,3.11,0.72,6.18,2.46
					c0.81,0.46,1.73,0.98,2.8,1.57c1.96,1.08,3.83,1.62,5.56,1.62c2.73,0,4.44-1.34,5.21-2.14c0.23-0.24,0.55-0.38,0.88-0.41
					c10.97-0.66,23.95-3.11,27.49-7.99c1.04-1.43,1.3-2.98,0.76-4.48c-1.42-3.93-8.75-7.06-14.6-8.54
					c-0.71-0.18-1.44,0.26-1.62,0.96c-0.08,0.34-0.03,0.71,0.15,1.01c0.18,0.31,0.47,0.52,0.82,0.61c4.37,1.11,11.7,3.96,12.75,6.87
					c0.24,0.67,0.1,1.3-0.41,2.01c-3.51,4.85-20.42,6.67-26.64,6.95c-0.45,0.02-0.85,0.26-1.08,0.65c-0.52,0.85-1.79,1.83-3.7,1.83
					c-1.28,0-2.72-0.44-4.28-1.29c-1.06-0.58-1.96-1.09-2.76-1.55c-4.52-2.57-5.97-3.41-10.81-2.36c-5.05,1.1-9.7,1.99-9.74,1.99
					c-0.71,0.14-1.19,0.83-1.05,1.56c0.14,0.71,0.83,1.21,1.56,1.06c1.22-0.24,5.38-1.05,9.8-2
					C203.84,165,204.68,164.85,205.49,164.85z"/>
			</g>
			<g>
				<path class="st14" d="M134.99,134.02h-0.4L27.77,134.5l4.42,101.93c0,0,0.74,22.37,20.24,25.5l0.02-0.03
					c15.63,5.1,46.97,8.58,83.11,8.58c47.06,0,86.01-5.91,92.68-13.6c8.73-7.58,9.16-20.46,9.16-20.46l4.04-102.41H134.99z"/>
				<path class="st13" d="M135.56,271.81c-34.97,0-66.81-3.27-83.24-8.56c-0.03,0-0.07,0-0.1-0.01
					c-20.35-3.27-21.36-26.54-21.36-26.77l-4.42-101.92c-0.02-0.36,0.12-0.71,0.37-0.98c0.25-0.26,0.59-0.41,0.96-0.41l107.23-0.48
					h106.45c0.36,0,0.71,0.15,0.96,0.41c0.25,0.26,0.38,0.61,0.37,0.97l-4.04,102.41c-0.02,0.54-0.55,13.48-9.55,21.35
					C221.95,265.94,182.64,271.81,135.56,271.81z M52.47,260.57c0.13,0,0.26,0.02,0.39,0.06c16.1,5.25,47.79,8.51,82.7,8.51
					c52.15,0,86.16-6.77,91.68-13.13c0.04-0.05,0.08-0.09,0.13-0.13c8.17-7.09,8.7-19.38,8.7-19.5l3.99-101.03H134.59l-105.44,0.47
					l4.36,100.54c0.03,0.88,0.95,21.14,18.88,24.2C52.42,260.57,52.44,260.57,52.47,260.57z"/>
			</g>
			<path class="st14" d="M55.96,185.43c2.36-1.31,4.33-3.14,6.7-4.41c3.98-2.13,8.77-0.12,12.88,0.2c1.79,0.14,3.3,0.23,4.59-1.07
				c3.33-3.36,1.15-7.15-1.33-8.32c-4.24-1.99-9.27-1.13-13.91-1.3c-6.23-0.22-9.38,5.05-14.77,7.23
				c-6.74,2.72-13.63,2.14-20.45,0.67l0.25,5.83c4.94,1.76,10.21,2.66,15.42,2.92C48.92,187.36,52.74,187.22,55.96,185.43z"/>
			<path class="st14" d="M186.75,134.02c1.25,29.39,0.71,58.84,1.99,88.24c0.51,11.65,1.43,26.12-5.75,36.15
				c-4.07,5.67-10.22,9.06-17.01,11.21c32.61-1.9,57.11-6.78,62.27-12.73c8.73-7.58,9.16-20.46,9.16-20.46l4.04-102.41H186.75z"/>
			<path class="st14" d="M44.99,253.81c-5.35-13.58-5-29.1-5.46-43.47c-0.82-25.3-0.54-50.59-0.01-75.89l-11.76,0.05l4.42,101.93
				c0,0,0.68,20.21,17.51,24.89C47.76,259.16,46.13,256.71,44.99,253.81z"/>
			<g>
				<path class="st15" d="M241.44,134.02c0,10.15-47.84,18.37-106.85,18.37c-59.01,0-106.85-8.22-106.85-18.37
					c0-10.14,47.84-18.37,106.85-18.37C193.6,115.65,241.44,123.88,241.44,134.02z"/>
				<path class="st13" d="M134.59,153.72c-52.44,0-108.18-6.91-108.18-19.7c0-12.79,55.73-19.7,108.18-19.7
					c52.44,0,108.18,6.91,108.18,19.7C242.77,146.82,187.04,153.72,134.59,153.72z M134.59,116.99
					c-62.18,0-105.51,8.98-105.51,17.04c0,8.06,43.33,17.03,105.51,17.03c62.18,0,105.51-8.97,105.51-17.03
					C240.11,125.96,196.78,116.99,134.59,116.99z"/>
			</g>
			<g>
				<path class="st13" d="M221.83,142.08c-0.11,0-0.22-0.02-0.33-0.04c-17.88-4.58-51.18-7.43-86.9-7.43
					c-35.72,0-69.02,2.85-86.91,7.43c-0.22,0.06-0.44,0.06-0.66,0c-9.9-2.54-14.51-5.32-14.51-8.76c0-10.57,52.6-16.28,102.08-16.28
					c49.49,0,102.08,5.71,102.08,16.28c0,3.44-4.61,6.23-14.51,8.76C222.05,142.07,221.94,142.08,221.83,142.08z M134.59,131.95
					c35.71,0,69.07,2.84,87.23,7.43c11.59-3.01,12.18-5.6,12.18-6.1c0-5.69-37.82-13.61-99.41-13.61
					c-61.59,0-99.42,7.93-99.42,13.61c0,0.49,0.59,3.08,12.18,6.1C65.52,134.79,98.88,131.95,134.59,131.95z"/>
				<g>
					<path class="st16" d="M221.83,140.75c-17.42-4.46-49.96-7.47-87.24-7.47c-37.28,0-69.81,3.01-87.24,7.47
						c17.42,4.47,49.95,7.47,87.24,7.47C171.87,148.23,204.41,145.22,221.83,140.75z"/>
					<path class="st13" d="M134.59,149.56c-35.93,0-69.48-2.88-87.57-7.52c-0.59-0.15-1-0.68-1-1.29c0-0.61,0.41-1.14,1-1.29
						c18.08-4.64,51.63-7.51,87.57-7.51c35.93,0,69.48,2.88,87.57,7.51c0.59,0.15,1,0.68,1,1.29c0,0.61-0.42,1.14-1,1.29
						C204.08,146.68,170.52,149.56,134.59,149.56z M53.35,140.75c18.74,3.82,49.01,6.14,81.25,6.14c32.24,0,62.5-2.32,81.25-6.14
						c-18.74-3.82-49.01-6.14-81.25-6.14C102.35,134.61,72.09,136.93,53.35,140.75z"/>
				</g>
				<path class="st16" d="M187.15,135.49c-1.12,0.31-2.24,0.62-3.37,0.9c-13,3.26-26.44,5.32-39.79,6.43
					c-16.04,1.33-32.22,1.4-48.24-0.24c-9.42-0.97-20.9-1.27-30.05-5.24c-7.17,1-13.39,2.14-18.35,3.42
					c17.42,4.47,49.95,7.47,87.24,7.47c37.28,0,69.81-3.01,87.24-7.47C213.41,138.6,201.45,136.78,187.15,135.49z"/>
			</g>
			<g>
				<path class="st12" d="M75.91,171.43c-0.04-0.01-4.68-0.89-9.68-1.98c-5.65-1.22-7.76-0.03-12.38,2.6
					c-0.79,0.45-1.69,0.96-2.73,1.53c-5.22,2.86-8.28,2.11-8.3,2.1c-0.26-0.08-0.53-0.14-0.79-0.17
					c-8.41-0.77-22.03-3.55-24.57-7.05c-0.03-0.05-0.06-0.09-0.08-0.12c0.74-1.41,5.76-3.85,10.51-5.1v-7.01
					c-0.47-0.08-0.97-0.07-1.46,0.05c-3.16,0.8-13.63,3.85-15.78,9.76c-0.8,2.2-0.42,4.54,1.06,6.58
					c5.22,7.21,24.75,9.49,29.38,9.93c0.56,0.13,1.52,0.29,2.83,0.29c2.45,0,6.12-0.58,10.62-3.05c1.08-0.59,2.01-1.12,2.83-1.58
					c4.21-2.39,4.37-2.49,7.36-1.83c5.09,1.1,9.81,2,9.86,2.01c1.92,0.37,3.79-0.9,4.15-2.82
					C79.11,173.65,77.84,171.79,75.91,171.43z"/>
				<path class="st13" d="M43.91,184.19c-1.37,0-2.39-0.16-3.05-0.31c-5.84-0.57-24.8-2.96-30.24-10.47
					c-1.75-2.41-2.18-5.19-1.23-7.82c2.31-6.34,12.45-9.52,16.71-10.59c0.66-0.17,1.36-0.19,2.02-0.07c0.64,0.11,1.1,0.66,1.1,1.31
					v7.01c0,0.61-0.41,1.13-0.99,1.29c-4.1,1.07-7.56,2.79-9,3.81c3.32,2.55,14.15,5.03,22.91,5.84c0.34,0.03,0.68,0.1,1,0.2
					c0.15,0.02,0.39,0.05,0.75,0.05c1.07,0,3.36-0.26,6.58-2.03c1.04-0.57,1.93-1.08,2.72-1.53c4.68-2.66,7.27-4.06,13.32-2.74
					c4.97,1.08,9.6,1.96,9.64,1.97c2.65,0.5,4.39,3.07,3.89,5.71c-0.44,2.3-2.46,3.97-4.79,3.97h0c-0.3,0-0.61-0.03-0.91-0.09
					c-1.22-0.23-5.4-1.04-9.89-2.02c-0.85-0.18-1.49-0.32-1.98-0.32c-0.88,0-1.64,0.41-4.42,2c-0.9,0.51-1.81,1.03-2.86,1.6
					C50.33,183.63,46.38,184.19,43.91,184.19z M26.56,157.62c-6.13,1.57-13.15,4.71-14.66,8.87c-0.64,1.77-0.33,3.67,0.88,5.35
					c4.93,6.81,24.54,9.01,28.42,9.39c0.06,0.01,0.12,0.02,0.18,0.03c0.5,0.12,1.35,0.26,2.53,0.26c2.15,0,5.63-0.5,9.98-2.89
					c1.04-0.57,1.94-1.08,2.73-1.53c3.1-1.76,4.22-2.4,5.84-2.4c0.76,0,1.54,0.16,2.55,0.38c4.46,0.97,8.62,1.78,9.78,2
					c0.18,0.03,0.32,0.05,0.46,0.05c1.07,0,1.98-0.76,2.18-1.8c0.23-1.21-0.56-2.37-1.77-2.6c-0.04-0.01-4.66-0.89-9.71-1.99
					c-5.12-1.11-6.89-0.13-11.44,2.46c-0.8,0.45-1.71,0.96-2.76,1.54c-5.09,2.79-8.53,2.39-9.22,2.24c-0.3-0.09-0.47-0.12-0.64-0.14
					c-5.56-0.51-22.19-3.01-25.52-7.6c-0.02-0.03-0.12-0.17-0.13-0.2c-0.25-0.4-0.27-0.9-0.05-1.32c1.05-2.03,6.46-4.33,10.36-5.49
					V157.62z"/>
			</g>
			<path class="st17" d="M97.03,139.75c-0.22-0.77-1.14-0.7-1.76-0.64c-0.2,0.02-0.42,0.07-0.66,0.13c-0.46,0.08-0.91,0.22-1.32,0.5
				c-0.78,0.53-1.81,1.67-1.55,2.71c0.43,1.75,3.03,0.59,3.97-0.01C96.58,141.88,97.34,140.83,97.03,139.75z"/>
			<path class="st17" d="M166.26,138.05c-0.59-0.52-1.64-0.45-2.28-0.1c-0.02,0.01-0.04,0.02-0.07,0.04
				c-0.35,0.1-0.68,0.28-0.97,0.48c-0.72,0.47-1.5,1.34-1.49,2.24c0,0.81,0.86,1.05,1.51,0.99c0.41-0.04,0.88-0.07,1.38-0.2
				C165.59,141.16,167.69,139.27,166.26,138.05z"/>
			<path class="st18" d="M187.52,138.61c-0.38-0.38-1.01-0.55-1.67-0.58c-0.26-0.28-0.7-0.42-1.05-0.55
				c-0.78-0.28-1.61,0.23-2.28,0.55c-0.71,0.34-1.38,0.93-1.78,1.6c-0.26,0.43-0.82,1.63-0.19,2.02c0.57,0.36,1.34,0.27,1.99,0.36
				c0.87,0.11,1.83,0.09,2.71,0.01C186.41,141.93,188.74,139.84,187.52,138.61z"/>
			<path class="st18" d="M203.35,140.17c-0.19-0.19-0.51-0.28-0.84-0.29c-0.13-0.14-0.35-0.21-0.53-0.27
				c-0.39-0.14-0.81,0.12-1.14,0.28c-0.36,0.17-0.69,0.47-0.9,0.81c-0.13,0.21-0.41,0.81-0.09,1.01c0.28,0.18,0.67,0.13,1,0.18
				c0.44,0.06,0.92,0.05,1.36,0.01C202.79,141.83,203.97,140.79,203.35,140.17z"/>
			<path class="st18" d="M132.17,140.66c-0.19-0.19-0.51-0.27-0.84-0.29c-0.13-0.14-0.35-0.21-0.53-0.27
				c-0.39-0.15-0.81,0.12-1.14,0.28c-0.36,0.17-0.69,0.47-0.9,0.81c-0.13,0.21-0.41,0.81-0.09,1.01c0.28,0.18,0.67,0.14,1,0.18
				c0.44,0.06,0.92,0.04,1.36,0C131.61,142.32,132.78,141.27,132.17,140.66z"/>
			<path class="st17" d="M191.54,139.7c-0.31-0.13-0.69,0.11-1.02,0.39c-0.02-0.01-0.05-0.02-0.07-0.03
				c-0.95-0.27-2.1,1.59-1.91,2.38c0.15,0.62,0.64,1.07,1.33,0.86c1.06-0.32,1.96-1.13,2.23-2.24
				C192.25,140.48,192.11,139.93,191.54,139.7z"/>
			<path class="st17" d="M139.67,139.95c-0.14,0.08-0.25,0.2-0.37,0.3c-0.03,0-0.06-0.01-0.09-0.01c-0.6,0.08-1.1,0.71-1.34,1.22
				c-0.47,1.02,0.12,1.75,1.16,1.73c1.31-0.02,2.73-1.4,2.73-2.74C141.77,139.41,140.24,139.64,139.67,139.95z"/>
			<path class="st18" d="M82.95,139.2c-0.23-0.7-1.27-0.95-1.87-1.16c-0.81-0.29-1.7-0.47-2.56-0.36c-0.99,0.12-1.88,1.14-2.34,1.95
				c-0.23,0.4-0.39,0.85-0.42,1.31c-0.01,0.19,0.08,0.54,0.13,0.83c-0.06,0.22-0.1,0.44-0.08,0.66c0,0.02,0.01,0.04,0.01,0.07
				c0,0.05,0.01,0.1,0.03,0.13c0.29,1.46,1.98,1.51,3.23,1.27C80.95,143.53,83.63,141.33,82.95,139.2z"/>
			<path class="st13" d="M67.5,173.73c0,0.62-0.5,1.12-1.12,1.12c-0.62,0-1.12-0.5-1.12-1.12c0-0.61,0.5-1.11,1.12-1.11
				C67.01,172.62,67.5,173.12,67.5,173.73z"/>
			<path class="st13" d="M74.33,174.85c0,0.62-0.5,1.12-1.12,1.12c-0.62,0-1.12-0.5-1.12-1.12c0-0.62,0.5-1.12,1.12-1.12
				C73.83,173.73,74.33,174.23,74.33,174.85z"/>
		</g>
		<g>
			<g>
				<path class="st19" d="M100.39,88.54c0.33-1.13,0.57-2.15,0.7-2.96c0.84-5.24-0.82-13.44-6.46-13c2.19-3.14,3.19-6.58,1.75-10.7
					c-0.85-2.43-2.16-3.69-3.68-4.24c3.72-11.42-0.46-25.48-7.75-34.52c-6.51-8.07-14.54-9.72-23.77-6.65
					c-8.24-13.72-28.02-6.33-34.95,7.01c-4.82,9.28-7.03,19.03-2.7,28.94c2.87,6.58,9.46,12.72,16.51,12.01
					c0.23,4.92,2.22,9.78,5.32,13.48c4.48,5.35,11.03,5.47,16.95,3.57c0.19,0.92,0.46,1.86,0.85,2.79c1.92,4.59,7.14,6.8,11.9,6.33
					c-0.82,6.38,2.01,15.14,8.52,17.54C94.6,112.22,108.56,98.08,100.39,88.54z"/>
				<path class="st0" d="M41.25,15.35c0.16-0.15,0.52-1.03,0-0.73c-7.81,4.49-13.08,10.75-16.06,19.43
					c-1.82,5.29-0.89,10.63,0.92,15.74c2.3,6.49,7.04,8.17,13.22,9.13c0.47,0.07,1.6-1.2,1.07-1.52
					c-7.06-4.23-11.07-9.93-12.2-18.27C26.83,29.09,34.76,21.5,41.25,15.35z"/>
				<path class="st0" d="M63.54,47.01c-7.76-1.71-18.62,4.08-20.38,12.43c-1.02,4.85-1,10.2,1.66,14.51
					c2.82,4.57,10.34,6.06,15.15,5.83c0.48-0.02,1.7-1.38,0.96-1.57c-6.06-1.54-10.75-3.35-13.59-9.32
					c-2.24-4.71-1.1-11.81,2.67-15.39c3.64-3.45,8.16-4.21,12.81-5.12C63.16,48.31,64.17,47.14,63.54,47.01z"/>
				<path class="st0" d="M73.95,86.87c-2.29-1.06-4.49-2.63-5.77-4.83c-0.67-1.14-0.95-3.56-0.69-4.84
					c0.18-0.95,0.78-1.83,1.01-2.78c0.11-0.43-0.44,0.05-0.52,0.19c-0.71,1.38-1.71,2.43-2.35,3.9c-0.62,1.45-0.46,3.67-0.18,5.21
					c0.66,3.6,4.29,5.12,7.52,4.75C73.33,88.43,74.52,87.14,73.95,86.87z"/>
			</g>
			<g>
				<path class="st19" d="M224.98,29.52c-6.06-5.97-16.05-8.92-23.67-6.5c-6.74,2.14-14.02,7.2-13.44,15.13
					c0.04,0.5-0.43,0.87-0.89,0.89c-9.24,0.36-18.82,3.44-25.15,10.55c-3.2,3.6-5.62,7.96-6.4,12.77c-0.59,3.61-0.35,7.3-1.11,10.88
					c-0.01,0.02-0.02,0.03-0.02,0.05c0.66,5.8,2.87,10.91,7.26,13.94c-1.32,2.77-2.23,5.85-1.63,8.45c-6.4,0.16-13.02,4-15.59,9.92
					c-2.59,5.96,2.62,10.22,7.37,9.19c0.18,1.61,0.77,3.1,1.82,4.23c-3.93,2.43-6.68,4.47-8.85,9.69
					c-1.63,3.94-0.08,9.18,3.42,11.42c4.77,3.06,9.68-0.7,13.31-5.87c0.58,0.63,1.25,1.24,2.02,1.79c4.96,3.55,13.31-1.14,17.2-4.23
					c4-3.17,6.64-8.06,7.65-13.27c9.52,4.06,22.24,1.55,29.16-8.36c6.27-8.98,9.15-18.08,4.99-28.7c-1.26-3.21-3.07-6.09-5.25-8.59
					c0.22-0.28,0.42-0.57,0.58-0.84c2.65-4.33,2.69-8.52,0.64-12.8c2.38-1.26,4.62-2.95,6.4-4.58c4.67-4.26,6.5-9.94,5.3-16.09
					C229.42,35.14,227.55,32.06,224.98,29.52z"/>
				<path class="st0" d="M198.13,45.58c-8.03-9.9-27.88,0.57-34.16,8.05c-8.18,9.73-8.16,30.81,6.88,33.29
					c-3.3,4.73-5.19,10.7-3.1,16.16c0.39,1.03,2-1.04,2.08-1.52c1.11-7.12,1.49-13.88,8.68-17.67c5.2-2.74,11.32-2.3,16.81-3.92
					c0.33-0.09,1.54-1.43,0.8-1.53c-3.99-0.57-6.89-1.28-11.02-0.64c-3.76,0.58-8.13,2.5-10.88,5.16c-0.57,0.55-1.11,1.14-1.65,1.75
					c-10.05-5.67-12.12-16.43-8.17-26.95c3.44-9.19,24.64-16.32,33.2-11.51C197.84,46.4,198.31,45.81,198.13,45.58z"/>
				<path class="st0" d="M161.16,98.68c-2.99-2.27-7.38-0.15-9.81,2.03c-2.11,1.89-5.52,5.45-3.03,8.2
					c0.32,0.35,0.99-0.65,1.03-0.88c0.15-0.75,0.11-1.41,0.45-2.06c0.59-1.12,1.53-2.04,2.45-2.89c1.69-1.57,5.56-2.97,7.85-2.88
					C160.58,100.36,161.63,99.04,161.16,98.68z"/>
			</g>
			<g>
				<path class="st20" d="M126.91,83.16c-6.5-3.64-14.08,0.58-17.23,6.69c-1.63,3.16-2.75,7.86-0.28,10.94
					c4.43,5.54,12.47,6.36,18.33,2.55C134.78,98.75,134.11,87.19,126.91,83.16z"/>
				<path class="st0" d="M123.87,85.41c-2.99-2.27-7.38-0.15-9.81,2.03c-2.11,1.89-5.52,5.45-3.03,8.2
					c0.32,0.36,0.99-0.65,1.03-0.88c0.15-0.76,0.11-1.41,0.45-2.06c0.59-1.12,1.53-2.04,2.45-2.89c1.69-1.57,5.56-2.98,7.85-2.88
					C123.29,87.09,124.34,85.77,123.87,85.41z"/>
			</g>
		</g>
	</g>
</g>
</svg>
