<?xml version="1.0" encoding="utf-8"?>
<!-- Generator: Adobe Illustrator 28.4.1, SVG Export Plug-In . SVG Version: 6.00 Build 0)  -->
<svg version="1.1" id="Layer_1" xmlns="http://www.w3.org/2000/svg" xmlns:xlink="http://www.w3.org/1999/xlink" x="0px" y="0px"
	 viewBox="0 0 263.27 228.34" style="enable-background:new 0 0 263.27 228.34;" xml:space="preserve">
<style type="text/css">
	.st0{fill:#FFFFFF;}
	.st1{fill:#F1F1F1;}
	.st2{fill:#E2E2E2;}
	.st3{fill:#D4D4D4;}
	.st4{fill:#C5C5C5;}
	.st5{fill:#B7B7B7;}
	.st6{fill:#A8A8A8;}
	.st7{fill:#9A9A9A;}
	.st8{fill:#8B8B8B;}
	.st9{fill:#7D7D7D;}
	.st10{fill:#6E6E6E;}
	.st11{fill:#606060;}
	.st12{fill:#FECD65;}
	.st13{fill:#5C2F10;}
	.st14{opacity:0.4;fill:#DE7E38;}
	.st15{opacity:0.4;}
	.st16{fill:#FAD194;}
	.st17{opacity:0.6;fill:#FAD194;}
	.st18{fill:#696A6D;}
	.st19{opacity:0.6;fill:#9FA1A4;}
	.st20{opacity:0.8;fill:#9FA1A4;}
</style>
<g>
	<g>
		<path class="st0" d="M234.88,173.29l-0.23-0.19c-2.8-2.33-5.44-4.53-8.07-6.82c-19.26-16.73-39.18-34.03-59.91-49.86
			c-16.86-12.88-34.29-27.3-54.69-45.26c0.04-0.8-0.02-1.59-0.18-2.37c-0.23-1.1-0.75-2.12-1.52-2.98
			c-6-6.6-13.87-15.48-16.33-18.82C93,45.71,93,44.84,93.03,44.55c1.06-2.33,4.38-8.08,8.83-10.54c0.04-0.03,1.18-0.61,5.44-0.61
			c5.21,0,12.05,0.87,17.04,1.5c4.61,0.58,7.55,0.94,9.68,0.94c3.93,0,6.49-1.5,7.61-4.48c1.13-2.99,0.62-5.27-0.01-6.66
			c-0.79-1.75-2.27-3.14-3.97-3.79c-0.07-0.03-0.14-0.05-0.21-0.08l-0.1-0.03c-3.61-1.26-22.2-7.72-34.11-11.06
			c-2.87-0.81-5.87-1.22-8.92-1.22c-15.22,0-27.25,10.07-28.56,11.21c-0.2,0.17-0.4,0.37-0.63,0.63
			c-0.35,0.4-36.43,41.71-38.82,44.28c-1.03,1.11-1.76,2.37-2.16,3.73c-1.77,0.62-3.03,1.7-3.52,2.12
			c-0.61,0.51-6.99,7.25-9.9,11.23c-0.16,0.14-0.32,0.3-0.47,0.47c-4.33,4.93,0.51,10.83,2.33,13.06c2.31,2.82,5.62,6.15,9.32,9.39
			c2.8,2.46,9.85,8.37,14.92,10.28c0.51,0.19,1.88,0.71,3.52,0.71c1.47,0,2.86-0.41,4.02-1.2c0.44-0.28,0.84-0.61,1.21-1.01
			c2.03-2.17,8.78-9.45,10.35-11.9c0.27-0.42,0.5-0.83,0.72-1.24c0.25-0.38,0.46-0.79,0.62-1.22c0.93-0.25,1.8-0.65,2.59-1.21
			c1.78-1.28,2.96-3.27,3.32-5.56c1.6-3.99,4.08-7.72,5.33-8.54c0.35,0.04,1.14,0.2,2.53,0.72c4.43,1.67,10.4,5.41,13.29,7.39
			c1.42,1.06,2.62,1.76,3.78,2.19c1.15,0.44,2.32,0.62,3.43,0.52c5.2,4.79,10.77,9.98,17.68,16.47c1.75,1.64,3.51,3.28,5.27,4.91
			l0.45,0.42c2.83,2.62,5.75,5.34,8.57,8.04l0.15,0.14c8.17,7.85,80.49,77.21,106.98,97.95c0.62,0.55,1.57,1.24,2.89,1.74
			c1.12,0.42,2.3,0.63,3.53,0.63c1.88,0,3.79-0.5,5.68-1.49c4.43-2.32,15.6-15.18,16.48-22.11c0.43-2.77-0.41-5.64-2.25-7.71
			C250.32,186.16,242.47,179.62,234.88,173.29z"/>
		<path class="st1" d="M234.46,172.82l-0.23-0.19c-2.8-2.33-5.44-4.53-8.07-6.82c-19.26-16.73-39.18-34.03-59.91-49.86
			c-16.86-12.88-34.29-27.3-54.69-45.26c0.04-0.8-0.02-1.59-0.18-2.37c-0.23-1.1-0.74-2.12-1.52-2.98
			C103.89,58.73,96,49.86,93.54,46.53c-0.95-1.29-0.96-2.16-0.92-2.44c1.06-2.33,4.41-8.03,8.83-10.54
			c0.05-0.03,1.18-0.61,5.44-0.61c5.21,0,12.05,0.87,17.04,1.5c4.61,0.58,7.55,0.94,9.68,0.94c3.93,0,6.49-1.5,7.61-4.48
			c1.13-2.99,0.62-5.27-0.01-6.66c-0.79-1.75-2.27-3.14-3.97-3.79c-0.07-0.03-0.14-0.05-0.21-0.08l-0.1-0.03
			c-3.61-1.26-22.2-7.72-34.11-11.06c-2.87-0.81-5.87-1.22-8.92-1.22c-15.22,0-27.25,10.08-28.56,11.21
			c-0.2,0.17-0.4,0.37-0.63,0.63c-0.35,0.4-36.43,41.71-38.82,44.28c-1.03,1.11-1.76,2.37-2.16,3.73c-1.77,0.62-3.03,1.7-3.52,2.12
			c-0.61,0.51-6.99,7.25-9.9,11.23c-0.16,0.14-0.32,0.3-0.47,0.47c-4.33,4.93,0.51,10.83,2.33,13.06c2.31,2.82,5.63,6.15,9.32,9.39
			c2.8,2.46,9.85,8.37,14.92,10.28c0.51,0.19,1.88,0.71,3.52,0.71c1.47,0,2.85-0.43,4.02-1.2c0.43-0.28,0.84-0.61,1.21-1.01
			c2.04-2.17,8.78-9.45,10.35-11.9c0.27-0.42,0.5-0.83,0.72-1.24c0.25-0.38,0.46-0.79,0.62-1.22c0.93-0.25,1.8-0.65,2.59-1.21
			c1.78-1.27,2.96-3.27,3.32-5.56c1.6-3.99,4.08-7.72,5.33-8.54c0.35,0.04,1.14,0.2,2.53,0.72c4.43,1.67,10.4,5.41,13.29,7.39
			c1.42,1.06,2.62,1.76,3.78,2.19c1.15,0.44,2.32,0.62,3.43,0.52c5.2,4.79,10.77,9.98,17.68,16.47c1.75,1.64,3.51,3.28,5.27,4.91
			l0.45,0.42c2.83,2.62,5.75,5.34,8.57,8.04l0.15,0.14c8.17,7.85,80.49,77.21,106.98,97.95c0.62,0.55,1.57,1.24,2.89,1.74
			c1.12,0.42,2.3,0.63,3.53,0.63c1.88,0,3.79-0.5,5.68-1.49c4.43-2.32,15.51-15.19,16.48-22.11c0.39-2.78-0.41-5.64-2.25-7.71
			C249.9,185.7,242.05,179.15,234.46,172.82z"/>
		<path class="st2" d="M234.05,172.36l-0.23-0.19c-2.8-2.33-5.44-4.53-8.07-6.82c-19.26-16.73-39.18-34.03-59.91-49.86
			c-16.86-12.88-34.29-27.3-54.69-45.26c0.04-0.8-0.02-1.59-0.18-2.37c-0.23-1.1-0.74-2.12-1.52-2.98
			c-5.97-6.62-13.87-15.48-16.33-18.82c-0.95-1.29-0.95-2.16-0.92-2.44c1.06-2.33,4.4-8.04,8.83-10.54
			c0.05-0.03,1.18-0.61,5.44-0.61c5.2,0,12.05,0.87,17.04,1.5c4.61,0.58,7.55,0.94,9.68,0.94c3.93,0,6.49-1.5,7.61-4.48
			c1.13-2.99,0.62-5.27-0.01-6.66c-0.79-1.75-2.27-3.13-3.97-3.79c-0.07-0.03-0.14-0.05-0.21-0.08l-0.1-0.03
			c-3.61-1.26-22.2-7.72-34.11-11.06c-2.87-0.81-5.87-1.22-8.92-1.22c-15.22,0-27.25,10.08-28.56,11.21
			c-0.2,0.17-0.4,0.37-0.63,0.63c-0.35,0.4-36.43,41.71-38.82,44.28c-1.03,1.11-1.76,2.37-2.16,3.73c-1.77,0.62-3.03,1.7-3.52,2.12
			c-0.61,0.51-6.99,7.25-9.9,11.23c-0.16,0.14-0.32,0.3-0.47,0.47c-4.33,4.93,0.51,10.83,2.33,13.06c2.31,2.82,5.63,6.15,9.32,9.39
			c2.8,2.45,9.85,8.37,14.92,10.28c0.51,0.19,1.88,0.71,3.52,0.71c1.47,0,2.85-0.43,4.02-1.2c0.43-0.28,0.84-0.61,1.21-1.01
			c2.03-2.17,8.78-9.45,10.35-11.9c0.27-0.42,0.5-0.83,0.72-1.24c0.25-0.38,0.46-0.79,0.62-1.22c0.93-0.25,1.8-0.65,2.59-1.21
			c1.78-1.27,2.96-3.27,3.32-5.56c1.6-3.99,4.08-7.72,5.33-8.54c0.35,0.04,1.14,0.2,2.53,0.72c4.43,1.67,10.4,5.41,13.29,7.39
			c1.42,1.06,2.62,1.76,3.78,2.19c1.15,0.44,2.32,0.62,3.43,0.52c5.2,4.79,10.77,9.98,17.68,16.47c1.75,1.64,3.51,3.28,5.27,4.91
			l0.45,0.42c2.83,2.62,5.75,5.34,8.57,8.04l0.15,0.14c8.17,7.85,80.49,77.21,106.98,97.95c0.62,0.55,1.57,1.24,2.89,1.74
			c1.12,0.42,2.3,0.63,3.53,0.63c1.88,0,3.79-0.5,5.68-1.49c4.43-2.32,15.51-15.19,16.48-22.11c0.39-2.78-0.41-5.64-2.25-7.71
			C249.49,185.23,241.64,178.69,234.05,172.36z"/>
		<path class="st3" d="M233.63,171.89l-0.23-0.19c-2.8-2.33-5.44-4.53-8.07-6.82c-19.26-16.73-39.18-34.03-59.91-49.86
			c-16.86-12.88-34.29-27.3-54.69-45.26c0.04-0.8-0.02-1.59-0.18-2.37c-0.23-1.1-0.74-2.12-1.52-2.98
			c-5.97-6.62-13.87-15.48-16.33-18.82c-0.95-1.29-0.95-2.16-0.92-2.44c1.06-2.33,4.4-8.05,8.82-10.54
			c0.05-0.03,1.18-0.61,5.44-0.61c5.2,0,12.05,0.87,17.04,1.5c4.61,0.58,7.55,0.94,9.69,0.94c3.93,0,6.49-1.5,7.61-4.48
			c1.13-2.99,0.62-5.27-0.01-6.66c-0.79-1.75-2.27-3.13-3.97-3.79c-0.07-0.03-0.14-0.05-0.21-0.08l-0.1-0.03
			C132.5,18.16,113.9,11.7,102,8.36c-2.87-0.81-5.87-1.22-8.92-1.22c-15.22,0-27.25,10.08-28.56,11.21c-0.2,0.17-0.4,0.37-0.63,0.63
			c-0.35,0.4-36.43,41.71-38.82,44.28c-1.03,1.11-1.76,2.37-2.16,3.73c-1.77,0.62-3.03,1.7-3.52,2.12
			c-0.61,0.51-6.99,7.25-9.9,11.23c-0.16,0.14-0.32,0.3-0.47,0.47c-4.33,4.93,0.51,10.83,2.33,13.06c2.31,2.82,5.63,6.15,9.32,9.39
			c2.8,2.45,9.85,8.37,14.92,10.28c0.51,0.19,1.88,0.71,3.52,0.71c1.47,0,2.85-0.43,4.02-1.2c0.43-0.28,0.84-0.61,1.21-1.01
			c2.03-2.17,8.78-9.45,10.35-11.9c0.27-0.42,0.5-0.83,0.72-1.24c0.25-0.38,0.46-0.79,0.62-1.22c0.93-0.25,1.8-0.65,2.59-1.21
			c1.78-1.27,2.96-3.27,3.32-5.56c1.6-3.99,4.08-7.72,5.33-8.54c0.35,0.04,1.14,0.2,2.53,0.72c4.43,1.67,10.4,5.41,13.29,7.39
			c1.42,1.06,2.62,1.76,3.78,2.19c1.15,0.44,2.31,0.62,3.43,0.52c5.2,4.79,10.77,9.98,17.68,16.47c1.75,1.64,3.51,3.28,5.27,4.91
			l0.45,0.42c2.83,2.62,5.75,5.34,8.57,8.04l0.15,0.14c8.17,7.85,80.49,77.21,106.98,97.95c0.62,0.55,1.57,1.24,2.89,1.74
			c1.11,0.42,2.3,0.63,3.53,0.63c1.88,0,3.79-0.5,5.68-1.49c4.43-2.32,15.51-15.19,16.48-22.11c0.39-2.78-0.41-5.64-2.25-7.71
			C249.07,184.77,241.22,178.22,233.63,171.89z"/>
		<path class="st4" d="M233.22,171.43l-0.23-0.19c-2.8-2.33-5.44-4.53-8.07-6.82c-19.26-16.73-39.18-34.03-59.91-49.86
			c-16.86-12.88-34.29-27.3-54.69-45.26c0.04-0.8-0.02-1.59-0.18-2.37c-0.23-1.1-0.74-2.12-1.52-2.98
			c-5.97-6.62-13.87-15.48-16.33-18.82c-0.95-1.29-0.95-2.16-0.92-2.44c1.06-2.33,4.39-8.06,8.82-10.54
			c0.05-0.03,1.18-0.61,5.44-0.61c5.2,0,12.05,0.87,17.04,1.5c4.61,0.58,7.55,0.94,9.69,0.94c3.93,0,6.49-1.5,7.61-4.48
			c1.13-2.99,0.62-5.27-0.01-6.66c-0.79-1.75-2.27-3.13-3.97-3.79c-0.07-0.03-0.14-0.05-0.21-0.08l-0.1-0.03
			c-3.61-1.26-22.2-7.72-34.11-11.06c-2.87-0.81-5.87-1.22-8.92-1.22c-15.22,0-27.25,10.07-28.56,11.21
			c-0.2,0.17-0.4,0.37-0.63,0.63c-0.35,0.4-36.43,41.71-38.82,44.28c-1.03,1.11-1.76,2.37-2.16,3.73c-1.77,0.62-3.03,1.7-3.52,2.12
			c-0.61,0.51-6.99,7.25-9.9,11.23c-0.16,0.14-0.32,0.3-0.47,0.47c-4.33,4.93,0.51,10.83,2.33,13.06c2.31,2.82,5.63,6.15,9.32,9.39
			c2.8,2.45,9.85,8.37,14.92,10.28c0.51,0.19,1.88,0.71,3.52,0.71c1.47,0,2.85-0.43,4.02-1.2c0.43-0.28,0.84-0.61,1.21-1.01
			c2.03-2.17,8.78-9.45,10.35-11.9c0.27-0.42,0.5-0.83,0.72-1.24c0.25-0.38,0.46-0.79,0.62-1.22c0.93-0.25,1.8-0.65,2.59-1.21
			c1.78-1.27,2.96-3.27,3.32-5.56c1.6-3.99,4.08-7.72,5.33-8.54c0.35,0.04,1.14,0.2,2.53,0.72c4.43,1.67,10.4,5.41,13.29,7.39
			c1.42,1.06,2.62,1.76,3.78,2.19c1.15,0.44,2.31,0.62,3.43,0.52c5.2,4.79,10.77,9.98,17.68,16.47c1.75,1.64,3.51,3.28,5.27,4.91
			l0.45,0.42c2.83,2.62,5.75,5.34,8.57,8.04l0.15,0.14c8.17,7.85,80.49,77.21,106.98,97.95c0.62,0.55,1.57,1.24,2.89,1.74
			c1.11,0.42,2.3,0.63,3.53,0.63c1.88,0,3.79-0.5,5.68-1.49c4.43-2.32,15.51-15.19,16.48-22.11c0.39-2.78-0.41-5.64-2.25-7.71
			C248.66,184.3,240.81,177.76,233.22,171.43z"/>
		<path class="st5" d="M232.8,170.96l-0.23-0.19c-2.8-2.33-5.44-4.53-8.07-6.82c-19.26-16.73-39.18-34.03-59.91-49.86
			c-16.86-12.88-34.29-27.3-54.69-45.26c0.04-0.8-0.02-1.59-0.18-2.37c-0.23-1.1-0.74-2.12-1.52-2.98
			c-5.97-6.62-13.87-15.48-16.33-18.82c-0.95-1.29-0.95-2.16-0.92-2.44c1.06-2.33,4.39-8.07,8.82-10.54
			c0.05-0.03,1.18-0.61,5.44-0.61c5.2,0,12.05,0.87,17.04,1.5c4.61,0.58,7.55,0.94,9.69,0.94c3.93,0,6.49-1.5,7.61-4.48
			c1.13-2.99,0.62-5.27,0-6.66c-0.79-1.75-2.27-3.13-3.97-3.79c-0.07-0.03-0.14-0.05-0.21-0.08l-0.1-0.03
			c-3.61-1.26-22.2-7.72-34.11-11.06c-2.87-0.81-5.87-1.22-8.92-1.22C77.03,6.21,65,16.29,63.69,17.42c-0.2,0.17-0.4,0.37-0.63,0.63
			c-0.35,0.4-36.43,41.71-38.82,44.28c-1.03,1.11-1.76,2.37-2.16,3.73c-1.77,0.62-3.03,1.7-3.52,2.12
			c-0.61,0.51-6.99,7.25-9.9,11.23c-0.16,0.14-0.32,0.3-0.47,0.47c-4.33,4.93,0.51,10.83,2.33,13.06c2.31,2.82,5.63,6.15,9.32,9.39
			c2.8,2.45,9.85,8.37,14.92,10.28c0.51,0.19,1.88,0.71,3.52,0.71c1.47,0,2.85-0.43,4.02-1.2c0.43-0.28,0.84-0.61,1.21-1.01
			c2.03-2.17,8.78-9.45,10.35-11.9c0.27-0.42,0.5-0.83,0.72-1.24c0.25-0.38,0.46-0.79,0.62-1.22c0.93-0.25,1.8-0.65,2.59-1.21
			c1.78-1.27,2.96-3.27,3.32-5.56c1.6-3.99,4.08-7.72,5.33-8.54c0.35,0.04,1.14,0.2,2.53,0.72c4.43,1.67,10.4,5.41,13.29,7.39
			c1.42,1.06,2.62,1.76,3.78,2.19c1.15,0.44,2.31,0.62,3.43,0.52c5.2,4.79,10.77,9.98,17.68,16.47c1.75,1.64,3.51,3.28,5.27,4.91
			l0.45,0.42c2.83,2.62,5.75,5.34,8.57,8.04l0.15,0.14c8.17,7.85,80.49,77.21,106.98,97.95c0.62,0.55,1.57,1.24,2.89,1.74
			c1.11,0.42,2.3,0.63,3.53,0.63c1.88,0,3.79-0.5,5.68-1.49c4.43-2.32,15.51-15.19,16.48-22.11c0.39-2.78-0.41-5.64-2.25-7.71
			C248.24,183.84,240.39,177.29,232.8,170.96z"/>
		<path class="st6" d="M232.39,170.5l-0.23-0.19c-2.8-2.33-5.44-4.53-8.07-6.82c-19.26-16.73-39.18-34.03-59.91-49.86
			c-16.86-12.88-34.29-27.3-54.69-45.26c0.04-0.8-0.02-1.59-0.18-2.37c-0.23-1.1-0.74-2.12-1.52-2.98
			c-5.97-6.62-13.87-15.48-16.33-18.82c-0.95-1.29-0.95-2.16-0.92-2.44c1.06-2.33,4.38-8.08,8.82-10.54
			c0.05-0.03,1.19-0.61,5.44-0.61c5.2,0,12.05,0.87,17.04,1.5c4.61,0.58,7.55,0.94,9.69,0.94c3.93,0,6.49-1.5,7.61-4.48
			c1.13-2.99,0.62-5.27,0-6.66c-0.79-1.75-2.27-3.13-3.97-3.79c-0.07-0.03-0.14-0.05-0.21-0.08l-0.1-0.03
			c-3.61-1.26-22.2-7.72-34.11-11.06c-2.87-0.81-5.87-1.22-8.92-1.22c-15.22,0-27.25,10.07-28.56,11.21
			c-0.2,0.17-0.4,0.37-0.63,0.63c-0.35,0.4-36.43,41.71-38.82,44.28c-1.03,1.11-1.76,2.37-2.16,3.73c-1.77,0.62-3.03,1.7-3.52,2.12
			c-0.61,0.51-6.99,7.25-9.9,11.23c-0.16,0.14-0.32,0.3-0.47,0.47c-4.33,4.93,0.51,10.83,2.33,13.06c2.31,2.82,5.63,6.15,9.32,9.39
			c2.8,2.45,9.85,8.37,14.92,10.28c0.51,0.19,1.88,0.71,3.52,0.71c1.47,0,2.85-0.43,4.02-1.2c0.43-0.28,0.84-0.61,1.21-1.01
			c2.03-2.17,8.78-9.45,10.35-11.9c0.27-0.42,0.5-0.83,0.72-1.24c0.25-0.38,0.46-0.79,0.62-1.22c0.93-0.25,1.8-0.65,2.59-1.21
			c1.78-1.27,2.96-3.27,3.32-5.56c1.6-3.99,4.08-7.72,5.33-8.54c0.35,0.04,1.14,0.2,2.53,0.72c4.43,1.67,10.4,5.41,13.29,7.39
			c1.42,1.06,2.62,1.76,3.78,2.19c1.15,0.44,2.31,0.62,3.43,0.52c5.2,4.79,10.77,9.98,17.68,16.47c1.75,1.64,3.51,3.28,5.27,4.91
			l0.45,0.42c2.83,2.62,5.75,5.34,8.57,8.04l0.15,0.14c8.17,7.85,80.49,77.21,106.98,97.95c0.62,0.55,1.57,1.24,2.89,1.74
			c1.11,0.42,2.3,0.63,3.53,0.63c1.88,0,3.79-0.5,5.68-1.49c4.43-2.32,15.51-15.19,16.48-22.11c0.39-2.78-0.41-5.64-2.25-7.71
			C247.83,183.37,239.98,176.83,232.39,170.5z"/>
		<path class="st7" d="M231.97,170.03l-0.23-0.19c-2.8-2.33-5.44-4.53-8.07-6.82c-19.26-16.73-39.18-34.03-59.91-49.86
			c-16.86-12.88-34.29-27.3-54.69-45.26c0.04-0.8-0.02-1.59-0.18-2.37c-0.23-1.1-0.74-2.12-1.52-2.98
			c-5.97-6.62-13.87-15.48-16.33-18.82c-0.95-1.29-0.95-2.16-0.92-2.44c1.06-2.33,4.38-8.08,8.82-10.54
			c0.05-0.03,1.19-0.61,5.44-0.61c5.2,0,12.05,0.87,17.04,1.5c4.61,0.58,7.55,0.94,9.69,0.94c3.93,0,6.49-1.5,7.61-4.47
			c1.13-2.99,0.62-5.27,0-6.66c-0.79-1.75-2.27-3.13-3.97-3.79c-0.07-0.03-0.14-0.05-0.21-0.08l-0.1-0.03
			c-3.61-1.26-22.2-7.72-34.11-11.06c-2.87-0.81-5.87-1.22-8.92-1.22c-15.22,0-27.25,10.07-28.56,11.21
			c-0.2,0.17-0.4,0.37-0.63,0.63c-0.35,0.4-36.43,41.71-38.82,44.28c-1.03,1.11-1.76,2.37-2.16,3.73c-1.77,0.62-3.03,1.7-3.52,2.12
			c-0.61,0.51-6.99,7.25-9.9,11.23c-0.16,0.14-0.32,0.3-0.47,0.47c-4.33,4.93,0.51,10.83,2.33,13.06c2.31,2.82,5.63,6.15,9.32,9.39
			c2.8,2.45,9.85,8.37,14.92,10.28c0.51,0.19,1.88,0.71,3.52,0.71c1.47,0,2.85-0.43,4.02-1.2c0.43-0.28,0.84-0.61,1.21-1.01
			c2.03-2.17,8.78-9.45,10.35-11.9c0.27-0.42,0.51-0.83,0.72-1.24c0.25-0.38,0.46-0.79,0.62-1.22c0.93-0.25,1.8-0.65,2.59-1.21
			c1.78-1.27,2.96-3.27,3.32-5.56c1.6-3.99,4.08-7.72,5.33-8.54c0.35,0.04,1.14,0.2,2.53,0.72c4.43,1.67,10.4,5.41,13.29,7.39
			c1.42,1.06,2.62,1.76,3.78,2.19c1.15,0.44,2.31,0.62,3.43,0.52c5.2,4.79,10.77,9.98,17.68,16.47c1.75,1.64,3.51,3.28,5.27,4.91
			l0.45,0.42c2.83,2.62,5.75,5.34,8.57,8.04l0.15,0.14c8.17,7.85,80.49,77.21,106.98,97.95c0.62,0.55,1.57,1.24,2.89,1.74
			c1.11,0.42,2.3,0.63,3.53,0.63c1.88,0,3.79-0.5,5.68-1.49c4.43-2.32,15.51-15.19,16.48-22.11c0.39-2.78-0.41-5.64-2.25-7.71
			C247.41,182.91,239.56,176.36,231.97,170.03z"/>
		<path class="st8" d="M231.56,169.57l-0.23-0.19c-2.8-2.33-5.44-4.53-8.07-6.82c-19.27-16.73-39.18-34.03-59.91-49.86
			c-16.86-12.88-34.29-27.3-54.69-45.26c0.04-0.8-0.02-1.59-0.18-2.37c-0.23-1.1-0.74-2.12-1.52-2.98
			c-5.97-6.62-13.87-15.48-16.33-18.82c-0.95-1.29-0.95-2.16-0.92-2.44c1.06-2.33,4.37-8.09,8.82-10.54
			c0.05-0.03,1.19-0.61,5.44-0.61c5.2,0,12.05,0.87,17.04,1.5c4.61,0.58,7.55,0.94,9.69,0.94c3.93,0,6.49-1.5,7.61-4.47
			c1.13-2.99,0.62-5.27,0-6.66c-0.79-1.75-2.27-3.13-3.97-3.79c-0.07-0.03-0.14-0.05-0.21-0.08l-0.1-0.03
			c-3.61-1.26-22.2-7.72-34.11-11.06c-2.87-0.81-5.87-1.22-8.92-1.22c-15.22,0-27.25,10.07-28.56,11.21
			c-0.2,0.17-0.4,0.37-0.63,0.63c-0.35,0.4-36.43,41.71-38.82,44.28c-1.03,1.11-1.76,2.37-2.16,3.73c-1.77,0.62-3.03,1.7-3.52,2.12
			c-0.61,0.51-6.99,7.25-9.9,11.23c-0.16,0.14-0.32,0.3-0.47,0.47c-4.33,4.93,0.51,10.83,2.33,13.06c2.31,2.82,5.63,6.15,9.32,9.39
			c2.8,2.45,9.85,8.37,14.92,10.28c0.51,0.19,1.88,0.71,3.52,0.71c1.47,0,2.85-0.43,4.02-1.2c0.43-0.28,0.84-0.61,1.21-1.01
			c2.03-2.17,8.78-9.45,10.35-11.9c0.27-0.42,0.51-0.83,0.72-1.24c0.25-0.38,0.46-0.79,0.62-1.22c0.93-0.25,1.8-0.65,2.59-1.21
			c1.78-1.27,2.96-3.27,3.32-5.56c1.6-3.99,4.08-7.72,5.33-8.54c0.35,0.04,1.14,0.2,2.53,0.72c4.43,1.67,10.4,5.41,13.29,7.39
			c1.42,1.06,2.62,1.76,3.78,2.19c1.15,0.44,2.31,0.62,3.43,0.52c5.2,4.79,10.77,9.98,17.68,16.47c1.75,1.64,3.51,3.28,5.27,4.91
			l0.45,0.42c2.83,2.62,5.75,5.34,8.57,8.04l0.15,0.14c8.17,7.85,80.49,77.21,106.98,97.95c0.62,0.55,1.57,1.24,2.89,1.74
			c1.11,0.42,2.3,0.63,3.53,0.63c1.88,0,3.79-0.5,5.68-1.49c4.43-2.32,15.51-15.19,16.48-22.11c0.39-2.78-0.41-5.64-2.25-7.71
			C247,182.44,239.15,175.9,231.56,169.57z"/>
		<path class="st9" d="M231.14,169.1l-0.23-0.19c-2.8-2.33-5.44-4.53-8.07-6.82c-19.27-16.73-39.18-34.03-59.91-49.86
			c-16.86-12.88-34.29-27.3-54.69-45.26c0.04-0.8-0.02-1.59-0.18-2.37c-0.23-1.1-0.74-2.12-1.52-2.98
			c-5.97-6.62-13.87-15.48-16.33-18.82c-0.95-1.29-0.95-2.16-0.92-2.44c1.06-2.33,4.37-8.1,8.82-10.54
			c0.05-0.03,1.19-0.61,5.44-0.61c5.2,0,12.05,0.87,17.04,1.5c4.61,0.58,7.55,0.94,9.69,0.94c3.93,0,6.49-1.5,7.61-4.47
			c1.13-2.99,0.62-5.27,0-6.66c-0.79-1.75-2.27-3.13-3.97-3.79c-0.07-0.03-0.14-0.05-0.21-0.08l-0.1-0.03
			c-3.61-1.26-22.2-7.72-34.11-11.06c-2.87-0.81-5.87-1.22-8.92-1.22c-15.22,0-27.25,10.07-28.56,11.21
			c-0.2,0.17-0.4,0.37-0.63,0.63c-0.35,0.4-36.43,41.71-38.82,44.28c-1.03,1.11-1.76,2.37-2.16,3.73c-1.77,0.62-3.03,1.7-3.52,2.12
			c-0.61,0.51-6.99,7.25-9.9,11.23c-0.16,0.14-0.32,0.3-0.47,0.47C2.2,82.96,7.04,88.85,8.86,91.08c2.32,2.82,5.63,6.15,9.32,9.39
			c2.8,2.45,9.85,8.37,14.92,10.28c0.51,0.19,1.88,0.71,3.52,0.71c1.47,0,2.85-0.43,4.02-1.2c0.43-0.28,0.84-0.61,1.21-1.01
			c2.03-2.17,8.78-9.45,10.35-11.9c0.27-0.42,0.51-0.83,0.72-1.24c0.25-0.38,0.46-0.79,0.62-1.22c0.93-0.25,1.8-0.65,2.59-1.21
			c1.78-1.27,2.96-3.27,3.32-5.56c1.6-3.99,4.08-7.72,5.33-8.54c0.35,0.04,1.14,0.2,2.53,0.72c4.43,1.67,10.4,5.41,13.29,7.39
			c1.42,1.06,2.62,1.76,3.78,2.19c1.15,0.44,2.31,0.62,3.43,0.52c5.2,4.79,10.77,9.98,17.68,16.47c1.75,1.64,3.51,3.28,5.27,4.91
			l0.45,0.42c2.83,2.62,5.75,5.34,8.57,8.04l0.15,0.14c8.17,7.85,80.49,77.21,106.98,97.95c0.62,0.55,1.57,1.24,2.89,1.74
			c1.11,0.42,2.3,0.63,3.53,0.63c1.88,0,3.79-0.5,5.68-1.49c4.43-2.32,15.51-15.19,16.48-22.11c0.39-2.78-0.41-5.64-2.25-7.71
			C246.58,181.98,238.73,175.43,231.14,169.1z"/>
		<path class="st10" d="M230.73,168.64l-0.23-0.19c-2.8-2.33-5.44-4.53-8.07-6.82c-19.27-16.73-39.18-34.03-59.91-49.86
			c-16.86-12.88-34.29-27.3-54.69-45.26c0.04-0.8-0.02-1.59-0.18-2.37c-0.23-1.1-0.74-2.12-1.52-2.98
			c-5.97-6.62-13.87-15.48-16.33-18.82c-0.95-1.29-0.95-2.16-0.92-2.44c1.06-2.33,4.36-8.11,8.82-10.54
			c0.05-0.03,1.19-0.61,5.44-0.61c5.2,0,12.05,0.87,17.04,1.5c4.61,0.58,7.55,0.94,9.69,0.94c3.93,0,6.49-1.5,7.61-4.47
			c1.13-2.99,0.62-5.27,0-6.66c-0.79-1.75-2.27-3.13-3.97-3.79c-0.07-0.03-0.14-0.05-0.21-0.08l-0.1-0.03
			c-3.61-1.26-22.2-7.72-34.11-11.06c-2.87-0.81-5.87-1.22-8.92-1.22c-15.22,0-27.25,10.07-28.56,11.21
			c-0.2,0.17-0.4,0.37-0.63,0.63c-0.35,0.4-36.43,41.71-38.82,44.28c-1.03,1.11-1.76,2.37-2.16,3.73c-1.77,0.62-3.03,1.7-3.52,2.12
			c-0.61,0.51-6.99,7.25-9.9,11.23c-0.16,0.14-0.32,0.3-0.47,0.47c-4.33,4.93,0.51,10.83,2.33,13.06c2.32,2.82,5.63,6.15,9.32,9.39
			c2.8,2.45,9.85,8.37,14.92,10.28c0.51,0.19,1.88,0.71,3.52,0.71c1.47,0,2.85-0.43,4.02-1.2c0.43-0.28,0.84-0.61,1.21-1.01
			c2.03-2.17,8.78-9.45,10.35-11.9c0.27-0.42,0.51-0.83,0.72-1.24c0.25-0.38,0.46-0.79,0.62-1.22c0.93-0.25,1.8-0.65,2.59-1.21
			c1.78-1.27,2.96-3.27,3.32-5.56c1.6-3.99,4.08-7.72,5.33-8.54c0.35,0.04,1.14,0.2,2.53,0.72c4.43,1.67,10.4,5.41,13.29,7.39
			c1.42,1.06,2.62,1.76,3.78,2.19c1.15,0.44,2.31,0.62,3.43,0.52c5.2,4.79,10.77,9.98,17.68,16.47c1.75,1.64,3.51,3.28,5.27,4.91
			l0.46,0.42c2.83,2.62,5.75,5.34,8.57,8.04l0.15,0.14c8.17,7.85,80.49,77.21,106.98,97.95c0.62,0.55,1.56,1.24,2.89,1.74
			c1.11,0.42,2.3,0.63,3.53,0.63c1.88,0,3.79-0.5,5.68-1.49c4.43-2.32,15.51-15.19,16.48-22.11c0.39-2.78-0.41-5.64-2.25-7.71
			C246.17,181.51,238.32,174.97,230.73,168.64z"/>
		<path class="st11" d="M230.31,168.18l-0.23-0.19c-2.8-2.33-5.44-4.53-8.07-6.82c-19.27-16.73-39.18-34.03-59.91-49.86
			c-16.86-12.88-34.29-27.3-54.69-45.26c0.04-0.8-0.02-1.59-0.18-2.37c-0.23-1.1-0.75-2.12-1.52-2.98
			c-5.99-6.6-13.87-15.48-16.33-18.82c-0.95-1.29-0.95-2.16-0.92-2.44c1.06-2.33,4.38-8.08,8.82-10.54
			c0.05-0.03,1.19-0.61,5.44-0.61c5.2,0,12.05,0.87,17.04,1.5c4.61,0.58,7.55,0.94,9.69,0.94c3.93,0,6.49-1.5,7.61-4.47
			c1.13-2.99,0.62-5.27,0-6.66c-0.79-1.75-2.27-3.14-3.97-3.79c-0.07-0.03-0.14-0.05-0.21-0.08l-0.1-0.03
			c-3.61-1.26-22.2-7.72-34.11-11.06c-2.87-0.81-5.88-1.22-8.92-1.22c-15.22,0-27.25,10.07-28.56,11.21
			c-0.2,0.17-0.4,0.37-0.63,0.63c-0.34,0.4-36.43,41.71-38.82,44.28c-1.03,1.11-1.76,2.37-2.16,3.73c-1.77,0.62-3.03,1.7-3.52,2.12
			c-0.61,0.51-6.99,7.25-9.9,11.23C6,76.77,5.85,76.93,5.7,77.09c-4.33,4.93,0.51,10.83,2.33,13.06c2.32,2.82,5.63,6.15,9.32,9.39
			c2.8,2.45,9.85,8.37,14.92,10.28c0.51,0.19,1.88,0.71,3.52,0.71c1.47,0,2.86-0.41,4.02-1.2c0.43-0.28,0.84-0.61,1.21-1.01
			c2.03-2.17,8.78-9.45,10.35-11.9c0.27-0.42,0.51-0.83,0.72-1.24c0.25-0.38,0.46-0.79,0.62-1.22c0.93-0.25,1.8-0.65,2.59-1.21
			c1.78-1.28,2.96-3.27,3.32-5.56c1.6-3.99,4.08-7.72,5.33-8.54c0.35,0.04,1.14,0.2,2.53,0.72c4.43,1.67,10.4,5.41,13.29,7.39
			c1.42,1.06,2.62,1.76,3.78,2.19c1.15,0.44,2.31,0.62,3.43,0.52c5.2,4.79,10.77,9.98,17.68,16.47c1.75,1.64,3.51,3.28,5.27,4.91
			l0.46,0.42c2.83,2.62,5.75,5.34,8.57,8.04l0.15,0.14c8.17,7.85,80.49,77.2,106.98,97.95c0.62,0.55,1.56,1.24,2.89,1.74
			c1.11,0.42,2.3,0.63,3.53,0.63c1.88,0,3.79-0.5,5.68-1.49c4.43-2.32,15.6-15.18,16.48-22.11c0.43-2.77-0.41-5.64-2.25-7.71
			C245.75,181.05,237.9,174.5,230.31,168.18z"/>
	</g>
	<path class="st0" d="M230.31,168.18l-0.23-0.19c-2.8-2.33-5.44-4.53-8.07-6.82c-19.27-16.73-39.18-34.03-59.91-49.86
		c-16.86-12.88-34.29-27.3-54.69-45.26c0.04-0.8-0.02-1.59-0.18-2.37c-0.23-1.1-0.75-2.12-1.52-2.98
		c-5.99-6.6-13.87-15.48-16.33-18.82c-0.95-1.29-0.95-2.16-0.92-2.44c1.06-2.33,4.38-8.08,8.82-10.54c0.05-0.03,1.19-0.61,5.44-0.61
		c5.2,0,12.05,0.87,17.04,1.5c4.61,0.58,7.55,0.94,9.69,0.94c3.93,0,6.49-1.5,7.61-4.47c1.13-2.99,0.62-5.27,0-6.66
		c-0.79-1.75-2.27-3.14-3.97-3.79c-0.07-0.03-0.14-0.05-0.21-0.08l-0.1-0.03c-3.61-1.26-22.2-7.72-34.11-11.06
		c-2.87-0.81-5.88-1.22-8.92-1.22c-15.22,0-27.25,10.07-28.56,11.21c-0.2,0.17-0.4,0.37-0.63,0.63
		c-0.34,0.4-36.43,41.71-38.82,44.28c-1.03,1.11-1.76,2.37-2.16,3.73c-1.77,0.62-3.03,1.7-3.52,2.12c-0.61,0.51-6.99,7.25-9.9,11.23
		C6,76.77,5.85,76.93,5.7,77.09c-4.33,4.93,0.51,10.83,2.33,13.06c2.32,2.82,5.63,6.15,9.32,9.39c2.8,2.45,9.85,8.37,14.92,10.28
		c0.51,0.19,1.88,0.71,3.52,0.71c1.47,0,2.86-0.41,4.02-1.2c0.43-0.28,0.84-0.61,1.21-1.01c2.03-2.17,8.78-9.45,10.35-11.9
		c0.27-0.42,0.51-0.83,0.72-1.24c0.25-0.38,0.46-0.79,0.62-1.22c0.93-0.25,1.8-0.65,2.59-1.21c1.78-1.28,2.96-3.27,3.32-5.56
		c1.6-3.99,4.08-7.72,5.33-8.54c0.35,0.04,1.14,0.2,2.53,0.72c4.43,1.67,10.4,5.41,13.29,7.39c1.42,1.06,2.62,1.76,3.78,2.19
		c1.15,0.44,2.31,0.62,3.43,0.52c5.2,4.79,10.77,9.98,17.68,16.47c1.75,1.64,3.51,3.28,5.27,4.91l0.46,0.42
		c2.83,2.62,5.75,5.34,8.57,8.04l0.15,0.14c8.17,7.85,80.49,77.2,106.98,97.95c0.62,0.55,1.56,1.24,2.89,1.74
		c1.11,0.42,2.3,0.63,3.53,0.63c1.88,0,3.79-0.5,5.68-1.49c4.43-2.32,15.6-15.18,16.48-22.11c0.43-2.77-0.41-5.64-2.25-7.71
		C245.75,181.05,237.9,174.5,230.31,168.18z"/>
	<g>
		<g>
			<g>
				<g>
					<g>
						<g>
							<path class="st12" d="M248.35,195.32c0,0,0.32-1.46-0.69-2.6c-8.73-9.79-19.91-18.16-29.78-26.73
								c-19.55-16.98-39.06-33.93-59.64-49.64c-29.08-22.21-56.41-46.44-83.48-71.04c-0.74-0.67-12.62-11.43-12.48-11.59
								l-13.7,15.62c1.82-2.08,22.22,16.97,23.79,18.37c12.4,10.99,24.54,22.28,36.62,33.62c4.77,4.48,9.63,8.88,14.34,13.42
								c0,0,79.46,76.47,106.88,97.86c0,0,1.62,1.84,5.01,0.07C238.61,210.92,248.03,199.27,248.35,195.32z"/>
							<path class="st13" d="M230.67,214.63L230.67,214.63c-0.74-0.28-1.22-0.68-1.45-0.89c-26.09-20.38-98.58-89.88-106.77-97.75
								l-0.15-0.14c-2.94-2.83-5.93-5.6-8.91-8.37c-1.81-1.68-3.62-3.35-5.42-5.04C96.51,91.67,84.15,80.16,71.39,68.84
								c-0.16-0.14-0.51-0.47-1.02-0.93C56.23,54.99,51.08,51.46,49.25,50.77c-0.03-0.01-0.07-0.02-0.1-0.04
								c-0.42,0.17-0.91,0.16-1.34-0.1c-0.62-0.37-0.89-1.14-0.63-1.81c0.03-0.07,0.04-0.12,0.3-0.44l-0.03-0.03
								c0.07-0.08,0.16-0.16,0.25-0.23c1-1.19,4.03-4.64,13.45-15.39c0.54-0.62,1.49-0.68,2.12-0.14c0.11,0.1,0.2,0.21,0.27,0.32
								c0.39,0.42,2.37,2.35,11.74,10.85l0.49,0.45c30.1,27.34,55.79,49.88,83.38,70.95c20.61,15.74,40.48,33,59.69,49.69
								c2.69,2.34,5.46,4.65,8.26,6.97c7.49,6.24,15.24,12.7,21.67,19.9c1.34,1.5,1.15,3.3,1.06,3.81
								c-0.48,4.63-10.28,16.58-13.92,18.48C233.53,215.26,231.75,215.04,230.67,214.63z M231.34,211.61c0.01,0,0.15,0.12,0.39,0.21
								c0.73,0.28,1.69,0.12,2.8-0.46c3.12-1.63,12.06-12.85,12.32-16.15c0-0.07,0.02-0.14,0.03-0.21c0-0.01,0.13-0.74-0.35-1.28
								c-6.28-7.04-13.94-13.42-21.35-19.59c-2.81-2.34-5.6-4.66-8.29-7c-19.2-16.67-39.03-33.9-59.57-49.58
								c-27.67-21.14-53.42-43.72-83.58-71.12l-0.49-0.44c-5.92-5.38-9.18-8.34-10.89-10.09c-2.36,2.69-8.16,9.3-11.01,12.56
								c3.51,1.88,10.42,7.55,21.03,17.23c0.49,0.45,0.83,0.76,0.99,0.9c12.8,11.35,25.17,22.88,36.65,33.65
								c1.79,1.68,3.6,3.36,5.4,5.03c3,2.78,6,5.57,8.95,8.4l0,0c0.06,0.05,0.11,0.09,0.16,0.14c8.18,7.86,80.7,77.4,106.6,97.61
								C231.21,211.48,231.28,211.54,231.34,211.61L231.34,211.61z"/>
						</g>
					</g>
				</g>
				<g>
					<path class="st14" d="M99.46,81.22c2.19-2.65,4.66-5.09,7.31-7.29C96,64.51,85.36,54.94,74.76,45.31
						c-0.74-0.67-12.62-11.43-12.48-11.59l-13.7,15.62c1.82-2.08,22.22,16.97,23.79,18.37c7.71,6.84,15.32,13.79,22.88,20.8
						C95.93,85.82,98.01,82.96,99.46,81.22z"/>
				</g>
				<g class="st15">
					<path class="st16" d="M84.51,74.14c-1.64-1.45-3.35-3.07-5.27-4.17c-0.62-0.35-1.96-0.61-2.03,0.34
						c0.07,0.04,0.13,0.1,0.17,0.19c0.61,1.25,1.33,2.44,2.11,3.58c-0.55-1.02-1.1-2.04-1.64-3.07c-0.67-1.25,0.98-0.36,1.44-0.09
						c0.82,0.47,1.6,1.09,2.26,1.75c2.17,2.16,4.66,4.02,6.84,6.2c2.57,2.58,4.96,5.32,7.26,8.14c0.09,0.02,0.19,0.07,0.26,0.15
						c1.97,2.41,3.97,4.79,6.14,7.01C96.73,87.05,91.22,80.07,84.51,74.14z"/>
					<path class="st16" d="M111.12,99.88c-2.73-4.17-5.4-8.44-8.57-12.29c-3.18-3.84-6.64-7.44-10.28-10.84
						c-1.55-1.45-3.25-2.73-4.82-4.15c-1.83-1.65-3.41-3.55-5.25-5.19c-1.48-1.31-3.1-2.58-4.73-3.69c-0.77-0.52-2.68-1.7-3.7-1.26
						c-0.7,0.31-0.84,0.94-0.89,1.66c-0.03,0.6,0.53,1.62,0.64,2.19c0.09,0.49,0.24,0.96,0.42,1.43c0.53,0.95,1.08,1.9,1.73,2.76
						c-0.03-0.05-0.05-0.11-0.08-0.17c-0.76-1.88-1.26-3.75-1.92-5.65c-0.93-2.7,2.53-0.62,3.47-0.04c3.78,2.33,6.65,5.87,9.86,8.86
						c2.97,2.77,6.08,5.36,9.01,8.2c6.01,5.83,10.59,12.7,15.15,19.64c0.14-0.01,0.29,0.03,0.39,0.2c1.7,2.7,3.75,5.1,5.94,7.4
						C115.26,105.99,113.15,102.97,111.12,99.88z"/>
					<path class="st16" d="M123.9,103.09c-6.47-6.21-12.38-12.88-18.65-19.28c-6.15-6.28-12.65-12.45-19.52-17.94
						c-3.25-2.6-6.71-4.63-10.34-6.65c-1.51-0.84-2.95-1.89-4.51-2.61c-1.07-0.5-1.41,0.16-1.72,1.09c-0.4,1.2,0.23,3.01,0.44,4.2
						c0.15,0.84,0.33,1.67,0.51,2.51c0.24,0.37,0.49,0.74,0.75,1.1c-0.28-1.1-0.52-2.21-0.74-3.33c-0.17-0.9-0.31-1.81-0.45-2.72
						c-0.25-0.82,0.06-1.49,0.91-2.03c0.49,0.16,0.96,0.54,1.38,0.82c2.85,1.95,5.99,3.46,8.92,5.29c3.47,2.17,6.61,5.01,9.67,7.72
						c5.74,5.08,11.51,10.32,16.7,15.97c5.21,5.67,10.5,11.37,16.41,16.32C123.82,103.69,124.03,103.2,123.9,103.09z"/>
					<path class="st16" d="M123.88,93.52c-2.78-2.07-5.74-3.84-8.54-5.89c-2.93-2.15-5.71-4.5-8.49-6.85
						c-5.48-4.65-10.52-9.89-15.71-14.87c-2.74-2.63-5.71-5.03-8.58-7.51c-2.91-2.52-5.74-5-8.86-7.27
						c-0.12-0.08-0.26,0.27-0.17,0.34c5.82,4.56,11.29,9.71,16.67,14.79c5.41,5.12,10.5,10.62,16.18,15.46
						c2.59,2.21,5.21,4.39,7.94,6.43c2.78,2.08,5.8,3.78,8.64,5.77c3.25,2.28,6.41,4.68,9.64,6.98c2.82,2.02,5.36,4.46,8.27,6.35
						c0.11,0.08,0.29-0.35,0.19-0.44C135.45,102.21,129.69,97.86,123.88,93.52z"/>
					<path class="st16" d="M197.97,170.54c-3.82-2.96-7.61-5.96-11.33-9.05c-7.35-6.11-14.38-12.55-21.59-18.82
						c-3.53-3.08-7.07-6.17-10.45-9.41c-3.3-3.16-6.36-6.55-9.62-9.75c-1.5-1.48-3.18-2.71-4.76-4.09
						c-1.66-1.46-3.17-3.11-4.68-4.73c-3.04-3.25-5.98-6.56-9.49-9.32c-0.12-0.09-0.27,0.27-0.17,0.35
						c3.16,2.87,5.97,6.09,8.81,9.27c1.5,1.67,3.03,3.31,4.65,4.86c1.49,1.44,3.19,2.64,4.7,4.06c3.33,3.13,6.37,6.56,9.62,9.76
						c3.33,3.27,6.89,6.32,10.46,9.33c7.27,6.14,14.37,12.46,21.71,18.52c3.73,3.08,7.55,6.06,11.4,9
						c3.65,2.79,7.03,5.89,10.57,8.81c0.13,0.1,0.29-0.29,0.19-0.37C204.61,176.17,201.42,173.22,197.97,170.54z"/>
					<path class="st16" d="M174,160.17c0.74,0.51,1.51,1,2.28,1.47c-7.88-8.03-15.57-16.25-23.16-24.55
						c-2.06-2.27-4.21-4.44-6.35-6.64c-2.21-2.27-4.27-4.69-6.61-6.84c-4.32-3.98-8.74-7.66-12.45-12.26
						c-0.07-0.09-0.22,0.22-0.15,0.3c3.6,4.75,7.88,8.65,12.24,12.68c2.17,2,4.06,4.26,6.08,6.39c2.28,2.39,4.61,4.74,6.82,7.2
						c4.25,4.73,8.6,9.38,12.96,14.02c2.01,2.14,3.98,4.25,6.17,6.21C172.58,158.79,173.29,159.47,174,160.17z"/>
					<path class="st16" d="M222.37,176.89c-1.33-1.27-2.58-2.3-4.07-3.38c-3.15-2.29-6.1-4.86-9.24-7.19
						c-6.98-5.17-14.1-10.14-21.02-15.41c-6.91-5.24-13.31-11.05-20.05-16.49c-3.21-2.59-6.55-5-9.76-7.58
						c-3.4-2.74-6.49-5.75-9.66-8.75c-0.11-0.11-0.28,0.27-0.19,0.37c2.94,2.96,5.79,6,8.96,8.72c3.12,2.67,6.47,5.08,9.66,7.67
						c6.72,5.47,13.11,11.29,19.99,16.57c6.73,5.15,13.61,10.05,20.49,14.99c3.2,2.3,6.24,4.81,9.39,7.18
						c1.45,1.09,3.04,2.1,4.32,3.38c0.51,0.51,1.03,1.01,1.57,1.48c0.27,0.23,0.91,0.9,1.33,1.45c-0.89-0.11-2.04-0.99-2.62-1.3
						c-2.04-1.09-4.19-1.91-6.14-3.17c-1.81-1.17-3.52-2.47-5.38-3.58c-2.17-1.29-4.44-2.43-6.64-3.66
						c-4.5-2.51-9.07-4.95-13.18-8.07c-4.16-3.15-8.28-6.36-12.31-9.67c-3.78-3.11-7.01-6.71-10.56-10.07
						c-3.54-3.35-6.98-6.79-10.45-10.22c-3.44-3.41-6.82-6.89-10.27-10.28c-1.72-1.7-3.46-3.4-5.14-5.15
						c-0.77-0.8-1.49-1.65-2.19-2.53c-0.51-0.64-1.12-1.15-1.54-1.83c1.17,0.62,2.29,1.48,3.38,2.15c1.54,0.94,3,2,4.52,2.97
						c3.25,2.07,6.68,3.88,9.99,5.85c7,4.19,13.52,8.87,19.8,14.07c6.08,5.04,12.23,9.99,18.37,14.96
						c6.24,5.05,12.5,10.13,18.22,15.77c0.07,0.07,0.18-0.18,0.12-0.24c-5.67-5.72-11.9-10.8-18.15-15.88
						c-6.15-4.99-12.16-10.13-18.25-15.19c-5.94-4.93-12.08-9.4-18.68-13.41c-3.32-2.01-6.71-3.87-10.04-5.87
						c-1.75-1.05-3.45-2.18-5.14-3.33c-1.38-0.94-3.01-2.12-4.55-2.75c-0.2-0.08-0.29,0.41-0.26,0.52c0.47,1.62,2.17,3.03,3.25,4.27
						c1.58,1.82,3.41,3.42,5.08,5.15c3.53,3.65,7.11,7.24,10.7,10.83c3.62,3.62,7.21,7.23,10.94,10.73
						c3.91,3.67,7.49,7.56,11.66,10.96c3.83,3.12,7.69,6.51,11.83,9.22c4.35,2.84,8.76,5.4,13.29,7.95c2.19,1.23,4.41,2.39,6.56,3.7
						c2.04,1.25,3.85,2.83,5.87,4.12c1.7,1.09,3.65,1.71,5.39,2.71c0.8,0.46,2.19,1.53,3.13,0.98c0.22-0.13,0.33-0.51,0.26-0.75
						C224.62,178.7,223.21,177.68,222.37,176.89z"/>
					<path class="st16" d="M199.83,164.14c-2.59-2.1-5.27-4.11-7.9-6.16c-2.55-1.97-4.94-4.07-7.41-6.14
						c-4.88-4.09-10.44-7.5-14.44-12.56c-0.09-0.12-0.28,0.28-0.2,0.4c3.79,5.35,9.22,8.97,14.15,13.13
						c2.47,2.07,4.83,4.18,7.43,6.09c2.64,1.95,5.22,4.21,8.17,5.7C199.77,164.67,199.93,164.22,199.83,164.14z"/>
					<path class="st16" d="M185.3,139.27c-0.98-0.72-1.96-1.43-2.92-2.15c-2.77-2.1-5.42-4.35-8.19-6.45
						c-5.21-3.97-10.57-7.71-15.8-11.66c-5.44-4.09-11.47-7.18-17.43-10.42c-3.11-1.68-6.2-3.44-9.13-5.4
						c-1.36-0.91-2.89-1.81-4-3.01c-0.89-0.96-1.84-1.84-2.95-2.54c-0.09-0.05-0.22,0.26-0.12,0.33c1.26,0.87,2.17,1.99,3.17,3.12
						c0.82,0.93,2.13,1.7,3.13,2.41c2.87,2.03,5.91,3.8,8.97,5.53c6.3,3.55,12.68,6.85,18.47,11.21c2.19,1.65,4.29,3.52,6.58,5.04
						c2.98,1.98,5.85,4.01,8.7,6.18c4.91,3.72,9.65,7.74,14.71,11.26C187.39,141.61,186.36,140.42,185.3,139.27z"/>
					<path class="st16" d="M121.01,89.26c-8.25-7.56-16.31-15.44-24.97-22.52c-1.91-1.56-3.57-3.39-5.46-4.96
						c-2.09-1.75-4.2-3.46-6.27-5.23c-1.98-1.7-3.76-3.57-5.63-5.38c-1.71-1.64-3.16-3.61-5.12-4.96c-0.08-0.06-0.23,0.28-0.15,0.35
						c1.9,1.45,3.34,3.5,4.95,5.24c1.78,1.92,3.58,3.82,5.54,5.55c2.05,1.8,4.16,3.52,6.26,5.26c1.89,1.58,3.55,3.4,5.46,4.96
						c4.18,3.43,8.21,6.9,12.19,10.56c4.26,3.91,8.5,7.89,13,11.52C120.94,89.77,121.12,89.36,121.01,89.26z"/>
					<path class="st16" d="M228.96,207.7c-0.1-0.11-0.15-0.23-0.14-0.34c-2.11-1.66-4.18-3.36-6.17-5.17
						c-4.32-3.95-8.39-8.35-12.25-12.74c-1.88-2.13-4.11-3.97-6.2-5.9c-2.13-1.98-4.21-4.03-6.32-6.03
						c-4.32-4.1-8.56-8.26-12.71-12.53c-0.08-0.08-0.19,0.19-0.13,0.26c3.71,4.46,7.76,8.5,11.92,12.54
						c2.1,2.05,4.18,4.12,6.27,6.17c2.2,2.16,4.64,4.14,6.67,6.47c3.85,4.43,7.98,8.7,12.26,12.71c1.89,1.76,3.96,3.38,6.01,4.96
						c1.64,1.26,3.29,2.59,5.07,3.66C231.91,210.32,230.37,209.08,228.96,207.7z"/>
					<path class="st16" d="M235.69,206.74c-4.63-4.14-9.52-7.84-13.9-12.26c-4.6-4.65-9.92-8.58-14.45-13.28
						c-0.08-0.09-0.22,0.21-0.15,0.29c4.44,4.88,9.54,9.14,14.17,13.83c2.35,2.38,4.63,4.7,7.29,6.75c1.04,0.8,2.05,1.68,3.08,2.54
						C233.05,205.34,234.38,206.02,235.69,206.74z"/>
					<path class="st16" d="M236.41,198.5c-0.56-0.49-1.14-0.94-1.72-1.32c-2.25-1.47-4.11-3.25-6.19-4.91
						c-3.47-2.77-6.65-5.88-10.19-8.56c-0.08-0.06-0.19,0.19-0.12,0.25c3.48,2.83,6.48,6.16,9.99,8.96
						c3.4,2.71,6.65,5.65,10.17,8.23C237.69,200.27,237.05,199.39,236.41,198.5z"/>
					<path class="st16" d="M239.84,205.27c-0.82-0.85-1.61-1.72-2.49-2.5c-0.14-0.13-0.17-0.28-0.14-0.43
						c-0.41-0.31-0.83-0.62-1.28-0.91c-1.97-1.31-3.84-2.76-5.68-4.25c-1.72-1.39-3.4-2.82-5.04-4.33
						c-1.32-1.21-2.59-2.53-3.95-3.69c-0.13-0.11-0.3,0.29-0.2,0.38c1.35,1.24,2.47,2.67,3.86,3.88c1.68,1.46,3.25,3.03,4.98,4.45
						c1.52,1.27,3.06,2.5,4.68,3.63c1.91,1.35,3.64,2.99,5.61,4.23l0.01,0C240.09,205.58,239.97,205.42,239.84,205.27z"/>
					<path class="st16" d="M246.24,198.87c0.03-0.1,0.03-0.2,0-0.24c-0.67-0.78-1.5-1.27-2.38-1.79c-1.47-0.88-2.84-1.9-4.21-2.94
						c-2.06-1.57-4.08-3.16-6.2-4.65c-4.88-3.46-10.14-6.33-15.03-9.79c-0.08-0.05-0.22,0.26-0.13,0.32
						c4.83,3.57,10.03,6.6,14.89,10.12c3.9,2.82,7.62,5.77,11.63,8.4C245.28,198.51,245.75,198.7,246.24,198.87z"/>
					<path class="st16" d="M244,192.26c-2.45-2.37-5.16-4.53-7.68-6.81c-2.96-2.66-5.9-5.33-8.92-7.92
						c-0.37-0.13-0.75-0.26-1.12-0.38c3.29,2.92,6.48,5.97,9.71,8.97c1.94,1.79,3.92,3.55,5.87,5.33c1.33,1.22,2.69,2.74,4.16,3.75
						c0.03,0.03,0.06,0.01,0.09-0.01C245.32,194.29,244.65,193.28,244,192.26z"/>
				</g>
				<path class="st14" d="M67.49,62.28c-1.37-3.3,0.39-5.14,2.43-7.6c2.67-3.21,4.88-4.88,8.98-2.93c2.29,1.09,4.53,2.24,6.76,3.43
					c-3.64-3.28-7.27-6.57-10.9-9.86c-0.74-0.67-12.62-11.43-12.48-11.59l-13.7,15.62c1.41-1.6,13.88,9.38,20.22,15.12
					C68.28,63.78,67.82,63.06,67.49,62.28z"/>
				<path class="st17" d="M218.17,191.05c-11.27-9.63-23.18-18.46-33.87-28.8c-5.4-5.22-11.08-10.18-16.57-15.31
					c-5.68-5.3-11.02-10.89-16.6-16.27c-3.59-3.47-7.09-7.08-10.6-10.7c-7.49-6.54-15.02-13.03-22.31-19.8
					c-9.84-9.13-19.15-19.15-30.45-26.5c21.07,19.28,41.73,39.02,62.59,58.52c2.87,2.68,5.12,5.3,7.13,7.42
					c2.68,2.82,5.75,5.27,8.51,8.02c5.33,5.28,11.04,10.12,16.46,15.27c11.12,10.58,23.49,19.39,35.11,29.32
					C217.96,192.54,218.49,191.32,218.17,191.05z"/>
			</g>
		</g>
		<g>
			<g>
				<g>
					<path class="st18" d="M49.98,86.94L26.63,66.46c0,0-1.54,4.21-4.25,3.9l24.39,21.39C46.76,91.75,46.83,88.64,49.98,86.94z"/>
					<path class="st13" d="M46.23,93.15c-0.17-0.06-0.32-0.15-0.46-0.28L21.39,71.49c-0.49-0.44-0.65-1.14-0.38-1.74
						c0.27-0.6,0.89-0.96,1.54-0.88c1.17,0.13,2.37-2.1,2.67-2.93c0.17-0.46,0.56-0.82,1.04-0.94c0.48-0.12,0.99,0,1.36,0.33
						l23.36,20.48c0.37,0.32,0.56,0.81,0.5,1.3c-0.06,0.49-0.35,0.92-0.78,1.15c-2.32,1.26-2.43,3.5-2.43,3.52
						c-0.01,0.58-0.36,1.11-0.9,1.34C47.01,93.28,46.6,93.29,46.23,93.15z M25.31,70.93l20.66,18.12c0.34-0.72,0.85-1.5,1.61-2.22
						L27.1,68.87C26.66,69.58,26.07,70.35,25.31,70.93z"/>
				</g>
			</g>
			<g>
				<g>
					<path class="st18" d="M46.03,93c1.37-2.12,0.65-2.59,0.65-2.59l-10.5-9.21l-3.08-2.7l-10.5-9.21c0,0-0.56-0.65-2.48,0.99
						c-1.93,1.63-9.65,11-9.65,11v0c-1.04,1.18,3.92,7.22,11.07,13.49c7.15,6.27,13.79,10.39,14.82,9.21l0.01,0.01
						C36.38,104,44.66,95.12,46.03,93z"/>
					<path class="st13" d="M33.98,105.29c-2.95-1.11-8.1-4.71-13.43-9.39c-3.52-3.09-6.63-6.22-8.78-8.83
						C8.9,83.57,8.2,81.6,9.34,80.29l0.12,0.1c1.99-3.21,9.6-11.19,9.69-11.26c0.56-0.48,2.27-1.93,3.85-1.33
						c0.17,0.07,0.42,0.21,0.59,0.36l0,0l24.03,21.08c0.53,0.42,1.51,1.69-0.34,4.57c-1.4,2.18-8.96,10.3-9.82,11.22
						c-0.1,0.1-0.21,0.19-0.33,0.26C36.06,106.07,34.52,105.5,33.98,105.29z M11.9,81.91c0.49,1.36,3.79,5.72,10.64,11.73
						c5.69,4.99,10.39,8.03,12.51,8.84c0.24,0.09,0.42,0.14,0.54,0.17c2.48-2.66,8.16-8.89,9.19-10.47c0.3-0.47,0.45-0.79,0.52-0.99
						L22.01,70.77c-0.19,0.1-0.49,0.29-0.92,0.66C19.65,72.64,14.21,79.12,11.9,81.91z"/>
				</g>
			</g>
			<g>
				<g>
					<path class="st18" d="M46.03,93c1.37-2.12,0.65-2.59,0.65-2.59l-10.5-9.21l-3.08-2.7l-10.5-9.21c0,0-0.56-0.65-2.48,0.99
						c-1.93,1.63-9.65,11-9.65,11v0c-1.04,1.18,3.92,7.22,11.07,13.49c7.15,6.27,13.79,10.39,14.82,9.21l0.01,0.01
						C36.38,104,44.66,95.12,46.03,93z"/>
					<path class="st13" d="M33.98,105.29c-2.95-1.11-8.1-4.71-13.43-9.39c-3.52-3.09-6.63-6.22-8.78-8.83
						C8.9,83.57,8.2,81.6,9.34,80.29l0.12,0.1c1.99-3.21,9.6-11.19,9.69-11.26c0.56-0.48,2.27-1.93,3.85-1.33
						c0.17,0.07,0.42,0.21,0.59,0.36l0,0l24.03,21.08c0.53,0.42,1.51,1.69-0.34,4.57c-1.4,2.18-8.96,10.3-9.82,11.22
						c-0.1,0.1-0.21,0.19-0.33,0.26C36.06,106.07,34.52,105.5,33.98,105.29z M11.9,81.91c0.49,1.36,3.79,5.72,10.64,11.73
						c5.69,4.99,10.39,8.03,12.51,8.84c0.24,0.09,0.42,0.14,0.54,0.17c2.48-2.66,8.16-8.89,9.19-10.47c0.3-0.47,0.45-0.79,0.52-0.99
						L22.01,70.77c-0.19,0.1-0.49,0.29-0.92,0.66C19.65,72.64,14.21,79.12,11.9,81.91z"/>
				</g>
			</g>
			<g>
				<path class="st18" d="M46.68,90.41l-9.46-8.3c-3.33,4.09-7.38,9.77-12.7,10.42c-6.49,0.79-9.61-4.41-13.29-8.71
					c1.66,2.6,5.48,6.72,10.3,10.96c7.15,6.27,13.79,10.39,14.82,9.21l0.01,0.01c0,0,8.28-8.88,9.65-11
					C47.4,90.87,46.68,90.41,46.68,90.41z"/>
			</g>
			<g>
				<g>
					<path class="st18" d="M100.83,66.89c0.22-0.65,0.31-1.3,0.18-1.92c-2.92-3.22-13.48-14.9-16.73-19.32
						c-3.41-4.63-1.77-8.45-1.77-8.45s4.05-9.63,11.71-13.86c7.66-4.24,36.16,2.66,36.91,0.67c0.75-2-0.33-2.28-0.33-2.28
						s-20.88-7.34-33.84-10.98c-16.38-4.6-31.61,8.68-31.61,8.68S28.92,61.15,26.39,63.88c-2.5,2.69,1.42,5.74,2.25,6.25
						c0.46,0.29,19.33,16.95,19.33,16.95c4.54,2.49,4.42-1.35,4.42-1.35s4.6-12.64,10.65-13.39c6.05-0.75,20.45,9.3,20.45,9.3
						c3.22,2.41,3.32,1.25,3.32,1.25L100.83,66.89z"/>
					<path class="st13" d="M48.59,89.02c-0.4-0.15-0.85-0.36-1.34-0.63c-0.1-0.05-0.19-0.12-0.27-0.19
						c-7.33-6.47-18.49-16.3-19.21-16.86l0,0c-0.02-0.01-3.26-2.06-3.66-4.97c-0.17-1.28,0.24-2.5,1.19-3.52
						c2.48-2.67,38.57-43.98,38.93-44.4c0.05-0.05,0.09-0.1,0.14-0.14c0.65-0.56,16.04-13.76,33-9
						c12.86,3.61,33.73,10.94,33.93,11.01l0.01,0c0.96,0.36,2.21,1.63,1.23,4.22c-0.69,1.81-2.89,1.61-12.15,0.44
						c-8.43-1.07-21.17-2.68-25.43-0.32c-7.12,3.94-11.01,13.04-11.05,13.13c-0.05,0.12-1.22,3.16,1.59,6.97
						c3.18,4.32,13.54,15.79,16.64,19.2c0.18,0.2,0.3,0.44,0.36,0.71c0.17,0.84,0.1,1.72-0.23,2.7c-0.06,0.19-0.16,0.36-0.3,0.51
						L88.1,83.69c-0.14,0.27-0.36,0.5-0.63,0.67c-0.6,0.38-1.34,0.4-2.22,0.07l0,0c-0.71-0.27-1.58-0.79-2.66-1.6
						c-0.04-0.03-8.05-5.59-14.41-7.99c-2.7-1.02-4.19-1.12-4.96-1.02c-4.09,0.51-8.12,8.96-9.35,12.2
						c-0.04,0.64-0.27,1.99-1.41,2.81C51.77,89.32,50.54,89.75,48.59,89.02z M48.83,85.83c1.13,0.6,1.82,0.6,1.88,0.56
						c0.07-0.05,0.17-0.39,0.17-0.64c0-0.17,0.03-0.38,0.09-0.54c0.5-1.38,5.12-13.52,11.88-14.37c1.63-0.2,3.72,0.19,6.39,1.2
						c6.71,2.53,14.77,8.13,15.11,8.36c0.82,0.62,1.36,0.94,1.68,1.1l13.46-15.35c0.05-0.19,0.08-0.37,0.08-0.53
						c-3.47-3.83-13.34-14.79-16.5-19.07c-3.88-5.26-2.02-9.74-1.94-9.93c0.17-0.4,4.33-10.15,12.36-14.58
						c5.12-2.83,17.4-1.28,27.26-0.03c3.37,0.42,7.11,0.9,8.82,0.89c-3.81-1.33-21.61-7.49-33.02-10.7
						c-14.84-4.17-29.01,7.36-30.14,8.31c-2.31,2.64-36.44,41.72-38.92,44.39c-0.43,0.46-0.45,0.81-0.41,1.07
						c0.15,1.09,1.63,2.44,2.35,2.88C29.57,68.94,30,69.2,48.83,85.83z"/>
				</g>
			</g>
			<g>
				<path class="st18" d="M90.67,78.48C83.83,71.9,74.68,63.9,65.33,63.14c-6.19-0.51-11.35,1.54-15.56,6.12
					c-1.89,2.07-3.73,4.03-6.46,4.9c-5.23,1.68-10.96-4.84-13.37-8.62c-0.89-1.39-1.31-2.75-1.39-4.1
					c-1.11,1.25-1.87,2.11-2.17,2.43c-2.5,2.69,1.42,5.74,2.25,6.25c0.46,0.29,19.33,16.95,19.33,16.95
					c4.54,2.49,4.42-1.35,4.42-1.35s4.6-12.64,10.65-13.39c6.05-0.75,20.45,9.3,20.45,9.3c3.22,2.41,3.32,1.25,3.32,1.25
					L90.67,78.48z"/>
				<path class="st18" d="M131.27,22.19c-0.11,0.04-0.23,0.05-0.37,0.03c-10.64-1.12-20.73-5.21-31.6-5.15
					c-10.06,0.05-17.56,4.4-23.33,12.62c-3.16,4.52-6.49,10.7-3.23,16.07c2.22,3.66,19.23,19.88,25.1,24.55l3-3.43
					c0.22-0.65,0.31-1.3,0.18-1.92c-2.92-3.22-13.48-14.9-16.73-19.32c-3.41-4.63-1.77-8.45-1.77-8.45s4.05-9.63,11.71-13.86
					c7.66-4.24,36.16,2.66,36.91,0.67C131.49,23.07,131.43,22.51,131.27,22.19z"/>
			</g>
			<path class="st19" d="M66.04,19.51c2.66-1.59,5.53-3.22,8.48-4.19c6.06-2,12.67-2.58,18.98-1.57c7,1.11,13.78,3.21,20.59,5.11
				c5.71,1.59,11.54,2.72,17.3,4.12c0.09-1.06-0.58-1.24-0.58-1.24s-20.88-7.34-33.84-10.98c-16.38-4.6-31.61,8.68-31.61,8.68
				s-0.45,0.52-1.26,1.44C64.72,20.38,65.36,19.91,66.04,19.51z"/>
			<path class="st20" d="M19.76,90.26c1.17,0.67,2.39,1.27,3.62,1.82c-3.65-3.11-7.52-6.83-7.03-8.29C17.27,81.1,22,75.74,22,75.74
				s-1.37-1.64-5.71,3.33c0,0-3.87,2.54-1.41,5.78C15.9,86.19,17.67,88.23,19.76,90.26z"/>
			<path class="st20" d="M40.28,68.69c0,0-8.15-5.16-6-7.5c2.15-2.34,31.65-35.09,31.65-35.09s6.85-5.58,11.9-4.17
				c0,0-5.92,0.49-11.16,6.29c-5.23,5.8-28.76,34.28-28.76,34.28S35.74,64.21,40.28,68.69z"/>
			<path class="st19" d="M86.13,26.95c0,0,6.1-7.49,14.92-7.22c8.82,0.28,28.17,4,28.17,4s-27.36-8.45-35.36-5.84
				C85.85,20.5,80.52,31.59,86.13,26.95z"/>
		</g>
	</g>
</g>
</svg>
